<?xml version="1.0" encoding="UTF-8" standalone="no"?><svg xmlns="http://www.w3.org/2000/svg" xmlns:xlink="http://www.w3.org/1999/xlink" contentScriptType="application/ecmascript" contentStyleType="text/css" height="493px" preserveAspectRatio="none" style="width:317px;height:493px;background:#00000000;" version="1.1" viewBox="0 0 317 493" width="317px" zoomAndPan="magnify"><defs><filter height="300%" id="fqdnrsl6bp81d" width="300%" x="-1" y="-1"><feGaussianBlur result="blurOut" stdDeviation="2.0"/><feColorMatrix in="blurOut" result="blurOut2" type="matrix" values="0 0 0 0 0 0 0 0 0 0 0 0 0 0 0 0 0 0 .4 0"/><feOffset dx="4.0" dy="4.0" in="blurOut2" result="blurOut3"/><feBlend in="SourceGraphic" in2="blurOut3" mode="normal"/></filter></defs><g><!--MD5=[9d1b795d975ab05f601abc37ebe56014]
cluster Aggregate--><path d="M49.3066,76.6857 L49.3066,76.6857 L49.365,76.7586 L51.915,74.3647 L54.807,72.3985 L57.5876,70.2929 L60.0021,67.7294 L62.9234,65.7999 L62.9047,65.7708 L65.7513,67.5296 L68.6921,69.4348 L71.6986,71.4417 L74.4791,73.098 L77.5761,75.2453 L77.5761,75.2453 L77.7578,75.4112 L79.8802,72.3056 L82.5332,69.6844 L85.251,67.1222 L87.592,64.2162 L90.1312,61.4911 L90.1432,61.5189 L93.5455,62.9535 L97.0024,64.5148 L100.433,66.0149 L103.9139,67.6317 L107.2306,68.8681 L107.2306,68.8681 L107.3953,69.1168 L110.3966,67.1339 L113.2916,64.9907 L116.3422,63.0822 L119.4,61.1847 L122.2269,58.9386 L122.0269,58.6881 L125.2262,61.4186 L127.7669,63.3243 L130.8083,65.8571 L133.3341,67.7441 L136.2824,70.1604 L136.2824,70.1604 L136.262,70.1378 L138.9272,68.2012 L141.114,65.7382 L143.5831,63.5858 L146.0759,61.4594 L148.3977,59.145 L148.4781,59.3116 L151.3467,60.5661 L154.3526,62.1054 L157.1363,63.1839 L160.2514,64.9496 L163.1462,66.2584 L163.1462,66.2584 L163.2902,66.455 L166.3212,64.1768 L169.4237,61.9962 L172.1939,59.3622 L175.2077,57.0606 L178.4372,55.0534 L178.2737,54.8308 L181.4775,57.2766 L184.4971,59.4716 L187.7838,62.0304 L190.6144,63.9681 L193.7161,66.2749 L193.7161,66.2749 L193.65,66.1376 L197.0179,64.7976 L200.103,62.8705 L203.3893,61.3609 L206.8722,60.2599 L210.0049,58.4313 L210.138,58.5719 L212.855,61.1542 L215.1579,63.2992 L217.9795,65.9919 L220.6881,68.5653 L223.1334,70.8606 L223.1334,70.8606 L223.0059,70.6938 L225.6314,68.8975 L228.2151,67.0466 L230.8809,65.3029 L233.2277,63.1421 L235.7527,61.2143 L235.8844,61.3722 L238.0347,63.06 L240.4391,65.0526 L243.2149,67.4904 L245.3071,69.1086 L247.9508,71.388 L247.9508,71.388 L248.0575,71.5875 L250.2431,70.2652 L252.3926,68.8755 L254.6235,67.6381 L257.0429,66.7527 L259.1957,65.3692 L259.1877,65.2364 L261.0923,65.5184 L262.9424,64.8973 L264.8545,65.3031 L266.7316,65.1307 L268.5994,64.8025 L268.659,64.8936 L270.1793,65.8459 L271.9129,67.1244 L273.4537,68.1081 L274.914,68.9687 L276.4411,69.9315 L276.5437,69.9923 L277.7031,72.1157 L279.3386,74.5212 L280.4357,76.6077 L281.7542,78.8254 L283,81 L283,81 L282.8604,80.7684 L283.039,80.9253 L283.3858,81.3612 L283.4946,81.4023 L283.5182,81.302 L283.66,81.3979 L283.66,81.3979 L283.5562,81.2993 L286.2772,84.159 L288.8144,86.8442 L291.8568,90.0094 L294.6491,92.937 L297.0986,95.5388 L297.2961,95.6641 L295.2686,98.9984 L292.8659,102.0945 L290.8592,105.442 L288.5903,108.623 L286.645,112.0095 L286.645,112.0095 L286.7403,112.0923 L288.734,114.3898 L290.8427,116.7873 L292.5865,118.8677 L294.6246,121.2038 L296.6759,123.5514 L296.8502,123.6433 L295.4719,126.374 L293.6204,128.855 L292.3186,131.6261 L291.0265,134.4023 L289.5408,137.0763 L289.5408,137.0763 L289.3312,136.9037 L291.6321,139.5678 L293.5695,141.9325 L295.4166,144.2227 L297.4701,146.683 L299.3914,149.0345 L299.6754,149.1901 L297.7801,151.6848 L296.5355,154.5362 L295.0347,157.2471 L293.4791,159.928 L291.9446,162.6204 L291.9446,162.6204 L291.994,162.6589 L293.8389,165.0327 L295.4348,167.2126 L297.3676,169.6549 L299.2009,172.0196 L301.2172,174.527 L301.2411,174.5422 L299.6312,177.0953 L298.0398,179.6601 L296.251,182.0995 L294.7158,184.7 L293.1221,187.2634 L293.1221,187.2634 L293.0763,187.2359 L295.1855,190.4613 L296.9719,193.4926 L298.4682,196.3495 L300.469,199.5098 L302.3404,202.5922 L302.1439,202.4273 L300.1387,205.4148 L297.9477,208.2464 L295.626,210.9682 L292.9924,213.4283 L290.8408,216.2929 L290.8408,216.2929 L290.986,216.4393 L292.7159,218.1493 L295.1186,220.5376 L297.0699,222.4707 L299.3015,224.6864 L301.3788,226.7466 L301.4765,226.7897 L300.3744,229.5481 L298.6932,232.0516 L297.983,234.9827 L296.6657,237.6464 L295.3968,240.3314 L295.3968,240.3314 L295.5244,240.4245 L297.7051,243.3236 L299.4784,245.9255 L301.5791,248.7664 L303.6326,251.5727 L305.5958,254.3131 L305.6658,254.3659 L303.5132,257.0778 L301.6835,260.0328 L299.1324,262.4446 L297.4673,265.5236 L295.1843,268.1373 L295.1843,268.1373 L294.9748,267.9557 L297.3106,270.6418 L299.8132,273.4725 L302.117,276.1309 L304.2497,278.641 L306.7229,281.4462 L306.8723,281.5535 L304.7075,284.3361 L302.8758,287.3578 L300.7996,290.204 L298.3423,292.7765 L296.4494,295.7543 L296.4494,295.7543 L296.3012,295.6578 L298.3958,298.7869 L300.571,301.9683 L302.5832,305.0437 L304.5399,308.083 L306.4223,311.0738 L306.3123,310.9689 L304.104,313.9148 L301.5801,316.5598 L298.8381,318.9968 L296.2534,321.5838 L293.8073,324.3029 L293.8073,324.3029 L293.6558,324.2086 L295.2111,326.6369 L296.8286,329.104 L298.2357,331.44 L299.5887,333.7423 L301.2311,336.2249 L301.4126,336.343 L299.528,338.4678 L298.3539,341.0551 L296.7938,343.3911 L295.241,345.7319 L293.5703,347.996 L293.5703,347.996 L293.8534,348.1169 L294.8125,351.0967 L296.1327,354.2307 L297.8103,357.5174 L298.6969,360.4662 L300.2835,363.714 L300.2134,363.6372 L297.7931,366.0562 L295.2542,368.345 L292.6012,370.509 L290.1708,372.9168 L287.6587,375.2351 L287.6587,375.2351 L287.932,375.4218 L289.7472,378.1077 L291.1409,380.5057 L293.2392,383.3848 L294.8723,385.9463 L296.9115,388.7851 L296.9025,388.7777 L294.9316,391.4054 L292.8946,393.9788 L290.4413,396.2109 L288.7268,399.0487 L286.5086,401.4735 L286.5086,401.4735 L286.5117,401.4755 L288.0099,404.0675 L289.752,406.8125 L291.7627,409.7261 L293.4442,412.4332 L295.0605,415.0993 L295.0546,415.0949 L292.8951,417.4976 L291.4425,420.4287 L289.1711,422.7478 L287.1679,425.2675 L285.4298,427.9851 L285.4298,427.9851 L285.4053,427.9679 L287.025,430.0943 L288.4153,432.059 L289.5856,433.8684 L290.899,435.7788 L292.3349,437.7756 L292.4102,437.78 L292.5282,439.6641 L292.331,441.5296 L292.8506,443.4373 L293.0256,445.3247 L292.8883,447.1938 L292.8109,447.1372 L291.6277,448.5947 L290.9171,450.3978 L289.5759,451.7398 L288.4617,453.2478 L287.3551,454.7614 L287.4016,454.8859 L284.9837,455.3402 L282.8954,456.6775 L280.5396,457.2981 L278.375,458.4308 L276,459 L276,459 L275.9643,458.9109 L276.3405,459.2781 L276.4726,459.0354 L276.8594,459.429 L277.1545,459.5937 L277.3649,459.5465 L277.3649,459.5465 L277.2579,459.4479 L275.2688,462.0588 L272.7486,464.1803 L270.5669,466.6137 L268.7291,469.3641 L266.2912,471.5613 L266.394,471.8476 L263.3009,470.6949 L260.0857,469.2021 L257.1219,468.4093 L253.9176,466.9468 L250.9128,466.0401 L250.9128,466.0401 L250.9284,466.0606 L247.983,468.2701 L244.9833,470.4082 L242.2904,472.9493 L239.3146,475.1187 L236.2658,477.1925 L236.196,477.0682 L233.17,475.5938 L229.865,473.6226 L226.5076,471.5582 L223.3734,469.8912 L220.2138,468.1789 L220.2138,468.1789 L220.076,467.9905 L217.5192,470.0733 L214.7324,471.8419 L212.0818,473.7965 L209.5996,475.9813 L206.9229,477.9004 L206.8914,477.8572 L204.2478,475.9372 L201.5659,473.9647 L198.9876,472.134 L196.1385,469.9326 L193.6242,468.1897 L193.6242,468.1897 L193.6831,468.2296 L191.9416,470.0835 L190.9146,472.4218 L189.6146,474.5749 L188.1793,476.6364 L186.578,478.5854 L186.6431,478.7322 L185.0282,479.3655 L183.4282,480.0324 L181.7096,480.4315 L180.3208,481.575 L178.656,482.0956 L178.6998,482.2355 L176.9325,481.4973 L175.249,481.0267 L173.5189,480.4074 L171.8724,480.0549 L170.1403,479.4293 L170.3453,479.6517 L168.2683,477.6868 L166.7507,476.3289 L164.8172,474.5196 L162.9644,472.798 L161.3133,471.2951 L161.3133,471.2951 L161.2119,471.1321 L158.3038,472.8297 L155.4936,474.6846 L152.7475,476.6426 L149.945,478.5098 L147.0229,480.1848 L147.1666,480.3967 L144.3417,478.4503 L141.2736,476.1451 L138.8195,474.7455 L136.0005,472.8076 L133.0933,470.7398 L133.0933,470.7398 L133.2125,470.9484 L130.308,472.5981 L127.1473,473.7992 L124.3354,475.611 L121.5616,477.4893 L118.5916,479.0243 L118.4532,478.8611 L116.0146,476.8289 L113.5159,474.7259 L111.043,472.6532 L108.415,470.3977 L105.8543,468.2217 L105.8543,468.2217 L106.0177,468.5096 L102.5476,470.3079 L99.1166,472.175 L95.5451,473.7944 L92.3409,476.0613 L88.8697,477.8575 L88.6993,477.6674 L86.0521,475.3519 L83.0555,472.6466 L80.2338,470.1363 L77.2108,467.4016 L74.3284,464.8237 L74.3284,464.8237 L74.2808,464.7508 L71.7258,466.131 L69.4312,467.9098 L66.8894,469.3103 L64.5784,471.0639 L62.2156,472.7384 L62.2179,472.933 L60.004,472.7838 L57.7882,472.4856 L55.5794,472.7694 L53.3659,472.6633 L51.1531,472.608 L51.3089,472.7925 L49.6037,471.3541 L47.7571,469.7484 L45.9675,468.2101 L44.2459,466.7524 L42.5961,465.3795 L42.5934,465.3786 L41.9581,462.8002 L40.4745,459.9304 L39.7695,457.3281 L39.0313,454.7144 L38,452 L38,452 L38.2085,452.2495 L38.708,452.6135 L39.2386,453.0148 L39.7323,453.372 L40.4694,454.0203 L41.2378,454.7061 L41.2378,454.7061 L41.1551,454.6524 L39.581,452.0396 L37.8085,449.2981 L35.9066,446.4726 L34.0542,443.6793 L32.3203,440.9628 L32.0493,440.793 L34.1084,438.2165 L35.9634,435.5121 L37.7961,432.7938 L39.3155,429.8792 L41.0181,427.0793 L41.0181,427.0793 L41.0451,427.1023 L38.9935,424.7218 L37.2024,422.5627 L35.009,420.0617 L33.393,418.0514 L31.2682,415.6087 L31.1564,415.5315 L32.7841,412.9966 L34.7818,410.7169 L36.5702,408.2929 L38.1284,405.71 L39.8172,403.2172 L39.8172,403.2172 L39.7728,403.1868 L38.0318,400.56 L36.1215,397.8173 L34.2523,395.1028 L32.472,392.4491 L30.6005,389.733 L30.4746,389.6561 L32.4518,387.0361 L34.2683,384.3179 L35.577,381.2893 L37.3258,378.5297 L39.1182,375.7968 L39.1182,375.7968 L38.9408,375.6877 L37.5228,373.1127 L35.7126,370.2964 L34.2718,367.7074 L32.2643,364.7698 L30.6929,362.1004 L30.5625,362.0085 L32.6542,359.5482 L34.3183,356.7864 L36.3503,354.2841 L38.2084,351.6591 L39.9603,348.9592 L39.9603,348.9592 L40.1201,349.0688 L38.0968,346.3796 L36.6208,344.0659 L35.0988,341.7205 L33.0178,338.9917 L31.5309,336.6705 L31.7217,336.7882 L32.9674,334.0548 L34.72,331.6341 L36.4726,329.2134 L37.5521,326.3775 L39.3555,323.9881 L39.3555,323.9881 L39.6008,324.1951 L37.0673,321.2859 L34.7217,318.5352 L32.8193,316.1585 L30.0758,313.072 L28.0478,310.5894 L28.2798,310.7259 L29.6731,307.4772 L31.7169,304.6114 L33.6644,301.6888 L35.1068,298.469 L36.9427,295.4808 L36.9427,295.4808 L36.7863,295.373 L34.9356,292.6718 L33.1351,290.0052 L31.4397,287.411 L29.2576,284.4815 L27.5904,281.9067 L27.7761,282.0378 L29.6967,279.3581 L31.1381,276.3402 L33.2425,273.7903 L35.0277,271.015 L37.097,268.4403 L37.097,268.4403 L37.156,268.489 L34.7123,265.6485 L32.8615,263.2981 L30.797,260.7709 L28.5164,258.0653 L26.3922,255.4888 L26.4481,255.5297 L28.384,252.7821 L30.4542,250.1329 L32.6097,247.5461 L34.5749,244.8199 L36.3258,241.9367 L36.3258,241.9367 L36.4201,242.0107 L34.3457,239.4039 L32.4169,236.9113 L30.3882,234.3403 L28.4051,231.8051 L26.3407,229.2061 L26.5106,229.3181 L27.8492,226.325 L30.0609,223.9071 L31.8682,221.2228 L33.2061,218.2293 L35.2402,215.6944 L35.2402,215.6944 L35.4804,215.839 L33.8001,213.2484 L32.2066,210.71 L30.5207,208.116 L29.1487,205.7111 L27.783,203.3099 L28.0122,203.4659 L29.195,200.7734 L31.2383,198.6669 L32.5816,196.0836 L34.4091,193.8301 L35.9206,191.3614 L35.9206,191.3614 L35.7258,191.2616 L34.1602,188.0605 L32.8537,184.9921 L31.0164,181.6518 L29.1726,178.3081 L27.5824,175.0944 L27.6547,175.1634 L30.2836,172.6187 L32.6967,169.868 L35.3551,167.3515 L37.8412,164.6705 L40.205,161.8727 L40.205,161.8727 L40.27,161.9174 L38.4787,159.3963 L36.7438,156.914 L35.0346,154.4494 L33.5916,152.1676 L31.8111,149.6539 L31.8237,149.6635 L33.8219,147.458 L35.2757,144.8394 L37.1356,142.5289 L38.7302,140.0172 L40.7721,137.8447 L40.7721,137.8447 L40.8899,137.9409 L38.3229,134.9353 L36.0813,132.1952 L33.9995,129.5855 L31.76,126.8471 L29.6565,124.2197 L29.7504,124.2839 L31.4933,121.2154 L33.8935,118.5961 L35.537,115.4596 L37.6659,112.6549 L39.5794,109.703 L39.5794,109.703 L39.7553,109.8402 L37.9004,107.6006 L36.461,105.6849 L34.8848,103.6626 L33.4507,101.7511 L31.6886,99.5838 L31.3662,99.5439 L31.3747,97.67 L31.2467,95.7792 L31.26,93.9058 L30.5129,91.9384 L30.5099,90.063 L30.5597,90.0902 L31.5474,88.3898 L32.6297,86.7409 L33.0454,84.728 L34.0814,83.054 L35.2212,81.4365 L35.0546,81.2175 L37.2859,80.0924 L39.0359,78.3346 L41.1272,77.0255 L42.8716,75.2603 L45,74 L45,74 L44.8928,73.8281 L45.8961,74.5928 L46.5692,74.8281 L47.4333,75.3698 L48.608,76.4095 L49.3066,76.6857 " fill="#00000000" filter="url(#fqdnrsl6bp81d)" style="stroke:#FFFFFF;stroke-width:1.5;"/><text fill="#FFFFFF" font-family="sans-serif" font-size="15" font-weight="bold" lengthAdjust="spacingAndGlyphs" textLength="92" x="114.5" y="92.9233">Aggregate</text><!--MD5=[ac6161e8f058696c1bd702bd1e6929b7]
class Voertuig--><polygon fill="#070707" filter="url(#fqdnrsl6bp81d)" points="46.5,102,46.5,102.2102,56.6429,101.5857,66.7857,102.1933,76.9286,102.3997,87.0714,101.2866,97.2143,101.9223,107.3571,101.5735,117.5,102,117.1165,102,117.4318,111.7604,116.8086,121.5208,118.0536,131.2813,116.8697,141.0417,117.3022,150.8021,117.9319,160.5625,117.4142,170.3229,117.5682,180.0833,117.5,189.8438,117.5,189.8118,107.3571,190.0223,97.2143,190.0829,87.0714,190.4294,76.9286,190.5148,66.7857,190.523,56.6429,190.0984,46.5,189.8438,46.9636,189.8438,47.2022,180.0833,45.7788,170.3229,47.1785,160.5625,46.2035,150.8021,47.0338,141.0417,46.005,131.2813,46.4315,121.5208,47.2416,111.7604,46.5,102" style="stroke:#C7C7C7;stroke-width:1.5;"/><text fill="#FFFFFF" font-family="sans-serif" font-size="15" lengthAdjust="spacingAndGlyphs" textLength="65" x="49.5" y="120.9233">Voertuig</text><path d="M47.5,129.4609 L47.5,129.7412 L57.3571,128.9085 L67.2143,129.7187 L77.0714,129.9938 L86.9286,128.5097 L96.7857,129.3573 L106.6429,128.8923 L116.5,129.4609 " fill="#070707" style="stroke:#C7C7C7;stroke-width:1.5;"/><text fill="#FFFFFF" font-family="sans-serif" font-size="15" lengthAdjust="spacingAndGlyphs" textLength="27" x="52.5" y="147.3843">VIN</text><text fill="#FFFFFF" font-family="sans-serif" font-size="15" lengthAdjust="spacingAndGlyphs" textLength="39" x="52.5" y="164.8452">merk</text><text fill="#FFFFFF" font-family="sans-serif" font-size="15" lengthAdjust="spacingAndGlyphs" textLength="46" x="52.5" y="182.3062">model</text><!--MD5=[05f1a7330b1ceb1ed664acf8e30033c9]
class Motor--><polygon fill="#070707" filter="url(#fqdnrsl6bp81d)" points="153,111,153,111.2102,163.1667,110.5857,173.3333,111.1933,183.5,111.3997,193.6667,110.2866,203.8333,110.9223,214,110.5735,224.1667,110.6165,234.3333,110.9318,244.5,110.3086,254.6667,111.5536,264.8333,110.3697,275,111,274.8022,111,275.4319,121.0547,274.9142,131.1094,275.0682,141.1641,274.9681,151.2188,275.1785,161.2734,275.2391,171.3281,275,181.3828,275,181.9685,264.8333,182.0539,254.6667,182.0621,244.5,181.6374,234.3333,181.8464,224.1667,182.085,214,180.6616,203.8333,182.0613,193.6667,181.0863,183.5,181.9166,173.3333,180.8878,163.1667,181.3143,153,181.3828,153.7416,181.3828,152.9513,171.3281,153.1053,161.2734,153.3386,151.2188,153.4162,141.1641,152.9961,131.1094,153.2872,121.0547,153,111" style="stroke:#C7C7C7;stroke-width:1.5;"/><text fill="#FFFFFF" font-family="sans-serif" font-size="15" lengthAdjust="spacingAndGlyphs" textLength="46" x="191" y="129.9233">Motor</text><path d="M154,138.4609 L154,138.7412 L164,137.9085 L174,138.7187 L184,138.9938 L194,137.5097 L204,138.3573 L214,137.8923 L224,137.9496 L234,138.3701 L244,137.5391 L254,139.1991 L264,137.6206 L274,138.4609 " fill="#070707" style="stroke:#C7C7C7;stroke-width:1.5;"/><text fill="#FFFFFF" font-family="sans-serif" font-size="15" lengthAdjust="spacingAndGlyphs" textLength="110" x="159" y="156.3843">cilinderinhoud</text><text fill="#FFFFFF" font-family="sans-serif" font-size="15" lengthAdjust="spacingAndGlyphs" textLength="19" x="159" y="173.8452">pk</text><!--MD5=[790699f2c9557b0d50b9155c7415375a]
class Nummerplaat--><polygon fill="#070707" filter="url(#fqdnrsl6bp81d)" points="46.5,250,46.5,250.2102,56.5909,249.5857,66.6818,250.1933,76.7727,250.3997,86.8636,249.2866,96.9545,249.9223,107.0455,249.5735,117.1364,249.6165,127.2273,249.9318,137.3182,249.3086,147.4091,250.5536,157.5,250,156.8697,250,157.3022,260.5844,157.9319,271.1688,157.4142,281.7531,157.5682,292.3375,157.5,302.9219,157.5,302.8899,147.4091,303.1004,137.3182,303.161,127.2273,303.5076,117.1364,303.5929,107.0455,303.6011,96.9545,303.1765,86.8636,303.3855,76.7727,303.6241,66.6818,302.2007,56.5909,303.6004,46.5,302.9219,46.2035,302.9219,47.0338,292.3375,46.005,281.7531,46.4315,271.1688,47.2416,260.5844,46.5,250" style="stroke:#C7C7C7;stroke-width:1.5;"/><text fill="#FFFFFF" font-family="sans-serif" font-size="15" lengthAdjust="spacingAndGlyphs" textLength="105" x="49.5" y="268.9233">Nummerplaat</text><path d="M47.5,277.4609 L47.5,277.7412 L57.4091,276.9085 L67.3182,277.7187 L77.2273,277.9938 L87.1364,276.5097 L97.0455,277.3573 L106.9545,276.8923 L116.8636,276.9496 L126.7727,277.3701 L136.6818,276.5391 L146.5909,278.1991 L156.5,277.4609 " fill="#070707" style="stroke:#C7C7C7;stroke-width:1.5;"/><text fill="#FFFFFF" font-family="sans-serif" font-size="15" lengthAdjust="spacingAndGlyphs" textLength="55" x="52.5" y="295.3843">waarde</text><!--MD5=[ec52bb6115b2bf293dd8316a5c14ddbf]
class Wiel--><polygon fill="#070707" filter="url(#fqdnrsl6bp81d)" points="192.5,250,192.5,250.2102,202.7,249.5857,212.9,250.1933,223.1,250.3997,233.3,249.2866,243.5,250,243.4223,250,243.0735,260.5844,243.1165,271.1688,243.4318,281.7531,242.8086,292.3375,243.5,302.9219,243.5,303.4755,233.3,302.2916,223.1,302.7241,212.9,303.3538,202.7,302.8361,192.5,302.9219,192.5682,302.9219,192.4681,292.3375,192.6785,281.7531,192.7391,271.1688,193.0857,260.5844,192.5,250" style="stroke:#C7C7C7;stroke-width:1.5;"/><text fill="#FFFFFF" font-family="sans-serif" font-size="15" lengthAdjust="spacingAndGlyphs" textLength="34" x="201" y="268.9233">Wiel</text><path d="M193.5,277.4609 L193.5,277.7412 L203.3,276.9085 L213.1,277.7187 L222.9,277.9938 L232.7,276.5097 L242.5,277.4609 " fill="#070707" style="stroke:#C7C7C7;stroke-width:1.5;"/><text fill="#FFFFFF" font-family="sans-serif" font-size="15" lengthAdjust="spacingAndGlyphs" textLength="39" x="198.5" y="295.3843">merk</text><!--MD5=[881e5e9c87319b4b9056eacc15e744ad]
class WielGrootte--><polygon fill="#070707" filter="url(#fqdnrsl6bp81d)" points="107,363,107,363.2102,116.8824,362.5857,126.7647,363.1933,136.6471,363.3997,146.5294,362.2866,156.4118,362.9223,166.2941,362.5735,176.1765,362.6165,186.0588,362.9318,195.9412,362.3086,205.8235,363.5536,215.7059,362.3697,225.5882,362.8022,235.4706,363.4319,245.3529,362.9142,255.2353,363.0682,265.1176,362.9681,275,363,275.1785,363,275.2391,372.7604,275.5857,382.5208,275.6711,392.2813,275.6793,402.0417,275.2546,411.8021,275.4636,421.5625,275.7022,431.3229,274.2788,441.0833,275,450.8438,275,451.5223,265.1176,450.5472,255.2353,451.3776,245.3529,450.3487,235.4706,450.7753,225.5882,451.5854,215.7059,450.795,205.8235,450.9491,195.9412,451.1824,186.0588,451.26,176.1765,450.8398,166.2941,451.131,156.4118,450.2713,146.5294,451.1281,136.6471,451.3919,126.7647,451.2883,116.8824,451.4568,107,450.8438,106.5169,450.8438,106.3478,441.0833,106.3786,431.3229,106.9411,421.5625,106.8035,411.8021,107.6814,402.0417,106.8253,392.2813,106.6569,382.5208,107.2283,372.7604,107,363" style="stroke:#C7C7C7;stroke-width:1.5;"/><text fill="#FFFFFF" font-family="sans-serif" font-size="15" lengthAdjust="spacingAndGlyphs" textLength="93" x="144.5" y="381.9233">WielGrootte</text><path d="M108,390.4609 L108,390.7412 L117.7647,389.9085 L127.5294,390.7187 L137.2941,390.9938 L147.0588,389.5097 L156.8235,390.3573 L166.5882,389.8923 L176.3529,389.9496 L186.1176,390.3701 L195.8824,389.5391 L205.6471,391.1991 L215.4118,389.6206 L225.1765,390.1972 L234.9412,391.0369 L244.7059,390.3466 L254.4706,390.5519 L264.2353,390.4183 L274,390.4609 " fill="#070707" style="stroke:#C7C7C7;stroke-width:1.5;"/><text fill="#FFFFFF" font-family="sans-serif" font-size="15" lengthAdjust="spacingAndGlyphs" textLength="69" x="113" y="408.3843">diameter</text><text fill="#FFFFFF" font-family="sans-serif" font-size="15" lengthAdjust="spacingAndGlyphs" textLength="60" x="113" y="425.8452">breedte</text><text fill="#FFFFFF" font-family="sans-serif" font-size="15" lengthAdjust="spacingAndGlyphs" textLength="156" x="113" y="443.3062">breedteHoogteRatio</text><!--MD5=[1ba75df964675487900a27f34a1de9d0]
class VoertuigController--><polygon fill="#070707" filter="url(#fqdnrsl6bp81d)" points="7,7,7,7.2102,17,6.5857,27,7.1933,37,7.3997,47,6.2866,57,6.9223,67,6.5735,77,6.6165,87,6.9318,97,6.3086,107,7.5536,117,6.3697,127,6.8022,137,7.4319,147,6.9142,157,7,157.0227,7,156.9894,14.0922,157.0595,21.1844,157.0797,28.2766,157.1952,35.3688,157,42.4609,157,43.132,147,43.1402,137,42.7156,127,42.9245,117,43.1632,107,41.7398,97,43.1394,87,42.1644,77,42.9947,67,41.9659,57,42.3924,47,43.2025,37,42.4122,27,42.5662,17,42.7996,7,42.4609,7.1387,42.4609,6.9987,35.3688,7.0957,28.2766,6.8092,21.1844,7.0948,14.0922,7,7" style="stroke:#C7C7C7;stroke-width:1.5;"/><text fill="#FFFFFF" font-family="sans-serif" font-size="15" lengthAdjust="spacingAndGlyphs" textLength="144" x="10" y="25.9233">VoertuigController</text><path d="M8,34.4609 L8,34.7412 L17.8667,33.9085 L27.7333,34.7187 L37.6,34.9938 L47.4667,33.5097 L57.3333,34.3573 L67.2,33.8923 L77.0667,33.9496 L86.9333,34.3701 L96.8,33.5391 L106.6667,35.1991 L116.5333,33.6206 L126.4,34.1972 L136.2667,35.0369 L146.1333,34.3466 L156,34.4609 " fill="#070707" style="stroke:#C7C7C7;stroke-width:1.5;"/><!--MD5=[7911a851f995977ff5b89f488753707f]
link VoertuigController to Voertuig--><path d="M82,42.116 L82.2802,42.116 L81.4476,52.969 L82.2577,63.822 L82.5329,74.675 L81.0488,85.528 L82,96.381 " fill="none" style="stroke:#C7C7C7;stroke-width:3.0;"/><polygon fill="#C7C7C7" points="82,101.773,82.064,101.8015,82.6738,99.9169,83.6589,98.1992,84.5217,96.4271,84.9827,94.4764,86,92.773,85.9817,92.7547,85.0995,93.4725,84.3096,94.2826,83.5839,95.1569,82.637,95.81,82,96.773,82.1305,96.9035,81.0514,95.8244,80.3534,95.1264,79.7018,94.4748,78.7798,93.5528,78,92.773,78.0208,92.7822,78.7903,94.5687,79.6544,96.3972,80.4728,98.2054,81.3784,100.0523,82,101.773" style="stroke:#C7C7C7;stroke-width:3.0;"/><!--MD5=[2619822a4d9d1a716e72bfdc8318e48c]
link Voertuig to Motor--><path d="M117.578,146 L117.578,146.0934 L123.608,145.8159 L129.638,146.0859 L135.668,146.1776 L141.698,145.6829 L147.728,146 " fill="none" style="stroke:#C7C7C7;stroke-width:3.0;"/><polygon fill="#C7C7C7" points="152.983,146,153.0115,146.064,151.1269,145.0738,149.4092,144.4589,147.6371,143.7217,145.6864,142.5827,143.983,142,143.9647,141.9817,144.6825,142.6995,145.4926,143.5096,146.3669,144.3839,147.02,145.037,147.983,146,148.1135,146.1305,147.0344,146.6514,146.3364,147.5534,145.6848,148.5018,144.7628,149.1798,143.983,150,143.9922,150.0208,145.7787,149.1903,147.6072,148.4544,149.4154,147.6728,151.2623,146.9784,152.983,146" style="stroke:#C7C7C7;stroke-width:3.0;"/><text fill="#FFFFFF" font-family="sans-serif" font-size="15" lengthAdjust="spacingAndGlyphs" textLength="10" x="134.9372" y="141.8922">1</text><!--MD5=[a07ca9fa34cd2a817137451296a02ee8]
link Voertuig to Nummerplaat--><path d="M88.7153,190.146 L88.9922,190.1891 L89.591,199.1945 L91.8131,208.4526 L93.5066,217.6285 L93.4617,226.5337 L95.7207,235.7976 L97.2447,244.947 " fill="none" style="stroke:#C7C7C7;stroke-width:3.0;"/><polygon fill="#C7C7C7" points="98.0143,249.892,98.0819,249.9103,98.3948,247.9544,99.1041,246.1056,99.6843,244.222,99.84,242.2237,100.5833,240.3841,100.5624,240.3688,99.801,241.2137,99.1451,242.1356,98.5624,243.1111,97.7272,243.902,97.2457,244.9514,97.3546,245.1004,96.2083,244.1143,95.3799,243.5632,94.5903,243.0651,93.575,242.2583,92.6784,241.6138,92.6975,241.6261,93.7366,243.2637,94.8628,244.9573,95.9469,246.6239,97.1112,248.3421,98.0143,249.892" style="stroke:#C7C7C7;stroke-width:3.0;"/><text fill="#FFFFFF" font-family="sans-serif" font-size="15" lengthAdjust="spacingAndGlyphs" textLength="10" x="85.824" y="238.3235">1</text><!--MD5=[27624d0b16cddd948eb1f470c246a142]
link Voertuig to Wiel--><path d="M117.732,180.762 L117.9245,180.9657 L124.4383,187.0554 L132.0804,194.3391 L139.3551,201.2341 L145.4215,206.8502 L153.0893,214.1612 L159.8557,220.5181 L166.9807,227.2546 L174.3552,234.2551 L180.8702,240.3461 L188.589,247.711 " fill="none" style="stroke:#C7C7C7;stroke-width:3.0;"/><polygon fill="#C7C7C7" points="192.384,251.297,192.4487,251.324,191.4977,249.4261,190.9258,247.6863,190.2305,245.8951,189.1293,243.9344,188.5899,242.2083,188.564,242.2076,188.4798,243.3352,188.5261,244.4665,188.6632,245.6004,188.4875,246.7254,188.7499,247.8629,188.7551,248.0473,187.613,247.6849,186.4862,247.861,185.3612,248.1028,184.2254,247.9623,183.0953,248.0229,183.1029,248.0443,184.9495,248.6677,186.8306,249.3886,188.695,250.0625,190.5912,250.8263,192.384,251.297" style="stroke:#C7C7C7;stroke-width:3.0;"/><text fill="#FFFFFF" font-family="sans-serif" font-size="15" lengthAdjust="spacingAndGlyphs" textLength="8" x="176.4247" y="239.2351">*</text><!--MD5=[3819cbf7c53d998155432145d1580ba6]
link Wiel to WielGrootte--><path d="M212.601,303.195 L212.8753,303.2526 L210.1509,312.1694 L209.0342,321.424 L207.394,330.5686 L204.0321,339.3514 L202.9521,348.6137 L201.144,357.723 " fill="none" style="stroke:#C7C7C7;stroke-width:3.0;"/><polygon fill="#C7C7C7" points="200.058,362.891,200.1148,362.932,201.0992,361.2132,202.4166,359.7349,203.6256,358.1782,204.478,356.3641,205.8239,354.9064,205.8098,354.8847,204.7988,355.4057,203.8591,356.036,202.9691,356.7423,201.9081,357.1866,201.0866,357.9979,201.2412,358.0988,200.2924,356.9357,199.7948,356.067,199.3523,355.2342,198.5894,354.1925,197.9951,353.2606,198.0173,353.2654,198.3972,355.1845,198.8784,357.1252,199.3108,359.0555,199.8363,361.0058,200.058,362.891" style="stroke:#C7C7C7;stroke-width:3.0;"/><text fill="#FFFFFF" font-family="sans-serif" font-size="15" lengthAdjust="spacingAndGlyphs" textLength="10" x="190.7047" y="351.479">1</text><!--MD5=[b50d504d0da7edaa735b06474d3b4ac6]
@startuml
skinparam monochrome reverse
        skinparam backgroundColor transparent
        skinparam handwritten true
        skinparam defaultFontSize 15
        skinparam arrowThickness 3
        hide circle
        hide method

        class VoertuigController{
        }
        package Aggregate <<cloud>> {

        class Voertuig{
            VIN
            merk
            model
        }
        class Motor {
            cilinderinhoud
            pk
        }
        class Nummerplaat {
            waarde
        }
        class Wiel {
            merk
        }
        class WielGrootte {
            diameter
            breedte
            breedteHoogteRatio
        }
        }
        VoertuigController -d-> Voertuig
        Voertuig -r-> "1" Motor
        Voertuig - -> "1" Nummerplaat
        Voertuig - -> "*" Wiel
        Wiel - -> "1" WielGrootte
@enduml

PlantUML version 1.2020.21beta3(Unknown compile time)
(GPL source distribution)
Java Runtime: Java(TM) SE Runtime Environment
JVM: Java HotSpot(TM) 64-Bit Server VM
Default Encoding: UTF-8
Language: en
Country: US
--></g></svg>