<?xml version="1.0" encoding="UTF-8" standalone="no"?><svg xmlns="http://www.w3.org/2000/svg" xmlns:xlink="http://www.w3.org/1999/xlink" contentScriptType="application/ecmascript" contentStyleType="text/css" height="156px" preserveAspectRatio="none" style="width:278px;height:156px;background:#00000000;" version="1.1" viewBox="0 0 278 156" width="278px" zoomAndPan="magnify"><defs><filter height="300%" id="floq73wro9ifn" width="300%" x="-1" y="-1"><feGaussianBlur result="blurOut" stdDeviation="2.0"/><feColorMatrix in="blurOut" result="blurOut2" type="matrix" values="0 0 0 0 0 0 0 0 0 0 0 0 0 0 0 0 0 0 .4 0"/><feOffset dx="4.0" dy="4.0" in="blurOut2" result="blurOut3"/><feBlend in="SourceGraphic" in2="blurOut3" mode="normal"/></filter></defs><g><!--MD5=[e3f72718913f1e037c5bc72e44de49f6]
class client--><polygon fill="#070707" filter="url(#floq73wro9ifn)" points="17,7,17,7.2102,27,6.5857,37,7.1933,47,7.3997,57,6.2866,67,7,66.9741,7,66.8578,12.4922,66.8722,17.9844,66.9773,23.4766,66.7695,28.9688,67,34.4609,67,35.0146,57,33.8307,47,34.2632,37,34.8929,27,34.3752,17,34.4609,17.0227,34.4609,16.9894,28.9688,17.0595,23.4766,17.0797,17.9844,17.1952,12.4922,17,7" style="stroke:#C7C7C7;stroke-width:1.5;"/><text fill="#FFFFFF" font-family="sans-serif" font-size="15" lengthAdjust="spacingAndGlyphs" textLength="44" x="20" y="25.9233">client</text><!--MD5=[ac3459bb810f61169c23e72ed3fa4a86]
class gateway--><polygon fill="#070707" filter="url(#floq73wro9ifn)" points="7,104,7,104.2102,17,103.5857,27,104.1933,37,104.3997,47,103.2866,57,103.9223,67,103.5735,77,104,76.8722,104,76.9773,109.4922,76.7695,114.9844,77.1845,120.4766,76.7899,125.9688,77,131.4609,77,131.2632,67,131.8929,57,131.3752,47,131.5292,37,131.429,27,131.6395,17,131.7001,7,131.4609,7.1952,131.4609,7.2237,125.9688,7.2264,120.4766,7.0849,114.9844,7.1545,109.4922,7,104" style="stroke:#C7C7C7;stroke-width:1.5;"/><text fill="#FFFFFF" font-family="sans-serif" font-size="15" lengthAdjust="spacingAndGlyphs" textLength="64" x="10" y="122.9233">gateway</text><!--MD5=[ecc9119a74864e4e279d8f257dc764b2]
entity externalSystem--><path d="M121.9891,102.5481 L121.9891,102.5481 L121.9923,102.6415 L124.1847,102.4414 L126.3962,102.7887 L128.6015,102.9577 L130.7862,102.5407 L132.9994,102.9349 L132.9994,102.9349 L132.997,102.9005 L135.0933,102.5999 L137.2016,102.4729 L139.3183,102.4668 L141.4062,102.0445 L143.5344,102.205 L143.5344,102.205 L143.5676,102.4489 L145.7112,101.6264 L147.9515,101.5158 L150.2037,101.4921 L152.3872,100.963 L154.6068,100.6997 L154.6068,100.6997 L154.6116,100.7297 L157.1147,100.2851 L159.6395,99.9768 L162.1539,99.6028 L164.6883,99.3543 L167.1573,98.6966 L167.1573,98.6966 L167.1687,98.9946 L169.4223,98.9121 L171.6686,98.6374 L173.9256,98.644 L176.1832,98.6638 L178.4247,98.2658 L178.4247,98.2658 L178.4053,97.9459 L180.7068,98.4293 L182.9442,97.8592 L185.2303,98.0901 L187.4663,97.4961 L189.7434,97.5782 L189.7434,97.5782 L189.7412,97.5479 L191.9574,98.0692 L194.121,97.8811 L196.3157,98.1116 L198.5129,98.3773 L200.6914,98.3894 L200.6914,98.3894 L200.7259,98.5712 L202.8716,98.8008 L205.0762,99.3411 L207.1857,99.3788 L209.4371,100.166 L211.5941,100.455 L211.5941,100.455 L211.6062,100.6983 L214.0123,100.772 L216.4245,100.9666 L218.8087,100.5998 L221.2134,100.6445 L223.6362,101.0537 L223.6362,101.0537 L223.6112,100.7787 L225.5409,101.2014 L227.4424,101.3143 L229.3849,101.8767 L231.2575,101.6715 L233.1716,101.9226 L233.1716,101.9226 L233.1663,101.7703 L235.6046,101.9397 L238.0203,101.4578 L240.4521,101.4391 L242.8996,101.8737 L245.319,101.5011 L245.319,101.5011 L245.3579,101.6908 L247.8149,102.3186 L250.1511,102.3565 L252.6386,103.1333 L255.0932,103.7491 L257.4709,103.9898 L257.4709,103.9898 L257.2909,103.8817 L259.1772,106.8714 L261.0046,109.8256 L262.9478,112.8494 L264.4407,115.6029 L266.1851,118.5074 L266.1851,118.5074 L266.3564,118.6211 L263.9517,121.4254 L261.8776,124.4493 L260.2863,127.7939 L257.806,130.5481 L256.0431,133.7786 L256.0431,133.7786 L256.0903,133.9998 L254.0313,134.3018 L251.9564,134.5289 L249.9175,134.9249 L247.962,135.7115 L245.8885,135.9454 L245.8885,135.9454 L245.869,135.8138 L243.4348,136.5738 L240.8683,136.4388 L238.4522,137.3215 L235.9514,137.6312 L233.4278,137.7864 L233.4278,137.7864 L233.4389,137.8947 L231.103,138.0463 L228.8069,138.5856 L226.4748,138.7746 L224.1277,138.8172 L221.7931,138.9813 L221.7931,138.9813 L221.8077,139.0996 L219.8125,139.1685 L217.8853,139.7866 L215.8811,139.7835 L213.9086,140.0359 L211.9257,140.2044 L211.9257,140.2044 L211.8909,139.9362 L209.7728,140.3022 L207.6965,140.9911 L205.561,141.223 L203.4042,141.291 L201.2769,141.5863 L201.2769,141.5863 L201.2436,141.4471 L198.7059,142.1011 L196.1094,142.5084 L193.6749,143.5937 L191.1601,144.3434 L188.5354,144.6331 L188.5354,144.6331 L188.6081,144.8554 L186.644,144.277 L184.5417,143.276 L182.5853,142.721 L180.5323,141.8707 L178.5985,141.3848 L178.5985,141.3848 L178.5992,141.511 L176.197,141.4812 L173.7956,141.6037 L171.3916,141.2429 L168.9897,141.2719 L166.588,141.3184 L166.588,141.3184 L166.6115,141.514 L164.4699,141.3103 L162.2645,140.5754 L160.1332,140.4576 L158.0033,140.3507 L155.8472,140.0264 L155.8472,140.0264 L155.791,139.7608 L153.627,139.703 L151.3654,139.1845 L149.0795,138.5515 L146.8491,138.1801 L144.5832,137.6412 L144.5832,137.6412 L144.6438,137.9593 L142.0453,137.0258 L139.5856,136.8211 L137.0713,136.3295 L134.5452,135.7766 L132.0237,135.2472 L132.0237,135.2472 L132.0279,135.3097 L129.8407,135.1498 L127.6322,134.675 L125.4525,134.6263 L123.2643,134.4517 L121.0918,134.5086 L121.0918,134.5086 L121.1174,134.5206 L119.6084,131.2846 L118.1192,128.0578 L116.4182,124.7318 L114.9893,121.5333 L113.4976,118.3054 L113.4976,118.3054 L113.4506,118.2801 L115.4216,115.2756 L117.0611,112.0924 L118.4025,108.7487 L120.2622,105.6842 L121.9891,102.5481 " fill="#070707" filter="url(#floq73wro9ifn)" style="stroke:#FFFFFF;stroke-width:1.5;"/><text fill="#FFFFFF" font-family="sans-serif" font-size="15" lengthAdjust="spacingAndGlyphs" textLength="121" x="127.5" y="122.9233">externalSystem</text><!--MD5=[2d0376fd69609de7f905afa4db776244]
link client to gateway--><path d="M32.955,34.312 L33.0469,34.3286 L32.2499,37.177 L31.9917,40.1229 L31.5581,43.037 L30.5473,45.8468 L30.3354,48.801 L30.301,48.7988 L29.9342,52.1955 L29.7412,55.603 L29.6691,59.018 L29.1806,62.4071 L29.2752,65.8325 L29.5212,65.8396 L29.095,69.3083 L29.387,72.7977 L29.7666,76.2895 L29.6364,79.7668 L29.7744,83.2517 L29.8044,83.2556 L30.172,86.3802 L30.6765,89.5228 L31.1149,92.6567 L31.6793,95.8072 L31.8329,98.9036 " fill="none" style="stroke:#C7C7C7;stroke-width:3.0;"/><polygon fill="#C7C7C7" points="33.0106,103.8909,33.0794,103.9039,33.2398,101.9296,33.8037,100.0315,34.2362,98.1085,34.2365,96.1041,34.8351,94.2125,34.813,94.1989,34.1194,95.1002,33.5369,96.0702,33.0316,97.0879,32.2601,97.9412,31.8615,99.0247,31.9585,99.1817,30.7886,98.2513,29.9019,97.7792,29.0498,97.3631,27.9966,96.6215,27.0492,96.0511,27.0673,96.0649,28.233,97.6126,29.4811,99.2231,30.6895,100.8032,31.9737,102.4411,33.0106,103.8909" style="stroke:#C7C7C7;stroke-width:3.0;"/><!--MD5=[054545539f1ce16ba8250ea4e71698ca]
reverse link client to gateway--><path d="M52.8139,39.326 L52.9064,39.3387 L53.062,42.4405 L53.7601,45.6168 L54.2815,48.7688 L54.2219,51.8412 L54.9666,55.0238 L54.9321,55.0228 L54.8775,58.5044 L54.9969,61.991 L55.2373,65.481 L55.0608,68.959 L55.4682,72.4539 L55.7137,72.4705 L54.9588,75.8365 L54.9207,79.2509 L54.9701,82.6712 L54.5106,86.0572 L54.3188,89.4612 L54.3485,89.467 L53.7447,92.3444 L53.2764,95.2482 L52.7428,98.1393 L52.3338,101.0546 L51.5182,103.8909 " fill="none" style="stroke:#C7C7C7;stroke-width:3.0;"/><polygon fill="#C7C7C7" points="51.5771,34.312,51.6461,34.3243,51.0959,36.2271,50.9501,38.2019,50.6726,40.1532,49.9621,42.0275,49.8511,44.0084,49.8289,43.995,50.3143,42.9665,50.9115,42.0055,51.5863,41.0914,51.9934,40.0155,52.7756,39.1662,52.871,39.3242,53.6354,39.5713,54.6784,40.2796,55.7554,41.0442,56.6346,41.4814,57.6178,42.0908,57.6358,42.1047,56.4013,40.5285,55.2485,39.0158,54.0563,37.4724,52.9394,35.9875,51.5771,34.312" style="stroke:#C7C7C7;stroke-width:3.0;"/><!--MD5=[8396ea636a1e20c80934c8682785a6a0]
link gateway to externalSystem--><path d="M77.0742,124.8921 L77.0849,124.9849 L80.0418,125.0551 L83.0616,125.6692 L86.061,126.1062 L88.9929,125.9606 L92.0181,126.6215 L92.0161,126.587 L94.9957,126.6084 L97.9856,126.8036 L100.9827,127.1197 L103.9551,127.0193 L106.962,127.5022 " fill="none" style="stroke:#C7C7C7;stroke-width:3.0;"/><polygon fill="#C7C7C7" points="112.172,127.6098,112.2018,127.6732,110.3302,126.6479,108.633,125.9944,106.8791,125.2198,104.9383,124.0471,103.2562,123.4255,103.2375,123.4076,103.937,124.1434,104.7307,124.9696,105.5899,125.8586,106.2234,126.5311,107.1731,127.5069,107.3008,127.6401,106.2113,128.1387,105.4948,129.0261,104.8239,129.9609,103.8881,130.6198,103.0916,131.4238,103.1004,131.4448,104.9036,130.6512,106.7468,129.9531,108.5707,129.2089,110.4315,128.5526,112.172,127.6098" style="stroke:#C7C7C7;stroke-width:3.0;"/><!--MD5=[685b1053d1781d750fdf07f3a2134e97]
link externalSystem to gateway--><path d="M112.172,107.3902 L112.1757,107.4835 L109.176,107.3232 L106.1977,107.71 L103.2125,107.9187 L100.2043,107.5413 L97.2279,107.9751 L97.2246,107.9407 L94.221,108.0731 L91.2341,108.3788 L88.2587,108.8051 L85.2434,108.816 L82.284,109.4086 " fill="none" style="stroke:#C7C7C7;stroke-width:3.0;"/><polygon fill="#C7C7C7" points="77.0742,110.1079,77.0939,110.1751,78.9258,110.5288,80.8732,111.2766,82.7829,111.8961,84.5691,112.0934,86.5263,112.8751,86.5106,112.8545,85.5408,112.0756,84.6501,111.4005,83.8146,110.7976,82.7892,109.946,82.0298,109.4428,82.1765,109.5547,82.5492,108.416,83.3503,107.6041,84.2036,106.8322,84.7529,105.8282,85.4621,104.9462,85.474,104.9656,83.7789,105.9695,82.1381,107.0616,80.4711,108.1111,78.8541,109.2418,77.0742,110.1079" style="stroke:#C7C7C7;stroke-width:3.0;"/><!--MD5=[ed744fc6ff208b87d75b21e6b7d86e9a]
@startuml
skinparam monochrome reverse
        skinparam backgroundColor transparent
        skinparam handwritten true
        skinparam defaultFontSize 15
        skinparam arrowThickness 3
        hide circle
        hide members
        allowmixing

        class client
        class gateway
        cloud externalSystem

        client -d-> gateway
        gateway -u-> client
        gateway -r-> externalSystem
        externalSystem - -> gateway
@enduml

PlantUML version 1.2020.21beta3(Unknown compile time)
(GPL source distribution)
Java Runtime: Java(TM) SE Runtime Environment
JVM: Java HotSpot(TM) 64-Bit Server VM
Default Encoding: UTF-8
Language: en
Country: US
--></g></svg>