<?xml version="1.0" encoding="UTF-8" standalone="no"?><svg xmlns="http://www.w3.org/2000/svg" xmlns:xlink="http://www.w3.org/1999/xlink" contentScriptType="application/ecmascript" contentStyleType="text/css" height="159px" preserveAspectRatio="none" style="width:270px;height:159px;background:#00000000;" version="1.1" viewBox="0 0 270 159" width="270px" zoomAndPan="magnify"><defs><filter height="300%" id="f1lh3dxh5n16zd" width="300%" x="-1" y="-1"><feGaussianBlur result="blurOut" stdDeviation="2.0"/><feColorMatrix in="blurOut" result="blurOut2" type="matrix" values="0 0 0 0 0 0 0 0 0 0 0 0 0 0 0 0 0 0 .4 0"/><feOffset dx="4.0" dy="4.0" in="blurOut2" result="blurOut3"/><feBlend in="SourceGraphic" in2="blurOut3" mode="normal"/></filter></defs><g><!--MD5=[e3f72718913f1e037c5bc72e44de49f6]
class client--><polygon fill="#070707" filter="url(#f1lh3dxh5n16zd)" points="120.5,7,120.5,7.2102,130.5,6.5857,140.5,7.1933,150.5,7.3997,160.5,6.2866,170.5,7,170.4741,7,170.3578,12.4922,170.3722,17.9844,170.4773,23.4766,170.2695,28.9688,170.5,34.4609,170.5,35.0146,160.5,33.8307,150.5,34.2632,140.5,34.8929,130.5,34.3752,120.5,34.4609,120.5227,34.4609,120.4894,28.9688,120.5595,23.4766,120.5797,17.9844,120.6952,12.4922,120.5,7" style="stroke:#C7C7C7;stroke-width:1.5;"/><text fill="#FFFFFF" font-family="sans-serif" font-size="15" lengthAdjust="spacingAndGlyphs" textLength="44" x="123.5" y="25.9233">client</text><!--MD5=[712d1bd7bf057907b8a0976ad07de8af]
class repository--><polygon fill="#070707" filter="url(#f1lh3dxh5n16zd)" points="102.5,109.5,102.5,109.7102,112.0556,109.0857,121.6111,109.6933,131.1667,109.8997,140.7222,108.7866,150.2778,109.4223,159.8333,109.0735,169.3889,109.1165,178.9444,109.4318,188.5,109.5,188.2695,109.5,188.6845,114.9922,188.2899,120.4844,188.4341,125.9766,188.644,131.4688,188.5,136.9609,188.5,136.8752,178.9444,137.0292,169.3889,136.929,159.8333,137.1395,150.2778,137.2001,140.7222,137.5466,131.1667,137.632,121.6111,137.6402,112.0556,137.2156,102.5,136.9609,102.6545,136.9609,102.7341,131.4688,102.2596,125.9766,102.7262,120.4844,102.4012,114.9922,102.5,109.5" style="stroke:#C7C7C7;stroke-width:1.5;"/><text fill="#FFFFFF" font-family="sans-serif" font-size="15" lengthAdjust="spacingAndGlyphs" textLength="80" x="105.5" y="128.4233">repository</text><!--MD5=[7468467f3b6b392f1d176d828c753b77]
entity db--><path d="M224,110 L224,110 L224.0624,110.0695 L225.827,108.113 L227.9574,106.5639 L229.9686,104.8822 L231.5882,102.764 L233.75,101.25 L233.7456,101.2157 L235.6759,100.812 L237.6283,100.5809 L239.5961,100.47 L241.5109,99.9452 L243.5,100 L243.5,100 L243.5313,100.2441 L245.4144,99.9721 L247.3888,100.4128 L249.3744,100.9404 L251.2952,100.9622 L253.25,101.25 L253.2703,101.2726 L255.1905,102.9894 L257.203,104.8091 L259.171,106.5791 L261.2239,108.4437 L263,110 L263.5965,110 L263.6038,115.2922 L263.2263,120.5844 L263.4121,125.8766 L263.6242,131.1688 L263,136.4609 L263,136.4609 L262.7859,136.2224 L261.2514,138.4354 L259.012,139.8629 L257.3085,141.8875 L255.0531,143.2972 L253.25,145.2109 L253.2461,145.1807 L251.3419,145.7879 L249.3472,145.6895 L247.406,146.0074 L245.4691,146.3602 L243.5,146.4609 L243.5,146.4609 L243.5235,146.6444 L241.5498,146.2092 L239.6162,146.0876 L237.6176,145.4586 L235.7161,145.5863 L233.75,145.2109 L233.9127,145.3923 L231.932,143.608 L230.032,141.9137 L227.7566,139.8011 L225.7564,137.9952 L224,136.4609 L223.4476,136.4609 L223.9477,131.1688 L223.8253,125.8766 L224.6057,120.5844 L223.8447,115.2922 L224,110 " fill="#070707" filter="url(#f1lh3dxh5n16zd)" style="stroke:#FFFFFF;stroke-width:1.5;"/><path d="M224,110 L224,110 L224.0624,110.0695 L225.827,111.613 L227.9574,113.5639 L229.9686,115.3822 L231.5882,116.764 L233.75,118.75 L233.7456,118.7157 L235.6759,118.812 L237.6283,119.0809 L239.5961,119.47 L241.5109,119.4452 L243.5,120 L243.5,120 L243.5313,120.2441 L245.4144,119.4721 L247.3888,119.4128 L249.3744,119.4404 L251.2952,118.9622 L253.25,118.75 L253.2703,118.7726 L255.1905,116.9894 L257.203,115.3091 L259.171,113.5791 L261.2239,111.9437 L263,110 " fill="none" style="stroke:#FFFFFF;stroke-width:1.5;"/><text fill="#FFFFFF" font-family="sans-serif" font-size="15" lengthAdjust="spacingAndGlyphs" textLength="19" x="234" y="137.9233">db</text><!--MD5=[ec808b8bd01df32ea7fe61f4cb45c588]
entity dir--><polygon fill="#070707" filter="url(#f1lh3dxh5n16zd)" points="16,94,16,94.2102,25.2,93.5857,34.4,94.1933,43.6,94.3997,52.8,93.2866,62,94,61.9754,93.9918,63.2651,98.155,64.6787,102.3596,66.1784,106.5928,67.3814,110.7271,69,115,69,115.1845,68.6,114.7899,68.2,114.9341,67.8,115.144,67.4,114.9714,67,115,67.0227,115,66.9894,122.3844,67.0595,129.7688,67.0797,137.1531,67.1952,144.5375,67,151.9219,67,152.5929,56.8,152.6011,46.6,152.1765,36.4,152.3855,26.2,152.6241,16,151.9219,15.2788,151.9219,16.6785,142.2682,15.7035,132.6146,16.5338,122.9609,15.505,113.3073,15.9315,103.6536,16,94" style="stroke:#FFFFFF;stroke-width:1.5;"/><path d="M16,115 L16,115.2802 L26.6,114.4476 L37.2,115.2577 L47.8,115.5329 L58.4,114.0488 L69,115 " fill="#070707" style="stroke:#FFFFFF;stroke-width:1.5;"/><text fill="#FFFFFF" font-family="sans-serif" font-size="15" lengthAdjust="spacingAndGlyphs" textLength="21" x="26" y="135.9233">dir</text><!--MD5=[c37917b7f12db00a6e5be0bace7a735a]
link client to repository--><path d="M136.673,34.228 L136.765,34.2444 L135.9361,37.3182 L135.6463,40.488 L135.181,43.6265 L134.1383,46.6623 L133.8948,49.8404 L133.8604,49.8383 L133.4817,53.5391 L133.2769,57.2504 L133.1929,60.9689 L132.6925,64.6624 L132.7754,68.391 L133.0213,68.398 L132.6032,72.1807 L132.9033,75.9837 L133.2909,79.7892 L133.1688,83.5803 L133.3147,87.3789 L133.3448,87.3829 L133.7403,90.7619 L134.2727,94.1588 L134.7391,97.5471 L135.3315,100.9517 L135.513,104.303 " fill="none" style="stroke:#C7C7C7;stroke-width:3.0;"/><polygon fill="#C7C7C7" points="136.701,109.375,136.7698,109.3881,136.9336,107.4141,137.5008,105.517,137.9367,103.5948,137.9405,101.5904,138.5423,99.6998,138.5203,99.6861,137.8251,100.5863,137.2409,101.5552,136.7338,102.5721,135.9609,103.424,135.5603,104.5069,135.6576,104.6637,134.4882,103.7319,133.6028,103.258,132.752,102.84,131.6996,102.097,130.7533,101.5249,130.7714,101.5386,131.9343,103.0885,133.1798,104.7009,134.3854,106.2831,135.6671,107.9229,136.701,109.375" style="stroke:#C7C7C7;stroke-width:3.0;"/><!--MD5=[bc58df525ebf7046f28eda4e936ea7e2]
reverse link client to repository--><path d="M156.099,39.314 L156.1916,39.3266 L156.3793,42.6791 L157.1097,46.1056 L157.6634,49.5079 L157.636,52.831 L158.4129,56.2639 L158.3784,56.2628 L158.335,60.0571 L158.4656,63.8565 L158.7173,67.6595 L158.5519,71.4502 L158.9706,75.258 L159.2162,75.2739 L158.4514,78.9474 L158.4035,82.6673 L158.443,86.3928 L157.9737,90.0855 L157.772,93.7954 L157.8018,93.801 L157.1671,96.9087 L156.668,100.042 L156.1034,103.163 L155.6638,106.3076 L154.817,109.375 " fill="none" style="stroke:#C7C7C7;stroke-width:3.0;"/><polygon fill="#C7C7C7" points="154.846,34.228,154.915,34.2403,154.3642,36.1429,154.2177,38.1177,153.9396,40.0689,153.2284,41.9429,153.1167,43.9238,153.0945,43.9104,153.5802,42.8821,154.1778,41.9212,154.853,41.0074,155.2604,39.9317,156.0429,39.0826,156.1383,39.2406,156.9024,39.4881,157.9453,40.1967,159.0221,40.9616,159.9011,41.3991,160.8841,42.0088,160.9021,42.0228,159.6681,40.4461,158.5159,38.933,157.3242,37.3892,156.2079,35.9039,154.846,34.228" style="stroke:#C7C7C7;stroke-width:3.0;"/><!--MD5=[7efcd451f36b82b4150f9156cb6bfffb]
link repository to db--><path d="M188.758,132.986 L188.7594,133.0794 L191.769,132.7563 L194.7868,132.9808 L197.802,133.0269 L200.8083,132.4867 L203.8269,132.7582 L203.822,132.724 L206.8138,132.142 L209.8301,131.7323 L212.8635,131.4425 L215.8381,130.7397 L218.895,130.6153 " fill="none" style="stroke:#C7C7C7;stroke-width:3.0;"/><polygon fill="#C7C7C7" points="223.827,129.4981,223.8406,129.5668,221.8679,128.9799,219.975,128.7959,218.0562,128.4807,216.0518,127.7341,214.1658,127.5846,214.152,127.5627,215.0469,128.0679,216.0115,128.6836,217.0245,129.3761,217.8706,129.8039,218.9505,130.6024,219.1066,130.7009,218.1692,131.4473,217.6876,132.4811,217.2616,133.55,216.5121,134.4149,215.9327,135.3871,215.9463,135.4053,217.5052,134.2007,219.126,133.0792,220.7169,131.9176,222.3649,130.8324,223.827,129.4981" style="stroke:#C7C7C7;stroke-width:3.0;"/><!--MD5=[343b174a9458d8a1b2bfa1d0eb04d197]
link db to repository--><path d="M223.827,116.5019 L223.8439,116.5938 L220.8072,115.7702 L217.8698,115.4852 L214.9,115.0248 L211.8239,113.9877 L208.895,113.7489 L208.893,113.7144 L205.8975,113.3851 L202.9123,113.2296 L199.934,113.195 L196.9315,112.744 L193.963,112.8762 " fill="none" style="stroke:#C7C7C7;stroke-width:3.0;"/><polygon fill="#C7C7C7" points="188.758,113.014,188.7848,113.0787,190.5257,113.6388,192.4234,114.5784,194.2701,115.3944,195.9488,115.8039,197.86,116.776,197.8422,116.7573,196.9414,115.8942,196.1305,115.1259,195.3821,114.4235,194.4184,113.4941,193.7563,112.8826,193.8902,113.0096,194.3826,111.9172,195.2658,111.1957,196.1968,110.5194,196.8503,109.5799,197.6497,108.7788,197.6595,108.7993,195.8668,109.6162,194.1186,110.5266,192.349,111.3919,190.6203,112.3432,188.758,113.014" style="stroke:#C7C7C7;stroke-width:3.0;"/><!--MD5=[4a296f0de65aec050ed65c34026a34d1]
reverse link dir to repository--><path d="M72.0946,141.0645 L72.1162,141.1554 L74.7116,141.5167 L77.4336,142.4108 L80.1143,143.1314 L82.6597,143.2814 L85.3925,144.2213 L85.3916,144.1867 L88.0476,144.0942 L90.7076,144.1757 L93.3705,144.3782 L96.0235,144.1637 L98.6903,144.5333 L98.7363,144.775 L101.2975,143.7516 L103.993,143.4339 L106.7049,143.2023 L109.3214,142.4697 L111.9881,142.0006 L111.9995,142.0287 L114.6424,140.912 L117.337,139.9232 L120.0067,138.8727 L122.724,137.94 L125.286,136.6232 " fill="none" style="stroke:#C7C7C7;stroke-width:3.0;"/><polygon fill="#C7C7C7" points="67.0938,139.1413,67.1433,139.1908,68.389,140.4364,69.9251,141.9724,71.3667,143.4139,72.4972,144.5443,74.0583,146.1052,74.0346,146.0947,73.4688,145.0137,73.0224,143.9856,72.6589,142.9945,72.0095,141.8763,71.7606,140.936,71.8356,141.1047,72.7091,140.2845,73.8015,139.9567,74.9206,139.689,75.8844,139.0718,76.9298,138.6384,76.931,138.6611,74.9621,138.7283,72.9984,138.899,71.0323,139.0197,69.071,139.2357,67.0938,139.1413" style="stroke:#C7C7C7;stroke-width:3.0;"/><!--MD5=[4dc40072bc1eda82ab964013e05399d1]
link dir to repository--><path d="M67.0938,106.8587 L67.122,106.9477 L69.7205,105.8331 L72.4843,105.2404 L75.1943,104.4778 L77.7272,103.1561 L80.5052,102.6083 L80.5018,102.5739 L83.1685,102.1483 L85.8527,101.8959 L88.5491,101.764 L91.2035,101.2171 L93.9168,101.2514 L93.9448,101.4959 L96.5672,101.2804 L99.2714,101.7788 L101.9856,102.3642 L104.6417,102.4429 L107.3283,102.7881 L107.3378,102.8169 L110.0062,103.6607 L112.7179,104.6356 L115.4087,105.5472 L118.1393,106.5795 L120.74,107.2184 " fill="none" style="stroke:#C7C7C7;stroke-width:3.0;"/><polygon fill="#C7C7C7" points="125.286,109.3768,125.3392,109.4224,123.8982,107.7922,122.7689,106.4295,121.5381,104.9797,119.9736,103.2433,118.8711,101.9036,118.8467,101.8949,119.1168,102.9217,119.5099,103.9923,119.9885,105.0933,120.1724,106.0894,120.7691,107.2325,120.8311,107.4064,119.6329,107.4142,118.6155,107.9296,117.6201,108.507,116.4964,108.724,115.4402,109.1306,115.4408,109.1533,117.4091,109.1692,119.38,109.2886,121.3497,109.358,123.3217,109.5227,125.286,109.3768" style="stroke:#C7C7C7;stroke-width:3.0;"/><!--MD5=[956c1c52da7c4b896c79b402ba730ec9]
@startuml
skinparam monochrome reverse
        skinparam backgroundColor transparent
        skinparam handwritten true
        skinparam defaultFontSize 15
        skinparam arrowThickness 3
        hide circle
        hide members
        allowmixing

        class client
        class repository
        database db
        folder dir

        client -d-> repository
        repository -u-> client
        repository -r-> db
        repository -l-> dir
        db - -> repository
        dir - -> repository
@enduml

PlantUML version 1.2020.21beta3(Unknown compile time)
(GPL source distribution)
Java Runtime: Java(TM) SE Runtime Environment
JVM: Java HotSpot(TM) 64-Bit Server VM
Default Encoding: UTF-8
Language: en
Country: US
--></g></svg>