<?xml version="1.0" encoding="UTF-8" standalone="no"?><svg xmlns="http://www.w3.org/2000/svg" xmlns:xlink="http://www.w3.org/1999/xlink" contentScriptType="application/ecmascript" contentStyleType="text/css" height="497px" preserveAspectRatio="none" style="width:365px;height:497px;background:#00000000;" version="1.1" viewBox="0 0 365 497" width="365px" zoomAndPan="magnify"><defs><filter height="300%" id="f1rtugrp8uiep" width="300%" x="-1" y="-1"><feGaussianBlur result="blurOut" stdDeviation="2.0"/><feColorMatrix in="blurOut" result="blurOut2" type="matrix" values="0 0 0 0 0 0 0 0 0 0 0 0 0 0 0 0 0 0 .4 0"/><feOffset dx="4.0" dy="4.0" in="blurOut2" result="blurOut3"/><feBlend in="SourceGraphic" in2="blurOut3" mode="normal"/></filter></defs><g><!--MD5=[9d1b795d975ab05f601abc37ebe56014]
cluster Aggregate--><path d="M35.255,31.3756 L35.255,31.3756 L35.3213,31.4414 L37.688,28.6586 L40.4437,26.2612 L43.0726,23.7384 L45.2851,20.8027 L48.0741,18.4385 L48.0595,18.4072 L51.2947,19.8072 L54.6035,21.3651 L57.9635,23.0326 L61.1471,24.3221 L64.5777,26.1411 L64.5777,26.1411 L64.7149,26.3453 L67.6193,23.761 L70.9241,21.7731 L74.2778,19.858 L77.3473,17.5195 L80.5662,15.4036 L80.5854,15.4271 L83.535,17.836 L86.5721,20.3516 L89.567,22.8157 L92.6425,25.378 L95.4552,27.6201 L95.4552,27.6201 L95.6694,27.8276 L98.2524,25.1672 L100.6973,22.3729 L103.3444,19.7745 L106.001,17.1853 L108.3572,14.3051 L108.2008,14.0254 L111.7409,16.3782 L114.7658,17.8098 L118.1824,19.9417 L121.1956,21.3524 L124.5395,23.3542 L124.5395,23.3542 L124.5186,23.3321 L127.5847,20.9331 L130.1627,18.0168 L133.0287,15.4057 L135.919,12.8202 L138.6347,10.0499 L138.7363,10.2046 L141.8739,12.1765 L145.1851,14.4127 L148.2156,16.2214 L151.6648,18.6677 L154.8356,20.6901 L154.8356,20.6901 L154.9811,20.8855 L157.3893,19.0352 L159.8697,17.282 L162.0145,15.0779 L164.4053,13.2043 L167.0141,11.6235 L166.8617,11.3932 L169.5316,13.2781 L172.0297,14.9034 L174.7771,16.9051 L177.0989,18.2643 L179.6737,20.0054 L179.6737,20.0054 L179.6027,19.8704 L182.8985,18.4239 L185.8909,16.4005 L189.099,14.7873 L192.5183,13.5754 L195.5616,11.6489 L195.6898,11.794 L198.469,14.2699 L200.8497,16.2943 L203.7296,18.8841 L206.5008,21.3508 L209.0184,23.5304 L209.0184,23.5304 L208.8839,23.3693 L210.7765,22.0067 L212.6251,20.5914 L214.5603,19.2798 L216.1589,17.5651 L217.9455,16.0755 L217.9975,16.2744 L219.6972,15.3625 L221.4974,14.8346 L223.4443,14.8674 L225.121,13.8678 L227.0158,13.7012 L227.1026,13.9101 L228.7313,14.4841 L230.3305,14.9875 L231.9961,15.6504 L233.8149,16.6821 L235.4169,17.1919 L235.307,17.1169 L237.018,19.3683 L237.9817,21.1096 L239.7951,23.4308 L241.1301,25.4255 L242.3362,27.3322 L242.3362,27.3322 L242.3992,27.421 L244.8423,25.5786 L247.511,24.054 L249.9759,22.2423 L252.3555,20.3105 L254.8059,18.4783 L254.863,18.583 L257.4639,19.8914 L260.3296,21.6857 L262.8958,22.9304 L265.5851,24.4012 L268.2341,25.7977 L268.2341,25.7977 L268.0348,25.615 L269.7486,23.8791 L271.7026,22.3632 L273.3168,20.536 L274.8093,18.5971 L276.4707,16.8131 L276.4365,16.674 L278.2614,16.2721 L280.0258,15.6239 L281.9567,15.6525 L283.8052,15.3462 L285.5406,14.5806 L285.6394,14.7926 L287.3895,15.661 L288.9519,16.1264 L290.7125,17.0171 L292.3418,17.6262 L294.133,18.5829 L294.2365,18.6553 L295.5837,20.5897 L297.0557,22.6116 L298.1318,24.3562 L299.5272,26.3244 L300.937,28.3026 L300.937,28.3026 L301.0234,28.4798 L304.5892,26.8003 L307.9203,24.6401 L311.5241,23.0385 L315.1327,21.4466 L318.6452,19.6581 L318.4517,19.4677 L321.5219,22.5769 L324.2565,25.3558 L326.9077,28.0525 L329.7495,30.9369 L332.4693,33.7011 L332.4693,33.7011 L332.7205,33.9054 L333.0393,34.4469 L333.9338,35.4565 L334.6016,36.2818 L335.221,37.0677 L335.859,37.8688 L335.859,37.8688 L335.9124,37.9015 L337.6187,40.7028 L339.0558,43.3395 L340.8572,46.199 L342.5509,48.9926 L344.4426,51.9073 L344.4642,51.9257 L342.3428,54.4416 L340.2382,56.9718 L337.9552,59.3506 L335.9013,61.9238 L333.7945,64.4522 L333.7945,64.4522 L333.7608,64.4108 L335.8257,66.1715 L337.653,67.64 L339.2666,68.8458 L341.2517,70.5084 L343.1416,72.0538 L342.9031,71.9592 L343.9356,73.8016 L344.7428,75.5545 L345.3914,77.2445 L345.6614,78.7842 L346.5163,80.5561 L346.7159,80.6081 L345.7306,82.2612 L345.6699,84.1554 L344.9888,85.8879 L344.6929,87.7207 L344.185,89.4983 L344.2655,89.5685 L342.789,91.4205 L340.8352,92.8568 L339.6816,94.9901 L338.0277,96.6876 L336.4138,98.4199 L336.4138,98.4199 L336.5403,98.5143 L338.9593,101.6737 L340.9741,104.5315 L343.3137,107.6317 L345.6065,110.697 L347.8097,113.6953 L347.8831,113.7432 L345.7259,116.8869 L343.9073,120.2515 L341.3324,123.1225 L339.6862,126.5998 L337.3924,129.6542 L337.3924,129.6542 L337.1761,129.4806 L339.5533,132.4303 L342.1026,135.518 L344.4467,138.4411 L346.6142,141.2225 L349.1332,144.2859 L349.2783,144.3988 L346.8675,147.2769 L344.7803,150.4069 L342.4556,153.3519 L339.7604,156.0089 L337.6138,159.0925 L337.6138,159.0925 L337.4749,158.983 L339.7497,161.8233 L342.0998,164.7229 L344.2973,167.5023 L346.4427,170.2406 L348.5186,172.924 L348.3832,172.8549 L347.1684,176.1898 L345.5653,179.3266 L343.6937,182.3262 L342.0157,185.4246 L340.5083,188.6102 L340.5083,188.6102 L340.3624,188.5075 L342.3738,191.3171 L344.4452,194.1689 L346.3139,196.878 L348.1304,199.5504 L350.2257,202.419 L350.4136,202.5269 L348.3671,205.246 L347.0558,208.3873 L345.3451,211.2991 L343.6419,214.2154 L341.8168,217.0616 L341.8168,217.0616 L342.0553,217.2561 L344.0608,219.8472 L346.3705,222.6864 L348.9814,225.7713 L350.9257,228.3126 L353.4599,231.3349 L353.3728,231.2781 L351.4917,234.4494 L349.463,237.5246 L347.2927,240.5074 L345.3989,243.6705 L343.4037,246.7674 L343.4037,246.7674 L343.6878,246.9371 L345.6874,250.3244 L347.2487,253.45 L349.5424,257.013 L351.3526,260.2873 L353.5849,263.8136 L353.5761,263.8059 L351.0685,266.8884 L348.4965,269.9145 L345.5193,272.5861 L343.2612,275.8868 L340.5128,278.7586 L340.5128,278.7586 L340.5158,278.7609 L342.3674,281.3943 L344.4507,284.1987 L346.7891,287.1914 L348.8149,289.9533 L350.7787,292.6696 L350.7726,292.6655 L348.5974,295.3691 L347.1539,298.5663 L344.8629,301.1918 L342.8496,304.0046 L341.1106,307.0024 L341.1106,307.0024 L341.0853,306.9863 L343.4499,310.4713 L345.5778,313.8056 L347.4784,316.9953 L349.5268,320.279 L351.7017,323.6432 L351.7627,323.6876 L349.4474,326.8818 L346.8767,329.8902 L344.8868,333.3211 L342.6176,336.5489 L340.0955,339.5927 L340.0955,339.5927 L340.0139,339.5424 L341.9369,342.7464 L344.3585,346.2575 L346.1149,349.3589 L348.1107,352.6078 L350.1146,355.8616 L350.2188,355.9439 L347.5208,358.6824 L345.5622,362.0049 L343.0033,364.8533 L340.8734,368.0405 L338.2715,370.8549 L338.2715,370.8549 L338.1914,370.8021 L340.1943,373.6404 L341.6488,376.1171 L343.6755,378.9712 L345.4963,381.6895 L347.1266,384.2821 L347.0075,384.1984 L345.4094,387.007 L343.2203,389.4004 L341.4077,392.0584 L339.9779,394.9852 L337.8803,397.443 L337.8803,397.443 L338.1159,397.6354 L340.4055,400.4553 L342.4152,403.0467 L345.0011,406.1085 L347.0358,408.7203 L349.5278,411.7055 L349.549,411.7203 L347.4184,414.7244 L345.2144,417.6772 L343.4255,420.92 L341.2537,423.8953 L338.9833,426.8018 L338.9833,426.8018 L338.8545,426.7407 L340.3324,429.3022 L341.2954,431.6196 L342.1617,433.8912 L343.44,436.358 L344.6713,438.8026 L344.4384,438.7864 L344.466,440.871 L344.1051,442.9286 L343.9743,445.0021 L344.1279,447.0954 L343.9531,449.1659 L343.9115,449.1323 L342.6165,450.7808 L341.2709,452.3884 L340.062,454.1063 L338.4958,455.5359 L337.3715,457.322 L337.4008,457.3869 L334.855,458.0969 L332.6648,459.5935 L330.3387,460.7895 L327.9453,461.8367 L325.4693,462.7011 L325.4693,462.7011 L325.525,462.8517 L325.7363,462.869 L325.9603,462.9208 L326.0827,462.6978 L326.4876,463.2385 L326.6561,463.1402 L326.6561,463.1402 L326.766,463.2371 L324.3445,465.6586 L322.1332,468.2655 L319.8051,470.7694 L317.6867,473.4582 L315.3536,475.9577 L315.4573,476.2419 L312.0888,474.6391 L309.003,473.8118 L305.7071,472.4079 L302.4519,471.116 L299.2987,470.1035 L299.2987,470.1035 L299.2131,469.9316 L295.897,471.4774 L292.6634,473.1888 L289.484,475.009 L286.2569,476.7336 L282.9289,478.2554 L283.0871,478.4567 L280.1681,476.1427 L276.9814,473.4878 L274.4706,471.6933 L271.5581,469.3874 L268.5485,466.9581 L268.5485,466.9581 L268.7227,467.1236 L266.4439,469.5093 L263.7908,471.5391 L261.6474,474.0534 L259.5595,476.6205 L257.185,478.9152 L257.1175,478.7121 L254.0397,477.8319 L250.9325,476.8636 L247.8379,475.9329 L244.6677,474.7748 L241.5304,473.7155 L241.5304,473.7155 L241.7249,473.9834 L238.7182,475.9835 L235.7581,478.0476 L232.6306,479.8813 L229.9404,482.3173 L226.9324,484.3155 L226.7685,484.1197 L224.2531,482.1033 L221.4017,479.6856 L218.7184,477.4687 L215.8416,475.0205 L213.1001,472.734 L213.1001,472.734 L213.0435,472.6677 L210.0429,474.9085 L207.3512,477.5116 L204.3662,479.7708 L201.655,482.351 L198.8825,484.8593 L198.9918,485.0203 L195.8304,482.8196 L192.5855,480.4956 L189.6674,478.6532 L186.5302,476.4881 L183.4217,474.3652 L183.4217,474.3652 L183.5625,474.5614 L180.4439,476.8115 L177.1976,478.8836 L174.0027,481.0274 L170.8693,483.2569 L167.8007,485.5766 L167.799,485.5743 L164.877,483.5403 L161.424,480.7832 L158.4584,478.6899 L155.472,476.5682 L152.3021,474.1966 L152.3021,474.1966 L152.4893,474.4625 L149.5009,476.2847 L146.5406,478.1468 L143.547,479.9617 L140.772,482.087 L138.0251,484.2521 L137.9605,484.1775 L135.4855,482.078 L132.8556,479.7997 L130.1245,477.4049 L127.4322,475.0546 L124.8323,472.8111 L124.8323,472.8111 L124.6912,472.5241 L121.3903,474.5673 L117.9831,476.3944 L114.5643,478.1979 L110.9823,479.6696 L107.4957,481.3352 L107.518,481.3629 L104.4207,478.8411 L101.5372,476.5859 L98.3235,473.919 L95.5839,471.8431 L92.4266,469.2464 L92.4266,469.2464 L92.35,469.1341 L89.1387,471.2029 L86.1807,473.6432 L83.0793,475.8733 L79.8204,477.8723 L76.651,480.0025 L76.6167,479.961 L73.7533,477.6224 L70.7592,475.1258 L67.7969,472.6675 L64.9032,470.2923 L61.9391,467.8319 L61.9391,467.8319 L61.8723,467.7003 L59.7532,469.1361 L57.5488,470.4039 L55.075,471.1412 L52.8346,472.3383 L50.6175,473.5809 L50.6112,473.3728 L48.4733,473.622 L46.3217,473.411 L44.183,473.6334 L42.0244,473.1909 L39.8811,473.2601 L39.7907,473.1287 L38.1909,472.1553 L36.2946,470.7509 L34.6534,469.7173 L32.8916,468.5084 L31.0563,467.1925 L31.2305,467.2772 L29.7451,464.8 L28.8566,462.613 L27.9179,460.4016 L26.3696,457.8938 L25.4693,455.7011 L25.4693,455.7011 L25.6893,455.744 L25.5134,456.6585 L25.9221,457.6869 L26.3308,458.7153 L25.9633,459.5924 L26.4305,460.6323 L26.4305,460.6323 L26.6544,460.8623 L24.462,458.715 L22.4409,456.7439 L20.8244,455.1883 L18.4402,452.844 L16.7091,451.1708 L16.967,451.248 L16.0137,449.3686 L15.7835,447.7057 L15.4462,446.0108 L14.5476,444.1477 L14.0862,442.4157 L13.9179,442.3278 L14.7924,440.7037 L15.7209,439.1078 L16.7627,437.5709 L17.2805,435.7607 L18.3525,434.2397 L18.4836,434.4254 L20.6864,432.8999 L22.5511,430.8951 L24.8836,429.5534 L26.9908,427.8924 L29.2986,426.5157 L29.2986,426.5157 L29.3576,426.5644 L26.616,423.3634 L24.4672,420.6524 L22.1047,417.7647 L19.5262,414.6985 L17.104,411.7615 L17.1593,411.8032 L19.4148,408.7092 L21.8032,405.7156 L24.276,402.7856 L26.5605,399.7135 L28.6328,396.4813 L28.6328,396.4813 L28.7293,396.5526 L26.6636,393.8028 L24.7469,391.1629 L22.7279,388.4476 L20.7556,385.7667 L18.7002,383.0245 L18.864,383.1452 L20.4223,380.1384 L22.8224,377.7516 L24.8325,375.0776 L26.3901,372.0703 L28.6188,369.5574 L28.6188,369.5574 L28.8093,369.7632 L25.8226,366.977 L22.9047,364.2653 L19.9136,361.4743 L17.1713,358.9524 L14.434,356.4358 L14.6767,356.5699 L16.0746,352.927 L18.3837,349.7875 L19.9514,346.2384 L22.032,342.9726 L23.7779,339.522 L23.7779,339.522 L23.6398,339.3521 L21.7737,337.8663 L20.0912,336.6064 L18.0326,334.8837 L15.9693,333.1551 L14.0858,331.6479 L14.1812,331.6775 L13.7558,329.9006 L13.0453,328.0355 L12.6587,326.2706 L12.0446,324.4354 L11.269,322.5501 L11.3414,322.5814 L11.9781,320.7679 L12.6776,318.9815 L13.4057,317.2076 L14.4302,315.562 L15.0789,313.7536 L15.0878,313.7667 L17.2714,312.5861 L19.0691,310.8415 L21.1546,309.5176 L23.0522,307.919 L25.2667,306.7836 L25.2667,306.7836 L25.3844,306.88 L22.789,303.8485 L20.5187,301.0833 L18.4079,298.4487 L16.1395,295.685 L14.007,293.0327 L14.0982,293.1006 L15.9861,290.0746 L18.5124,287.524 L20.3036,284.426 L22.5664,281.6792 L24.6199,278.7766 L24.6199,278.7766 L24.7913,278.9194 L22.1206,275.8144 L19.8546,273.0468 L17.4553,270.168 L15.1945,267.4047 L12.6142,264.375 L12.3395,264.2017 L14.5489,261.1618 L16.6421,258.0486 L18.8556,255.0113 L20.4211,251.5651 L22.6208,248.5191 L22.6208,248.5191 L22.6616,248.5583 L21.0015,246.8262 L19.419,245.1686 L17.2887,242.985 L15.6682,241.2909 L14.1329,239.6787 L13.8691,239.6006 L13.8086,238.0512 L12.9858,236.2761 L12.7036,234.6611 L11.8718,232.8834 L11.6484,231.2857 L11.4666,231.1965 L12.4687,229.7629 L12.9107,228.0546 L13.6768,226.5052 L14.9698,225.2144 L15.4551,223.5272 L15.4764,223.5591 L17.6617,222.3337 L19.7166,220.913 L21.8609,219.6261 L23.8167,218.057 L25.8409,216.5903 L25.8409,216.5903 L25.7793,216.4907 L23.5864,215.0256 L21.8262,214.261 L19.4768,212.5427 L17.4032,211.2707 L15.4254,210.1539 L15.1567,210.0156 L14.7463,208.6102 L13.7065,206.8809 L12.7262,205.1823 L12.0459,203.638 L11.2472,202.0328 L11.2722,202.0392 L11.4573,200.2085 L12.4079,198.5755 L12.6073,196.7485 L12.887,194.9422 L13.5215,193.2275 L13.4656,193.1687 L15.5203,191.7513 L16.8912,189.6138 L18.9467,188.1973 L20.6492,186.409 L22.4635,184.7385 L22.4635,184.7385 L22.2414,184.6069 L20.6679,181.6262 L18.9693,178.5714 L17.0061,175.3597 L15.1125,172.1893 L13.1068,168.9524 L12.8777,168.7123 L15.8134,166.4726 L18.2507,163.7104 L21.1941,161.4788 L23.8539,158.9498 L26.3851,156.2861 L26.3851,156.2861 L26.1953,156.138 L24.0388,153.3062 L21.9042,150.4915 L19.5152,147.4783 L17.3139,144.6116 L14.9237,141.5975 L15.144,141.7739 L17.2534,138.6893 L19.57,135.7707 L22.1164,133.0361 L24.1619,129.9003 L26.57,127.055 L26.57,127.055 L26.5311,126.9979 L24.6097,125.7512 L22.4845,124.2056 L20.6347,123.0641 L18.4078,121.3692 L16.5613,120.2325 L16.4338,120.1765 L15.55,118.4522 L15.1148,116.9248 L14.4191,115.2831 L13.7654,113.6598 L12.9313,111.9573 L13.1397,112.0173 L13.1823,110.1279 L13.9879,108.4581 L14.2493,106.6316 L14.6466,104.8442 L15.4588,103.1763 L15.3059,103.0212 L16.931,101.2844 L18.6791,99.6725 L20.7145,98.3521 L22.3746,96.6508 L23.9229,94.8361 L23.9229,94.8361 L24.1081,94.9151 L22.2121,91.3629 L21.0844,88.1385 L19.3277,84.6457 L17.9606,81.3191 L16.768,78.067 L16.7562,78.0541 L19.3891,75.5292 L22.0128,72.9943 L24.8157,70.6572 L27.3862,68.0636 L30.2832,65.8305 L30.2832,65.8305 L30.2196,65.7752 L28.4181,63.7159 L26.7021,61.7308 L24.9073,59.6773 L23.045,57.5651 L21.5317,55.7561 L21.3748,55.715 L21.2316,53.7792 L20.1487,51.5975 L20.2456,49.7245 L19.7202,47.6887 L18.866,45.5669 L18.8337,45.5551 L19.3329,43.5074 L20.2119,41.5982 L20.8479,39.6004 L21.5615,37.6309 L22.4554,35.7272 L22.4918,35.7675 L24.5956,34.0744 L26.4784,32.1361 L28.2736,30.1006 L30.5494,28.5983 L32.4693,26.7011 L32.4693,26.7011 L32.3119,26.6073 L32.9382,27.5834 L33.5024,28.5225 L34.0608,29.4582 L34.4914,30.3177 L35.255,31.3756 " fill="#00000000" filter="url(#f1rtugrp8uiep)" style="stroke:#FFFFFF;stroke-width:1.5;"/><text fill="#FFFFFF" font-family="sans-serif" font-size="15" font-weight="bold" lengthAdjust="spacingAndGlyphs" textLength="92" x="132.9693" y="45.6244">Aggregate</text><!--MD5=[ac6161e8f058696c1bd702bd1e6929b7]
class Voertuig--><polygon fill="#070707" filter="url(#f1rtugrp8uiep)" points="33.9693,54.7011,33.9693,54.9113,44.2,54.2868,54.4308,54.8944,64.6616,55.1008,74.8923,53.9877,85.1231,54.6234,95.3539,54.2746,105.5846,54.3176,115.8154,54.6329,126.0462,54.0097,136.2769,55.2547,146.5077,54.0708,156.7385,54.5033,166.9693,54.7011,167.4012,54.7011,166.8835,64.2742,167.0375,73.8474,166.9373,83.4206,167.1478,92.9937,167.2084,102.5669,167.5549,112.14,167.6403,121.7132,167.6485,131.2863,167.2239,140.8595,167.4328,150.4326,166.9693,160.0058,166.9693,160.708,156.7385,159.2846,146.5077,160.6843,136.2769,159.7093,126.0462,160.5396,115.8154,159.5108,105.5846,159.9373,95.3539,160.7474,85.1231,159.957,74.8923,160.1111,64.6616,160.3444,54.4308,160.422,44.2,160.0019,33.9693,160.0058,34.2565,160.0058,33.3968,150.4326,34.2536,140.8595,34.5174,131.2863,34.4138,121.7132,34.5823,112.14,33.4862,102.5669,33.3171,92.9937,33.3479,83.4206,33.9104,73.8474,33.7727,64.2742,33.9693,54.7011" style="stroke:#C7C7C7;stroke-width:1.5;"/><text fill="#FFFFFF" font-family="sans-serif" font-size="15" font-style="italic" lengthAdjust="spacingAndGlyphs" textLength="131" x="34.9693" y="73.6244">«AggregateRoot»</text><text fill="#FFFFFF" font-family="sans-serif" font-size="15" lengthAdjust="spacingAndGlyphs" textLength="65" x="67.9693" y="91.0854">Voertuig</text><path d="M34.9693,99.623 L34.9693,99.9032 L45.0462,99.0705 L55.1231,99.8807 L65.2,100.1559 L75.2769,98.6718 L85.3539,99.5194 L95.4308,99.0543 L105.5077,99.1116 L115.5846,99.5321 L125.6616,98.7011 L135.7385,100.3612 L145.8154,98.7826 L155.8923,99.3593 L165.9693,99.623 " fill="#070707" style="stroke:#C7C7C7;stroke-width:1.5;"/><text fill="#FFFFFF" font-family="sans-serif" font-size="15" lengthAdjust="spacingAndGlyphs" textLength="27" x="39.9693" y="117.5463">VIN</text><text fill="#FFFFFF" font-family="sans-serif" font-size="15" lengthAdjust="spacingAndGlyphs" textLength="39" x="39.9693" y="135.0072">merk</text><text fill="#FFFFFF" font-family="sans-serif" font-size="15" lengthAdjust="spacingAndGlyphs" textLength="46" x="39.9693" y="152.4682">model</text><!--MD5=[05f1a7330b1ceb1ed664acf8e30033c9]
class Motor--><polygon fill="#070707" filter="url(#f1rtugrp8uiep)" points="202.4693,63.2011,202.4693,63.4113,212.6359,62.7868,222.8026,63.3944,232.9693,63.6008,243.1359,62.4877,253.3026,63.1234,263.4693,62.7746,273.6359,62.8176,283.8026,63.1329,293.9693,62.5097,304.1359,63.7547,314.3026,62.5708,324.4693,63.2011,324.2715,63.2011,324.9012,72.9615,324.3835,82.7219,324.5375,92.4823,324.4373,102.2428,324.6478,112.0032,324.7084,121.7636,325.0549,131.524,325.1403,141.2844,324.4693,151.0448,324.4693,151.7241,314.3026,151.2995,304.1359,151.5084,293.9693,151.7471,283.8026,150.3237,273.6359,151.7234,263.4693,150.7483,253.3026,151.5787,243.1359,150.5498,232.9693,150.9763,222.8026,151.7864,212.6359,150.9961,202.4693,151.0448,202.5746,151.0448,202.8079,141.2844,202.8855,131.524,202.4653,121.7636,202.7565,112.0032,201.8968,102.2428,202.7536,92.4823,203.0174,82.7219,202.9138,72.9615,202.4693,63.2011" style="stroke:#C7C7C7;stroke-width:1.5;"/><text fill="#FFFFFF" font-family="sans-serif" font-size="15" font-style="italic" lengthAdjust="spacingAndGlyphs" textLength="72" x="227.4693" y="82.1244">«Entiteit»</text><text fill="#FFFFFF" font-family="sans-serif" font-size="15" lengthAdjust="spacingAndGlyphs" textLength="46" x="240.4693" y="99.5854">Motor</text><path d="M203.4693,108.123 L203.4693,108.4032 L213.4693,107.5705 L223.4693,108.3807 L233.4693,108.6559 L243.4693,107.1718 L253.4693,108.0194 L263.4693,107.5543 L273.4693,107.6116 L283.4693,108.0321 L293.4693,107.2011 L303.4693,108.8612 L313.4693,107.2826 L323.4693,108.123 " fill="#070707" style="stroke:#C7C7C7;stroke-width:1.5;"/><text fill="#FFFFFF" font-family="sans-serif" font-size="15" lengthAdjust="spacingAndGlyphs" textLength="110" x="208.4693" y="126.0463">cilinderinhoud</text><text fill="#FFFFFF" font-family="sans-serif" font-size="15" lengthAdjust="spacingAndGlyphs" textLength="19" x="208.4693" y="143.5072">pk</text><!--MD5=[790699f2c9557b0d50b9155c7415375a]
class Nummerplaat--><polygon fill="#070707" filter="url(#f1rtugrp8uiep)" points="38.9693,219.7011,38.9693,219.9113,49.0602,219.2868,59.1511,219.8944,69.242,220.1008,79.3329,218.9877,89.4238,219.6234,99.5147,219.2746,109.6056,219.3176,119.6965,219.6329,129.7874,219.0097,139.8783,220.2547,149.9693,219.7011,149.339,219.7011,149.7715,229.7558,150.4012,239.8105,149.8835,249.8652,150.0375,259.9198,149.9373,269.9745,150.1478,280.0292,149.9693,290.0839,149.9693,290.323,139.8783,290.6696,129.7874,290.755,119.6965,290.7632,109.6056,290.3385,99.5147,290.5475,89.4238,290.7861,79.3329,289.3627,69.242,290.7624,59.1511,289.7874,49.0602,290.6177,38.9693,290.0839,38.4742,290.0839,38.9008,280.0292,39.7109,269.9745,38.9205,259.9198,39.0746,249.8652,39.3079,239.8105,39.3855,229.7558,38.9693,219.7011" style="stroke:#C7C7C7;stroke-width:1.5;"/><text fill="#FFFFFF" font-family="sans-serif" font-size="15" font-style="italic" lengthAdjust="spacingAndGlyphs" textLength="109" x="39.9693" y="238.6244">«ValueObject»</text><text fill="#FFFFFF" font-family="sans-serif" font-size="15" lengthAdjust="spacingAndGlyphs" textLength="105" x="41.9693" y="256.0854">Nummerplaat</text><path d="M39.9693,264.623 L39.9693,264.9032 L49.8783,264.0705 L59.7874,264.8807 L69.6965,265.1559 L79.6056,263.6718 L89.5147,264.5194 L99.4238,264.0543 L109.3329,264.1116 L119.242,264.5321 L129.1511,263.7011 L139.0602,265.3612 L148.9693,264.623 " fill="#070707" style="stroke:#C7C7C7;stroke-width:1.5;"/><text fill="#FFFFFF" font-family="sans-serif" font-size="15" lengthAdjust="spacingAndGlyphs" textLength="55" x="44.9693" y="282.5463">waarde</text><!--MD5=[ec52bb6115b2bf293dd8316a5c14ddbf]
class Wiel--><polygon fill="#070707" filter="url(#f1rtugrp8uiep)" points="185.4693,219.7011,185.4693,219.9113,196.0407,219.2868,206.6121,219.8944,217.1835,220.1008,227.755,218.9877,238.3264,219.6234,248.8978,219.2746,259.4693,219.7011,259.0858,219.7011,259.4011,229.7558,258.7779,239.8105,260.0229,249.8652,258.839,259.9198,259.2715,269.9745,259.9012,280.0292,259.4693,290.0839,259.4693,289.9981,248.8978,290.1521,238.3264,290.052,227.755,290.2624,217.1835,290.323,206.6121,290.6696,196.0407,290.755,185.4693,290.0839,186.1485,290.0839,185.7239,280.0292,185.9328,269.9745,186.1715,259.9198,184.7481,249.8652,186.1478,239.8105,185.1727,229.7558,185.4693,219.7011" style="stroke:#C7C7C7;stroke-width:1.5;"/><text fill="#FFFFFF" font-family="sans-serif" font-size="15" font-style="italic" lengthAdjust="spacingAndGlyphs" textLength="72" x="186.4693" y="238.6244">«Entiteit»</text><text fill="#FFFFFF" font-family="sans-serif" font-size="15" lengthAdjust="spacingAndGlyphs" textLength="34" x="205.4693" y="256.0854">Wiel</text><path d="M186.4693,264.623 L186.4693,264.9032 L196.755,264.0705 L207.0407,264.8807 L217.3264,265.1559 L227.6121,263.6718 L237.8978,264.5194 L248.1835,264.0543 L258.4693,264.623 " fill="#070707" style="stroke:#C7C7C7;stroke-width:1.5;"/><text fill="#FFFFFF" font-family="sans-serif" font-size="15" lengthAdjust="spacingAndGlyphs" textLength="39" x="191.4693" y="282.5463">merk</text><!--MD5=[881e5e9c87319b4b9056eacc15e744ad]
class WielGrootte--><polygon fill="#070707" filter="url(#f1rtugrp8uiep)" points="138.4693,349.7011,138.4693,349.9113,148.3516,349.2868,158.234,349.8944,168.1163,350.1008,177.9987,348.9877,187.881,349.6234,197.7634,349.2746,207.6457,349.3176,217.5281,349.6329,227.4104,349.0097,237.2928,350.2547,247.1751,349.0708,257.0575,349.5033,266.9398,350.133,276.8222,349.6153,286.7045,349.7693,296.5869,349.6691,306.4693,349.7011,306.6478,349.7011,306.7084,359.2742,307.0549,368.8474,307.1403,378.4206,307.1485,387.9937,306.7239,397.5669,306.9328,407.14,307.1715,416.7132,305.7481,426.2863,307.1478,435.8595,306.1727,445.4326,306.4693,455.0058,306.4693,455.5396,296.5869,454.5108,286.7045,454.9373,276.8222,455.7474,266.9398,454.957,257.0575,455.1111,247.1751,455.3444,237.2928,455.422,227.4104,455.0019,217.5281,455.293,207.6457,454.4334,197.7634,455.2902,187.881,455.554,177.9987,455.4503,168.1163,455.6188,158.234,454.5227,148.3516,454.3536,138.4693,455.0058,137.8479,455.0058,138.4104,445.4326,138.2727,435.8595,139.1507,426.2863,138.2946,416.7132,138.1262,407.14,138.6975,397.5669,137.8024,387.9937,137.9501,378.4206,139.1182,368.8474,138.9049,359.2742,138.4693,349.7011" style="stroke:#C7C7C7;stroke-width:1.5;"/><text fill="#FFFFFF" font-family="sans-serif" font-size="15" font-style="italic" lengthAdjust="spacingAndGlyphs" textLength="109" x="167.9693" y="368.6244">«ValueObject»</text><text fill="#FFFFFF" font-family="sans-serif" font-size="15" lengthAdjust="spacingAndGlyphs" textLength="93" x="175.9693" y="386.0854">WielGrootte</text><path d="M139.4693,394.623 L139.4693,394.9032 L149.234,394.0705 L158.9987,394.8807 L168.7634,395.1559 L178.5281,393.6718 L188.2928,394.5194 L198.0575,394.0543 L207.8222,394.1116 L217.5869,394.5321 L227.3516,393.7011 L237.1163,395.3612 L246.881,393.7826 L256.6457,394.3593 L266.4104,395.1989 L276.1751,394.5086 L285.9398,394.714 L295.7045,394.5804 L305.4693,394.623 " fill="#070707" style="stroke:#C7C7C7;stroke-width:1.5;"/><text fill="#FFFFFF" font-family="sans-serif" font-size="15" lengthAdjust="spacingAndGlyphs" textLength="69" x="144.4693" y="412.5463">diameter</text><text fill="#FFFFFF" font-family="sans-serif" font-size="15" lengthAdjust="spacingAndGlyphs" textLength="60" x="144.4693" y="430.0072">breedte</text><text fill="#FFFFFF" font-family="sans-serif" font-size="15" lengthAdjust="spacingAndGlyphs" textLength="156" x="144.4693" y="447.4682">breedteHoogteRatio</text><!--MD5=[2619822a4d9d1a716e72bfdc8318e48c]
link Voertuig to Motor--><path d="M167.0063,107.2011 L167.0063,107.2945 L173.0387,107.017 L179.0711,107.287 L185.1035,107.3787 L191.1359,106.884 L197.1683,107.2011 " fill="none" style="stroke:#C7C7C7;stroke-width:3.0;"/><polygon fill="#C7C7C7" points="202.4263,107.2011,202.4547,107.2651,200.5702,106.2749,198.8524,105.66,197.0804,104.9228,195.1297,103.7838,193.4263,103.2011,193.4079,103.1828,194.1257,103.9006,194.9359,104.7107,195.8102,105.585,196.4633,106.2381,197.4263,107.2011,197.5567,107.3316,196.4777,107.8525,195.7796,108.7545,195.1281,109.7029,194.206,110.3809,193.4263,111.2011,193.4355,111.2219,195.2219,110.3914,197.0504,109.6555,198.8586,108.8739,200.7055,108.1795,202.4263,107.2011" style="stroke:#C7C7C7;stroke-width:3.0;"/><text fill="#FFFFFF" font-family="sans-serif" font-size="15" lengthAdjust="spacingAndGlyphs" textLength="10" x="184.3773" y="103.1261">1</text><!--MD5=[a07ca9fa34cd2a817137451296a02ee8]
link Voertuig to Nummerplaat--><path d="M98.337,159.9091 L98.617,159.9206 L97.336,170.7755 L97.6964,181.6981 L97.5223,192.5987 L95.5904,203.4267 L96.0918,214.3551 " fill="none" style="stroke:#C7C7C7;stroke-width:3.0;"/><polygon fill="#C7C7C7" points="95.8816,219.4531,95.9443,219.4842,96.6311,217.6263,97.6861,215.9505,98.6211,214.2155,99.1619,212.2854,100.2485,210.6253,100.2309,210.6062,99.3199,211.2871,98.4974,212.0641,97.7364,212.9078,96.7634,213.5214,96.0873,214.4573,96.223,214.5823,95.1663,213.4828,94.506,212.7482,93.894,212.0582,93.0006,211.109,92.2552,210.2961,92.2764,210.3045,92.9706,212.1236,93.7611,213.9808,94.5051,215.8197,95.3378,217.6936,95.8816,219.4531" style="stroke:#C7C7C7;stroke-width:3.0;"/><text fill="#FFFFFF" font-family="sans-serif" font-size="15" lengthAdjust="spacingAndGlyphs" textLength="10" x="85.1976" y="208.0444">1</text><!--MD5=[27624d0b16cddd948eb1f470c246a142]
link Voertuig to Wiel--><path d="M143.8253,159.9091 L144.04,160.0892 L150.0272,167.4556 L157.2733,175.8775 L164.1095,183.9558 L169.5975,190.9037 L176.8723,199.3497 L183.1412,206.9523 L190.2023,215.2191 " fill="none" style="stroke:#C7C7C7;stroke-width:3.0;"/><polygon fill="#C7C7C7" points="193.7523,219.4531,193.8196,219.4724,193.0759,217.5217,192.727,215.6843,192.2496,213.81,191.3494,211.8143,191.0344,209.9867,191.0086,209.9844,190.7938,211.1013,190.7091,212.2296,190.7148,213.3658,190.4089,214.4746,190.5395,215.6218,190.5557,215.8057,189.3941,215.3136,188.2797,215.3582,187.171,215.4684,186.0289,215.1975,184.9044,215.127,184.9144,215.1474,186.6693,215.9827,188.4697,216.9109,190.2481,217.7943,192.0684,218.7633,193.7523,219.4531" style="stroke:#C7C7C7;stroke-width:3.0;"/><text fill="#FFFFFF" font-family="sans-serif" font-size="15" lengthAdjust="spacingAndGlyphs" textLength="8" x="179.5156" y="208.0444">*</text><!--MD5=[3819cbf7c53d998155432145d1580ba6]
link Wiel to WielGrootte--><path d="M222.4693,289.8141 L222.7495,289.8141 L221.9168,300.7445 L222.727,311.6749 L223.0022,322.6053 L221.5181,333.5357 L222.4693,344.4661 " fill="none" style="stroke:#C7C7C7;stroke-width:3.0;"/><polygon fill="#C7C7C7" points="222.4693,349.6311,222.5333,349.6595,223.143,347.775,224.1281,346.0573,224.991,344.2852,225.4519,342.3345,226.4693,340.6311,226.4509,340.6128,225.5687,341.3306,224.7789,342.1407,224.0532,343.015,223.1063,343.6681,222.4693,344.6311,222.5997,344.7616,221.5207,343.6825,220.8226,342.9845,220.1711,342.3329,219.249,341.4109,218.4693,340.6311,218.49,340.6403,219.2595,342.4268,220.1236,344.2553,220.9421,346.0635,221.8477,347.9104,222.4693,349.6311" style="stroke:#C7C7C7;stroke-width:3.0;"/><text fill="#FFFFFF" font-family="sans-serif" font-size="15" lengthAdjust="spacingAndGlyphs" textLength="10" x="211.7661" y="337.9775">1</text><!--MD5=[b7ec21c22effcc735e34f913492eeecb]
@startuml
skinparam monochrome reverse
        skinparam backgroundColor transparent
        skinparam handwritten true
        skinparam defaultFontSize 15
        skinparam arrowThickness 3
        hide circle
        hide method

        package Aggregate <<cloud>> {
        class Voertuig <<AggregateRoot>>{
            VIN
            merk
            model
        }
        class Motor <<Entiteit>>{
            cilinderinhoud
            pk
        }
        class Nummerplaat <<ValueObject>> {
            waarde
        }
        class Wiel <<Entiteit>> {
            merk
        }
        class WielGrootte <<ValueObject>>{
            diameter
            breedte
            breedteHoogteRatio
        }
        }
        Voertuig -r-> "1" Motor
        Voertuig - -> "1" Nummerplaat
        Voertuig - -> "*" Wiel
        Wiel - -> "1" WielGrootte
@enduml

PlantUML version 1.2020.21beta3(Unknown compile time)
(GPL source distribution)
Java Runtime: Java(TM) SE Runtime Environment
JVM: Java HotSpot(TM) 64-Bit Server VM
Default Encoding: UTF-8
Language: en
Country: US
--></g></svg>