<?xml version="1.0" encoding="UTF-8" standalone="no"?><svg xmlns="http://www.w3.org/2000/svg" xmlns:xlink="http://www.w3.org/1999/xlink" contentScriptType="application/ecmascript" contentStyleType="text/css" height="448px" preserveAspectRatio="none" style="width:301px;height:448px;background:#00000000;" version="1.1" viewBox="0 0 301 448" width="301px" zoomAndPan="magnify"><defs><filter height="300%" id="f1jmet41tyhhpq" width="300%" x="-1" y="-1"><feGaussianBlur result="blurOut" stdDeviation="2.0"/><feColorMatrix in="blurOut" result="blurOut2" type="matrix" values="0 0 0 0 0 0 0 0 0 0 0 0 0 0 0 0 0 0 .4 0"/><feOffset dx="4.0" dy="4.0" in="blurOut2" result="blurOut3"/><feBlend in="SourceGraphic" in2="blurOut3" mode="normal"/></filter></defs><g><!--MD5=[9d1b795d975ab05f601abc37ebe56014]
cluster Aggregate--><path d="M32.7247,31.3811 L32.7247,31.3811 L32.783,31.4541 L35.3331,29.0601 L38.2251,27.0939 L41.0057,24.9884 L43.4201,22.4248 L46.3415,20.4953 L46.3228,20.4663 L49.1693,22.2251 L52.1102,24.1302 L55.1167,26.1371 L57.8971,27.7934 L60.9942,29.9408 L60.9942,29.9408 L61.1759,30.1067 L63.2983,27.0011 L65.9513,24.3798 L68.669,21.8177 L71.0101,18.9117 L73.5493,16.1865 L73.5613,16.2144 L76.9636,17.6489 L80.4205,19.2102 L83.851,20.7104 L87.3319,22.3272 L90.6487,23.5636 L90.6487,23.5636 L90.8134,23.8123 L93.8146,21.8294 L96.7097,19.6861 L99.7602,17.7776 L102.8181,15.8802 L105.645,13.634 L105.445,13.3835 L108.6443,16.114 L111.185,18.0198 L114.2263,20.5525 L116.7521,22.4395 L119.7005,24.8558 L119.7005,24.8558 L119.68,24.8333 L122.3453,22.8966 L124.5321,20.4337 L127.0012,18.2812 L129.494,16.1549 L131.8158,13.8405 L131.8962,14.0071 L134.7648,15.2616 L137.7707,16.8008 L140.5544,17.8794 L143.6695,19.645 L146.5643,20.9539 L146.5643,20.9539 L146.7083,21.1504 L149.7393,18.8722 L152.8417,16.6916 L155.612,14.0577 L158.6258,11.7561 L161.8553,9.7489 L161.6918,9.5263 L164.8956,11.9721 L167.9152,14.1671 L171.2019,16.7259 L174.0325,18.6635 L177.1342,20.9704 L177.1342,20.9704 L177.068,20.833 L180.436,19.4931 L183.5211,17.5659 L186.8073,16.0563 L190.2903,14.9554 L193.4229,13.1268 L193.556,13.2674 L196.2731,15.8497 L198.576,17.9946 L201.3976,20.6874 L204.1062,23.2607 L206.5515,25.556 L206.5515,25.556 L206.4239,25.3892 L209.0494,23.5929 L211.6332,21.742 L214.299,19.9984 L216.6458,17.8375 L219.1708,15.9097 L219.3025,16.0676 L221.4527,17.7555 L223.8572,19.7481 L226.633,22.1859 L228.7252,23.804 L231.3689,26.0835 L231.3689,26.0835 L231.4756,26.2829 L233.6612,24.9607 L235.8106,23.571 L238.0416,22.3336 L240.461,21.4482 L242.6138,20.0647 L242.6058,19.9319 L244.5103,20.2139 L246.3605,19.5928 L248.2725,19.9985 L250.1497,19.8261 L252.0175,19.4979 L252.0771,19.5891 L253.5973,20.5413 L255.331,21.8198 L256.8718,22.8036 L258.332,23.6641 L259.8592,24.627 L259.9618,24.6877 L261.1212,26.8112 L262.7567,29.2167 L263.8537,31.3032 L265.1723,33.5209 L266.4181,35.6955 L266.4181,35.6955 L266.2785,35.4639 L266.4571,35.6208 L266.8039,36.0566 L266.9127,36.0978 L266.9362,35.9974 L267.0781,36.0933 L267.0781,36.0933 L266.9743,35.9947 L269.6953,38.8545 L272.2324,41.5396 L275.2748,44.7049 L278.0672,47.6325 L280.5167,50.2342 L280.7142,50.3596 L278.6867,53.6939 L276.2839,56.7899 L274.2773,60.1374 L272.0084,63.3185 L270.0631,66.7049 L270.0631,66.7049 L270.1584,66.7877 L272.1521,69.0852 L274.2608,71.4827 L276.0046,73.5631 L278.0427,75.8993 L280.094,78.2468 L280.2683,78.3388 L278.89,81.0695 L277.0384,83.5505 L275.7367,86.3216 L274.4445,89.0977 L272.9589,91.7717 L272.9589,91.7717 L272.7493,91.5991 L275.0502,94.2632 L276.9876,96.6279 L278.8347,98.9182 L280.8882,101.3785 L282.8095,103.7299 L283.0935,103.8856 L281.1982,106.3803 L279.9535,109.2316 L278.4527,111.9425 L276.8972,114.6234 L275.3627,117.3159 L275.3627,117.3159 L275.4121,117.3544 L277.257,119.7282 L278.8529,121.9081 L280.7857,124.3504 L282.6189,126.7151 L284.6353,129.2224 L284.6592,129.2376 L283.0493,131.7907 L281.4579,134.3556 L279.6691,136.7949 L278.1339,139.3955 L276.5402,141.9588 L276.5402,141.9588 L276.4944,141.9313 L278.6036,145.1567 L280.39,148.1881 L281.8862,151.0449 L283.8871,154.2052 L285.7585,157.2877 L285.562,157.1228 L283.5567,160.1102 L281.3658,162.9418 L279.0441,165.6637 L276.4105,168.1238 L274.2588,170.9884 L274.2588,170.9884 L274.4041,171.1348 L276.1339,172.8447 L278.5367,175.233 L280.488,177.1662 L282.7195,179.3819 L284.7968,181.4421 L284.8946,181.4851 L283.7925,184.2436 L282.1112,186.7471 L281.4011,189.6781 L280.0838,192.3418 L278.8149,195.0269 L278.8149,195.0269 L278.9425,195.1199 L281.1232,198.0191 L282.8964,200.621 L284.9972,203.4618 L287.0507,206.2682 L289.0138,209.0086 L289.0838,209.0613 L286.9312,211.7732 L285.1016,214.7283 L282.5505,217.1401 L280.8854,220.2191 L278.6024,222.8328 L278.6024,222.8328 L278.3928,222.6511 L280.7287,225.3373 L283.2313,228.168 L285.535,230.8264 L287.6678,233.3364 L290.141,236.1417 L290.2904,236.2489 L288.1256,239.0315 L286.2939,242.0533 L284.2177,244.8995 L281.7603,247.472 L279.8675,250.4498 L279.8675,250.4498 L279.7192,250.3533 L281.8139,253.4823 L283.989,256.6638 L286.0013,259.7392 L287.9579,262.7784 L289.8404,265.7693 L289.7304,265.6644 L287.522,268.6103 L284.9982,271.2553 L282.2561,273.6922 L279.6715,276.2792 L277.2253,278.9983 L277.2253,278.9983 L277.0739,278.9041 L278.6291,281.3323 L280.2467,283.7994 L281.6538,286.1355 L283.0067,288.4378 L284.6491,290.9203 L284.8307,291.0385 L282.946,293.1633 L281.772,295.7506 L280.2119,298.0866 L278.6591,300.4274 L276.9884,302.6915 L276.9884,302.6915 L277.2715,302.8123 L278.2306,305.7921 L279.5508,308.9262 L281.2284,312.2128 L282.115,315.1617 L283.7016,318.4095 L283.6315,318.3327 L281.2112,320.7516 L278.6722,323.0405 L276.0193,325.2045 L273.5888,327.6123 L271.0767,329.9306 L271.0767,329.9306 L271.35,330.1172 L273.1653,332.8031 L274.559,335.2011 L276.6573,338.0803 L278.2904,340.6418 L280.3296,343.4806 L280.3205,343.4732 L278.3497,346.1008 L276.3127,348.6743 L273.8593,350.9063 L272.1449,353.7442 L269.9266,356.169 L269.9266,356.169 L269.9298,356.171 L271.428,358.7629 L273.1701,361.508 L275.1807,364.4216 L276.8622,367.1286 L278.4785,369.7947 L278.4727,369.7903 L276.3131,372.1931 L274.8606,375.1242 L272.5891,377.4433 L270.586,379.9629 L268.8479,382.6806 L268.8479,382.6806 L268.8234,382.6633 L270.4431,384.7897 L271.8334,386.7544 L273.0037,388.5639 L274.317,390.4742 L275.7529,392.4711 L275.8283,392.4755 L275.9463,394.3596 L275.749,396.2251 L276.2687,398.1328 L276.4436,400.0202 L276.3064,401.8892 L276.229,401.8326 L275.0458,403.2902 L274.3351,405.0933 L272.994,406.4353 L271.8797,407.9433 L270.7731,409.4568 L270.8196,409.5813 L268.4018,410.0357 L266.3135,411.3729 L263.9577,411.9936 L261.793,413.1262 L259.4181,413.6955 L259.4181,413.6955 L259.3824,413.6064 L259.7586,413.9735 L259.8907,413.7309 L260.2775,414.1245 L260.5726,414.2892 L260.7829,414.242 L260.7829,414.242 L260.6759,414.1434 L258.6868,416.7543 L256.1667,418.8758 L253.985,421.3092 L252.1472,424.0595 L249.7093,426.2568 L249.8121,426.5431 L246.719,425.3903 L243.5038,423.8975 L240.5399,423.1047 L237.3356,421.6423 L234.3308,420.7355 L234.3308,420.7355 L234.3465,420.7561 L231.4011,422.9655 L228.4014,425.1037 L225.7085,427.6447 L222.7326,429.8142 L219.6839,431.8879 L219.6141,431.7636 L216.5881,430.2893 L213.2831,428.3181 L209.9257,426.2536 L206.7915,424.5867 L203.6319,422.8744 L203.6319,422.8744 L203.4941,422.686 L200.9372,424.7688 L198.1505,426.5373 L195.4999,428.492 L193.0176,430.6768 L190.341,432.5958 L190.3095,432.5526 L187.6659,430.6327 L184.984,428.6602 L182.4056,426.8295 L179.5565,424.6281 L177.0423,422.8852 L177.0423,422.8852 L177.1011,422.9251 L175.3596,424.779 L174.3327,427.1172 L173.0326,429.2704 L171.5974,431.3319 L169.9961,433.2808 L170.0611,433.4277 L168.4463,434.061 L166.8463,434.7279 L165.1276,435.1269 L163.7389,436.2705 L162.0741,436.7911 L162.1178,436.9309 L160.3506,436.1928 L158.667,435.7221 L156.937,435.1028 L155.2904,434.7504 L153.5584,434.1247 L153.7634,434.3472 L151.6864,432.3822 L150.1688,431.0243 L148.2353,429.2151 L146.3825,427.4934 L144.7313,425.9905 L144.7313,425.9905 L144.6299,425.8276 L141.7219,427.5252 L138.9117,429.38 L136.1656,431.338 L133.3631,433.2053 L130.4409,434.8802 L130.5847,435.0922 L127.7598,433.1457 L124.6917,430.8405 L122.2376,429.4409 L119.4185,427.503 L116.5114,425.4352 L116.5114,425.4352 L116.6306,425.6439 L113.7261,427.2935 L110.5654,428.4947 L107.7535,430.3065 L104.9796,432.1848 L102.0096,433.7197 L101.8712,433.5565 L99.4326,431.5243 L96.934,429.4214 L94.461,427.3487 L91.833,425.0932 L89.2724,422.9171 L89.2724,422.9171 L89.4357,423.205 L85.9657,425.0033 L82.5347,426.8704 L78.9632,428.4899 L75.759,430.7567 L72.2878,432.553 L72.1173,432.3628 L69.4702,430.0474 L66.4736,427.342 L63.6518,424.8318 L60.6288,422.097 L57.7465,419.5192 L57.7465,419.5192 L57.6988,419.4462 L55.1438,420.8265 L52.8493,422.6053 L50.3074,424.0057 L47.9964,425.7594 L45.6337,427.4339 L45.636,427.6285 L43.422,427.4792 L41.2063,427.1811 L38.9974,427.4649 L36.784,427.3587 L34.5711,427.3035 L34.7269,427.4879 L33.0218,426.0496 L31.1752,424.4439 L29.3856,422.9056 L27.664,421.4479 L26.0141,420.075 L26.0114,420.074 L25.3762,417.4957 L23.8925,414.6259 L23.1876,412.0236 L22.4494,409.4099 L21.4181,406.6955 L21.4181,406.6955 L21.6266,406.945 L22.126,407.3089 L22.6567,407.7103 L23.1504,408.0674 L23.8875,408.7158 L24.6559,409.4015 L24.6559,409.4015 L24.5731,409.3478 L22.9991,406.7351 L21.2266,403.9936 L19.3247,401.1681 L17.4723,398.3747 L15.7384,395.6582 L15.4673,395.4884 L17.5265,392.912 L19.3815,390.2076 L21.2142,387.4893 L22.7336,384.5747 L24.4361,381.7748 L24.4361,381.7748 L24.4632,381.7978 L22.4116,379.4173 L20.6204,377.2581 L18.4271,374.7571 L16.811,372.7468 L14.6863,370.3042 L14.5745,370.227 L16.2021,367.692 L18.1999,365.4124 L19.9883,362.9883 L21.5465,360.4054 L23.2353,357.9127 L23.2353,357.9127 L23.1909,357.8823 L21.4499,355.2554 L19.5395,352.5128 L17.6704,349.7983 L15.8901,347.1446 L14.0186,344.4285 L13.8927,344.3515 L15.8698,341.7315 L17.6864,339.0133 L18.9951,335.9848 L20.7439,333.2252 L22.5363,330.4922 L22.5363,330.4922 L22.3589,330.3831 L20.9409,327.8081 L19.1307,324.9918 L17.6898,322.4028 L15.6824,319.4652 L14.111,316.7959 L13.9806,316.7039 L16.0723,314.2437 L17.7364,311.4819 L19.7684,308.9795 L21.6265,306.3546 L23.3784,303.6547 L23.3784,303.6547 L23.5382,303.7643 L21.5148,301.0751 L20.0389,298.7613 L18.5169,296.416 L16.4358,293.6872 L14.949,291.366 L15.1398,291.4837 L16.3855,288.7503 L18.1381,286.3296 L19.8906,283.9089 L20.9702,281.0729 L22.7736,278.6836 L22.7736,278.6836 L23.0188,278.8906 L20.4854,275.9814 L18.1398,273.2307 L16.2374,270.854 L13.4938,267.7675 L11.4659,265.2848 L11.6978,265.4214 L13.0912,262.1726 L15.135,259.3068 L17.0824,256.3843 L18.5249,253.1645 L20.3608,250.1762 L20.3608,250.1762 L20.2044,250.0685 L18.3537,247.3673 L16.5532,244.7006 L14.8577,242.1065 L12.6757,239.177 L11.0085,236.6022 L11.1942,236.7333 L13.1147,234.0536 L14.5562,231.0357 L16.6606,228.4857 L18.4458,225.7104 L20.5151,223.1358 L20.5151,223.1358 L20.574,223.1845 L18.1304,220.344 L16.2796,217.9936 L14.2151,215.4664 L11.9345,212.7607 L9.8102,210.1842 L9.8661,210.2252 L11.802,207.4775 L13.8723,204.8283 L16.0278,202.2416 L17.993,199.5154 L19.7439,196.6321 L19.7439,196.6321 L19.8382,196.7061 L17.7638,194.0993 L15.835,191.6067 L13.8062,189.0357 L11.8231,186.5005 L9.7587,183.9016 L9.9287,184.0135 L11.2673,181.0205 L13.479,178.6026 L15.2863,175.9183 L16.6242,172.9248 L18.6583,170.3898 L18.6583,170.3898 L18.8985,170.5345 L17.2182,167.9438 L15.6247,165.4055 L13.9388,162.8115 L12.5668,160.4065 L11.2011,158.0053 L11.4303,158.1614 L12.6131,155.4689 L14.6564,153.3623 L15.9997,150.7791 L17.8272,148.5256 L19.3387,146.0569 L19.3387,146.0569 L19.1439,145.957 L17.5783,142.7559 L16.2717,139.6876 L14.4345,136.3473 L12.5906,133.0035 L11.0005,129.7898 L11.0728,129.8588 L13.7017,127.3142 L16.1148,124.5635 L18.7731,122.0469 L21.2593,119.366 L23.6231,116.5682 L23.6231,116.5682 L23.6881,116.6128 L21.8967,114.0918 L20.1619,111.6095 L18.4527,109.1448 L17.0097,106.863 L15.2291,104.3494 L15.2417,104.359 L17.24,102.1535 L18.6938,99.5348 L20.5536,97.2243 L22.1483,94.7126 L24.1901,92.5402 L24.1901,92.5402 L24.308,92.6363 L21.7409,89.6307 L19.4994,86.8907 L17.4176,84.281 L15.178,81.5426 L13.0746,78.9152 L13.1684,78.9793 L14.9114,75.9108 L17.3115,73.2916 L18.955,70.1551 L21.084,67.3504 L22.9975,64.3985 L22.9975,64.3985 L23.1734,64.5356 L21.3185,62.296 L19.8791,60.3804 L18.3028,58.358 L16.8687,56.4465 L15.1066,54.2793 L14.7843,54.2394 L14.7927,52.3654 L14.6648,50.4746 L14.6781,48.6013 L13.931,46.6338 L13.928,44.7585 L13.9777,44.7857 L14.9655,43.0852 L16.0478,41.4364 L16.4635,39.4235 L17.4995,37.7494 L18.6392,36.132 L18.4727,35.913 L20.7039,34.7879 L22.454,33.0301 L24.5453,31.721 L26.2897,29.9557 L28.4181,28.6955 L28.4181,28.6955 L28.3109,28.5236 L29.3141,29.2883 L29.9872,29.5236 L30.8514,30.0652 L32.0261,31.1049 L32.7247,31.3811 " fill="#00000000" filter="url(#f1jmet41tyhhpq)" style="stroke:#FFFFFF;stroke-width:1.5;"/><text fill="#FFFFFF" font-family="sans-serif" font-size="15" font-weight="bold" lengthAdjust="spacingAndGlyphs" textLength="92" x="97.9181" y="47.6188">Aggregate</text><!--MD5=[ac6161e8f058696c1bd702bd1e6929b7]
class Voertuig--><polygon fill="#070707" filter="url(#f1jmet41tyhhpq)" points="29.9181,56.6955,29.9181,56.9056,40.0609,56.2811,50.2038,56.8887,60.3466,57.0951,70.4895,55.9821,80.6324,56.6177,90.7752,56.269,100.9181,56.6955,100.5346,56.6955,100.8499,66.4559,100.2267,76.2163,101.4717,85.9767,100.2878,95.7371,100.7203,105.4975,101.35,115.258,100.8323,125.0184,100.9863,134.7788,100.9181,144.5392,100.9181,144.5073,90.7752,144.7177,80.6324,144.7783,70.4895,145.1249,60.3466,145.2103,50.2038,145.2185,40.0609,144.7938,29.9181,144.5392,30.3817,144.5392,30.6203,134.7788,29.1969,125.0184,30.5966,115.258,29.6216,105.4975,30.4519,95.7371,29.423,85.9767,29.8496,76.2163,30.6597,66.4559,29.9181,56.6955" style="stroke:#C7C7C7;stroke-width:1.5;"/><text fill="#FFFFFF" font-family="sans-serif" font-size="15" lengthAdjust="spacingAndGlyphs" textLength="65" x="32.9181" y="75.6188">Voertuig</text><path d="M30.9181,84.1564 L30.9181,84.4366 L40.7752,83.604 L50.6324,84.4141 L60.4895,84.6893 L70.3466,83.2052 L80.2038,84.0528 L90.0609,83.5877 L99.9181,84.1564 " fill="#070707" style="stroke:#C7C7C7;stroke-width:1.5;"/><text fill="#FFFFFF" font-family="sans-serif" font-size="15" lengthAdjust="spacingAndGlyphs" textLength="27" x="35.9181" y="102.0797">VIN</text><text fill="#FFFFFF" font-family="sans-serif" font-size="15" lengthAdjust="spacingAndGlyphs" textLength="39" x="35.9181" y="119.5407">merk</text><text fill="#FFFFFF" font-family="sans-serif" font-size="15" lengthAdjust="spacingAndGlyphs" textLength="46" x="35.9181" y="137.0016">model</text><!--MD5=[05f1a7330b1ceb1ed664acf8e30033c9]
class Motor--><polygon fill="#070707" filter="url(#f1jmet41tyhhpq)" points="136.4181,65.6955,136.4181,65.9056,146.5847,65.2811,156.7514,65.8887,166.9181,66.0951,177.0847,64.9821,187.2514,65.6177,197.4181,65.269,207.5847,65.312,217.7514,65.6273,227.9181,65.0041,238.0847,66.2491,248.2514,65.0652,258.4181,65.6955,258.2203,65.6955,258.85,75.7501,258.3323,85.8048,258.4863,95.8595,258.3861,105.9142,258.5966,115.9689,258.6572,126.0236,258.4181,136.0783,258.4181,136.664,248.2514,136.7493,238.0847,136.7575,227.9181,136.3329,217.7514,136.5419,207.5847,136.7805,197.4181,135.3571,187.2514,136.7568,177.0847,135.7818,166.9181,136.6121,156.7514,135.5832,146.5847,136.0098,136.4181,136.0783,137.1597,136.0783,136.3693,126.0236,136.5234,115.9689,136.7567,105.9142,136.8343,95.8595,136.4142,85.8048,136.7053,75.7501,136.4181,65.6955" style="stroke:#C7C7C7;stroke-width:1.5;"/><text fill="#FFFFFF" font-family="sans-serif" font-size="15" lengthAdjust="spacingAndGlyphs" textLength="46" x="174.4181" y="84.6188">Motor</text><path d="M137.4181,93.1564 L137.4181,93.4366 L147.4181,92.604 L157.4181,93.4141 L167.4181,93.6893 L177.4181,92.2052 L187.4181,93.0528 L197.4181,92.5877 L207.4181,92.6451 L217.4181,93.0655 L227.4181,92.2346 L237.4181,93.8946 L247.4181,92.316 L257.4181,93.1564 " fill="#070707" style="stroke:#C7C7C7;stroke-width:1.5;"/><text fill="#FFFFFF" font-family="sans-serif" font-size="15" lengthAdjust="spacingAndGlyphs" textLength="110" x="142.4181" y="111.0797">cilinderinhoud</text><text fill="#FFFFFF" font-family="sans-serif" font-size="15" lengthAdjust="spacingAndGlyphs" textLength="19" x="142.4181" y="128.5407">pk</text><!--MD5=[790699f2c9557b0d50b9155c7415375a]
class Nummerplaat--><polygon fill="#070707" filter="url(#f1jmet41tyhhpq)" points="29.9181,204.6955,29.9181,204.9056,40.009,204.2811,50.0999,204.8887,60.1908,205.0951,70.2817,203.9821,80.3726,204.6177,90.4635,204.269,100.5544,204.312,110.6453,204.6273,120.7363,204.0041,130.8272,205.2491,140.9181,204.6955,140.2878,204.6955,140.7203,215.2798,141.35,225.8642,140.8323,236.4486,140.9863,247.033,140.9181,257.6173,140.9181,257.5854,130.8272,257.7959,120.7363,257.8565,110.6453,258.203,100.5544,258.2884,90.4635,258.2966,80.3726,257.872,70.2817,258.0809,60.1908,258.3196,50.0999,256.8961,40.009,258.2958,29.9181,257.6173,29.6216,257.6173,30.4519,247.033,29.423,236.4486,29.8496,225.8642,30.6597,215.2798,29.9181,204.6955" style="stroke:#C7C7C7;stroke-width:1.5;"/><text fill="#FFFFFF" font-family="sans-serif" font-size="15" lengthAdjust="spacingAndGlyphs" textLength="105" x="32.9181" y="223.6188">Nummerplaat</text><path d="M30.9181,232.1564 L30.9181,232.4366 L40.8272,231.604 L50.7363,232.4141 L60.6453,232.6893 L70.5544,231.2052 L80.4635,232.0528 L90.3726,231.5877 L100.2817,231.6451 L110.1908,232.0655 L120.0999,231.2346 L130.009,232.8946 L139.9181,232.1564 " fill="#070707" style="stroke:#C7C7C7;stroke-width:1.5;"/><text fill="#FFFFFF" font-family="sans-serif" font-size="15" lengthAdjust="spacingAndGlyphs" textLength="55" x="35.9181" y="250.0797">waarde</text><!--MD5=[ec52bb6115b2bf293dd8316a5c14ddbf]
class Wiel--><polygon fill="#070707" filter="url(#f1jmet41tyhhpq)" points="175.9181,204.6955,175.9181,204.9056,186.1181,204.2811,196.3181,204.8887,206.5181,205.0951,216.7181,203.9821,226.9181,204.6955,226.8404,204.6955,226.4916,215.2798,226.5346,225.8642,226.8499,236.4486,226.2267,247.033,226.9181,257.6173,226.9181,258.171,216.7181,256.987,206.5181,257.4196,196.3181,258.0493,186.1181,257.5316,175.9181,257.6173,175.9863,257.6173,175.8861,247.033,176.0966,236.4486,176.1572,225.8642,176.5038,215.2798,175.9181,204.6955" style="stroke:#C7C7C7;stroke-width:1.5;"/><text fill="#FFFFFF" font-family="sans-serif" font-size="15" lengthAdjust="spacingAndGlyphs" textLength="34" x="184.4181" y="223.6188">Wiel</text><path d="M176.9181,232.1564 L176.9181,232.4366 L186.7181,231.604 L196.5181,232.4141 L206.3181,232.6893 L216.1181,231.2052 L225.9181,232.1564 " fill="#070707" style="stroke:#C7C7C7;stroke-width:1.5;"/><text fill="#FFFFFF" font-family="sans-serif" font-size="15" lengthAdjust="spacingAndGlyphs" textLength="39" x="181.9181" y="250.0797">merk</text><!--MD5=[881e5e9c87319b4b9056eacc15e744ad]
class WielGrootte--><polygon fill="#070707" filter="url(#f1jmet41tyhhpq)" points="90.4181,317.6955,90.4181,317.9056,100.3004,317.2811,110.1828,317.8887,120.0651,318.0951,129.9475,316.9821,139.8298,317.6177,149.7122,317.269,159.5945,317.312,169.4769,317.6273,179.3592,317.0041,189.2416,318.2491,199.124,317.0652,209.0063,317.4977,218.8887,318.1274,228.771,317.6097,238.6534,317.7637,248.5357,317.6635,258.4181,317.6955,258.5966,317.6955,258.6572,327.4559,259.0038,337.2163,259.0891,346.9767,259.0973,356.7371,258.6727,366.4975,258.8817,376.258,259.1203,386.0184,257.6969,395.7788,258.4181,405.5392,258.4181,406.2177,248.5357,405.2427,238.6534,406.073,228.771,405.0442,218.8887,405.4707,209.0063,406.2808,199.124,405.4905,189.2416,405.6445,179.3592,405.8778,169.4769,405.9554,159.5945,405.5353,149.7122,405.8264,139.8298,404.9668,129.9475,405.8236,120.0651,406.0874,110.1828,405.9837,100.3004,406.1522,90.4181,405.5392,89.935,405.5392,89.7659,395.7788,89.7967,386.0184,90.3592,376.258,90.2215,366.4975,91.0995,356.7371,90.2434,346.9767,90.075,337.2163,90.6463,327.4559,90.4181,317.6955" style="stroke:#C7C7C7;stroke-width:1.5;"/><text fill="#FFFFFF" font-family="sans-serif" font-size="15" lengthAdjust="spacingAndGlyphs" textLength="93" x="127.9181" y="336.6188">WielGrootte</text><path d="M91.4181,345.1564 L91.4181,345.4366 L101.1828,344.604 L110.9475,345.4141 L120.7122,345.6893 L130.4769,344.2052 L140.2416,345.0528 L150.0063,344.5877 L159.771,344.6451 L169.5357,345.0655 L179.3004,344.2346 L189.0651,345.8946 L198.8298,344.316 L208.5945,344.8927 L218.3592,345.7323 L228.124,345.042 L237.8887,345.2474 L247.6534,345.1138 L257.4181,345.1564 " fill="#070707" style="stroke:#C7C7C7;stroke-width:1.5;"/><text fill="#FFFFFF" font-family="sans-serif" font-size="15" lengthAdjust="spacingAndGlyphs" textLength="69" x="96.4181" y="363.0797">diameter</text><text fill="#FFFFFF" font-family="sans-serif" font-size="15" lengthAdjust="spacingAndGlyphs" textLength="60" x="96.4181" y="380.5407">breedte</text><text fill="#FFFFFF" font-family="sans-serif" font-size="15" lengthAdjust="spacingAndGlyphs" textLength="156" x="96.4181" y="398.0016">breedteHoogteRatio</text><!--MD5=[2619822a4d9d1a716e72bfdc8318e48c]
link Voertuig to Motor--><path d="M100.9961,100.6955 L100.9961,100.7889 L107.0261,100.5113 L113.0561,100.7814 L119.0861,100.8731 L125.1161,100.3784 L131.1461,100.6955 " fill="none" style="stroke:#C7C7C7;stroke-width:3.0;"/><polygon fill="#C7C7C7" points="136.4011,100.6955,136.4295,100.7595,134.545,99.7693,132.8272,99.1543,131.0552,98.4172,129.1045,97.2782,127.4011,96.6955,127.3828,96.6771,128.1005,97.3949,128.9107,98.2051,129.785,99.0794,130.4381,99.7325,131.4011,100.6955,131.5316,100.8259,130.4525,101.3469,129.7545,102.2488,129.1029,103.1973,128.1809,103.8752,127.4011,104.6955,127.4103,104.7162,129.1967,103.8857,131.0252,103.1498,132.8334,102.3683,134.6804,101.6739,136.4011,100.6955" style="stroke:#C7C7C7;stroke-width:3.0;"/><text fill="#FFFFFF" font-family="sans-serif" font-size="15" lengthAdjust="spacingAndGlyphs" textLength="10" x="118.3552" y="96.5876">1</text><!--MD5=[a07ca9fa34cd2a817137451296a02ee8]
link Voertuig to Nummerplaat--><path d="M72.1334,144.8415 L72.4103,144.8846 L73.0091,153.89 L75.2312,163.1481 L76.9246,172.3239 L76.8798,181.2292 L79.1388,190.493 L80.6628,199.6425 " fill="none" style="stroke:#C7C7C7;stroke-width:3.0;"/><polygon fill="#C7C7C7" points="81.4324,204.5875,81.5,204.6057,81.8129,202.6499,82.5222,200.8011,83.1024,198.9175,83.258,196.9191,84.0014,195.0796,83.9805,195.0643,83.2191,195.9091,82.5631,196.8311,81.9805,197.8065,81.1453,198.5974,80.6638,199.6469,80.7727,199.7959,79.6264,198.8097,78.798,198.2586,78.0084,197.7606,76.9931,196.9537,76.0965,196.3093,76.1156,196.3216,77.1547,197.9591,78.2809,199.6528,79.365,201.3194,80.5293,203.0376,81.4324,204.5875" style="stroke:#C7C7C7;stroke-width:3.0;"/><text fill="#FFFFFF" font-family="sans-serif" font-size="15" lengthAdjust="spacingAndGlyphs" textLength="10" x="69.2421" y="193.0189">1</text><!--MD5=[27624d0b16cddd948eb1f470c246a142]
link Voertuig to Wiel--><path d="M101.1501,135.4575 L101.3425,135.6612 L107.8564,141.7508 L115.4985,149.0346 L122.7732,155.9295 L128.8396,161.5457 L136.5074,168.8566 L143.2737,175.2135 L150.3988,181.9501 L157.7733,188.9506 L164.2883,195.0415 L172.0071,202.4065 " fill="none" style="stroke:#C7C7C7;stroke-width:3.0;"/><polygon fill="#C7C7C7" points="175.8021,205.9925,175.8667,206.0194,174.9158,204.1215,174.3439,202.3818,173.6486,200.5905,172.5473,198.6299,172.008,196.9037,171.9821,196.903,171.8979,198.0306,171.9442,199.162,172.0812,200.2959,171.9056,201.4209,172.168,202.5583,172.1732,202.7428,171.0311,202.3803,169.9043,202.5564,168.7793,202.7983,167.6435,202.6577,166.5134,202.7183,166.5209,202.7398,168.3676,203.3631,170.2486,204.0841,172.1131,204.758,174.0092,205.5218,175.8021,205.9925" style="stroke:#C7C7C7;stroke-width:3.0;"/><text fill="#FFFFFF" font-family="sans-serif" font-size="15" lengthAdjust="spacingAndGlyphs" textLength="8" x="159.8428" y="193.9306">*</text><!--MD5=[3819cbf7c53d998155432145d1580ba6]
link Wiel to WielGrootte--><path d="M196.0191,257.8905 L196.2933,257.9481 L193.5689,266.8649 L192.4523,276.1194 L190.8121,285.264 L187.4502,294.0469 L186.3702,303.3091 L184.5621,312.4185 " fill="none" style="stroke:#C7C7C7;stroke-width:3.0;"/><polygon fill="#C7C7C7" points="183.4761,317.5865,183.5329,317.6275,184.5173,315.9087,185.8347,314.4303,187.0436,312.8737,187.896,311.0596,189.242,309.6019,189.2279,309.5802,188.2169,310.1011,187.2772,310.7314,186.3872,311.4378,185.3262,311.8821,184.5047,312.6934,184.6592,312.7943,183.7104,311.6311,183.2129,310.7624,182.7703,309.9297,182.0075,308.8879,181.4131,307.9561,181.4354,307.9608,181.8153,309.8799,182.2965,311.8207,182.7288,313.751,183.2544,315.7013,183.4761,317.5865" style="stroke:#C7C7C7;stroke-width:3.0;"/><text fill="#FFFFFF" font-family="sans-serif" font-size="15" lengthAdjust="spacingAndGlyphs" textLength="10" x="174.1228" y="306.1744">1</text><!--MD5=[bda0a55c1e8fc9831c84f7d86d5946fc]
@startuml
skinparam monochrome reverse
        skinparam backgroundColor transparent
        skinparam handwritten true
        skinparam defaultFontSize 15
        skinparam arrowThickness 3
        hide circle
        hide method

        package Aggregate <<cloud>> {
        class Voertuig {
            VIN
            merk
            model
        }
        class Motor {
            cilinderinhoud
            pk
        }
        class Nummerplaat {
            waarde
        }
        class Wiel {
            merk
        }
        class WielGrootte {
            diameter
            breedte
            breedteHoogteRatio
        }
        }
        Voertuig -r-> "1" Motor
        Voertuig - -> "1" Nummerplaat
        Voertuig - -> "*" Wiel
        Wiel - -> "1" WielGrootte
@enduml

PlantUML version 1.2020.21beta3(Unknown compile time)
(GPL source distribution)
Java Runtime: Java(TM) SE Runtime Environment
JVM: Java HotSpot(TM) 64-Bit Server VM
Default Encoding: UTF-8
Language: en
Country: US
--></g></svg>