<?xml version="1.0" encoding="UTF-8" standalone="no"?><svg xmlns="http://www.w3.org/2000/svg" xmlns:xlink="http://www.w3.org/1999/xlink" contentScriptType="application/ecmascript" contentStyleType="text/css" height="371px" preserveAspectRatio="none" style="width:558px;height:371px;background:#00000000;" version="1.1" viewBox="0 0 558 371" width="558px" zoomAndPan="magnify"><defs><filter height="300%" id="f4l0l8skj6e99" width="300%" x="-1" y="-1"><feGaussianBlur result="blurOut" stdDeviation="2.0"/><feColorMatrix in="blurOut" result="blurOut2" type="matrix" values="0 0 0 0 0 0 0 0 0 0 0 0 0 0 0 0 0 0 .4 0"/><feOffset dx="4.0" dy="4.0" in="blurOut2" result="blurOut3"/><feBlend in="SourceGraphic" in2="blurOut3" mode="normal"/></filter></defs><g><!--MD5=[3cf5a8a8c866a122a01451037fb51722]
entity kbo--><polygon fill="#070707" filter="url(#f4l0l8skj6e99)" points="7,7,7,7.2102,17,6.5857,27,7.1933,37,7.3997,47,6.2866,57,6.9223,67,6.5735,77,6.6165,87,6.9318,97,6.3086,107,7.5536,117,6.3697,127,6.8022,137,7.4319,147,6.9142,157,7.0682,167,6.9681,177,7.1785,187,7.2391,197,7.5857,207,7.6711,217,7.6793,227,7.2546,237,7.4636,247,7.7022,257,6.2788,267,7.6785,277,6.7035,287,7.5338,297,6.505,307,6.9315,317,7.7416,327,7,326.9513,7,327.1053,16.5703,327.3386,26.1406,327.4162,35.7109,326.9961,45.2813,327.2872,54.8516,326.4276,64.4219,327.2844,73.9922,327,83.5625,327,84.1107,317,84.007,307,84.1755,297,83.0794,287,82.9103,277,82.9411,267,83.5036,257,83.366,247,84.2439,237,83.3878,227,83.2194,217,83.7908,207,82.8957,197,83.0434,187,84.2115,177,83.9982,167,84.297,157,83.2407,147,83.8817,137,84.1529,127,83.0901,117,83.4666,107,83.6885,97,84.2143,87,83.5583,77,84.0251,67,83.0087,57,82.8852,47,84.0661,37,82.8456,27,84.0715,17,83.7691,7,83.5625,6.7321,83.5625,6.6462,73.9922,7.4588,64.4219,6.7007,54.8516,7.5919,45.2813,6.4473,35.7109,7.6174,26.1406,7.4843,16.5703,7,7" style="stroke:#C7C7C7;stroke-width:1.5;"/><polygon fill="#070707" points="307,12,307,12.0701,310,11.8619,313,12.0644,316,12.1332,319,11.7622,322,12,321.9741,12,321.8578,14,321.8722,16,321.9773,18,321.7695,20,322,22,322,22.1845,319,21.7899,316,21.9341,313,22.144,310,21.9714,307,22,307.0227,22,306.9894,20,307.0595,18,307.0797,16,307.1952,14,307,12" style="stroke:#C7C7C7;stroke-width:1.5;"/><polygon fill="#070707" points="305,14,305,14.0701,305.8,13.8619,306.6,14.0644,307.4,14.1332,308.2,13.7622,309,14,308.9741,14,308.8578,14.4,308.8722,14.8,308.9773,15.2,308.7695,15.6,309,16,309,16.1845,308.2,15.7899,307.4,15.9341,306.6,16.144,305.8,15.9714,305,16,305.0227,16,304.9894,15.6,305.0595,15.2,305.0797,14.8,305.1952,14.4,305,14" style="stroke:#C7C7C7;stroke-width:1.5;"/><polygon fill="#070707" points="305,18,305,18.0701,305.8,17.8619,306.6,18.0644,307.4,18.1332,308.2,17.7622,309,18,308.9741,18,308.8578,18.4,308.8722,18.8,308.9773,19.2,308.7695,19.6,309,20,309,20.1845,308.2,19.7899,307.4,19.9341,306.6,20.144,305.8,19.9714,305,20,305.0227,20,304.9894,19.6,305.0595,19.2,305.0797,18.8,305.1952,18.4,305,18" style="stroke:#C7C7C7;stroke-width:1.5;"/><text fill="#FFFFFF" font-family="sans-serif" font-size="20" lengthAdjust="spacingAndGlyphs" textLength="41" x="22" y="45.5645">KBO</text><text fill="#FFFFFF" font-family="sans-serif" font-size="20" lengthAdjust="spacingAndGlyphs" textLength="280" x="22" y="68.8457">Opzoeken bedrijfsgegevens</text><!--MD5=[d2ed22653a1f7d802ddafe6f4fbb265c]
entity veg--><polygon fill="#070707" filter="url(#f4l0l8skj6e99)" points="297,281,297,281.2102,307,280.5857,317,281.1933,327,281.3997,337,280.2866,347,280.9223,357,280.5735,367,280.6165,377,280.9318,387,280.3086,397,281.5536,407,280.3697,417,280.8022,427,281.4319,437,280.9142,447,281.0682,457,280.9681,467,281.1785,477,281.2391,487,281.5857,497,281,497.6711,281,497.6793,290.5703,497.2546,300.1406,497.4636,309.7109,497.7022,319.2813,496.2788,328.8516,497.6785,338.4219,496.7035,347.9922,497,357.5625,497,358.0963,487,357.0675,477,357.494,467,358.3041,457,357.5138,447,357.6678,437,357.9011,427,357.9787,417,357.5586,407,357.8497,397,356.9901,387,357.8469,377,358.1107,367,358.007,357,358.1755,347,357.0794,337,356.9103,327,356.9411,317,357.5036,307,357.366,297,357.5625,297.6814,357.5625,296.8253,347.9922,296.6569,338.4219,297.2283,328.8516,296.3332,319.2813,296.4809,309.7109,297.649,300.1406,297.4357,290.5703,297,281" style="stroke:#C7C7C7;stroke-width:1.5;"/><polygon fill="#070707" points="477,286,477,286.0701,480,285.8619,483,286.0644,486,286.1332,489,285.7622,492,286,491.9741,286,491.8578,288,491.8722,290,491.9773,292,491.7695,294,492,296,492,296.1845,489,295.7899,486,295.9341,483,296.144,480,295.9714,477,296,477.0227,296,476.9894,294,477.0595,292,477.0797,290,477.1952,288,477,286" style="stroke:#C7C7C7;stroke-width:1.5;"/><polygon fill="#070707" points="475,288,475,288.0701,475.8,287.8619,476.6,288.0644,477.4,288.1332,478.2,287.7622,479,288,478.9741,288,478.8578,288.4,478.8722,288.8,478.9773,289.2,478.7695,289.6,479,290,479,290.1845,478.2,289.7899,477.4,289.9341,476.6,290.144,475.8,289.9714,475,290,475.0227,290,474.9894,289.6,475.0595,289.2,475.0797,288.8,475.1952,288.4,475,288" style="stroke:#C7C7C7;stroke-width:1.5;"/><polygon fill="#070707" points="475,292,475,292.0701,475.8,291.8619,476.6,292.0644,477.4,292.1332,478.2,291.7622,479,292,478.9741,292,478.8578,292.4,478.8722,292.8,478.9773,293.2,478.7695,293.6,479,294,479,294.1845,478.2,293.7899,477.4,293.9341,476.6,294.144,475.8,293.9714,475,294,475.0227,294,474.9894,293.6,475.0595,293.2,475.0797,292.8,475.1952,292.4,475,292" style="stroke:#C7C7C7;stroke-width:1.5;"/><text fill="#FFFFFF" font-family="sans-serif" font-size="20" lengthAdjust="spacingAndGlyphs" textLength="42" x="312" y="319.5645">VEG</text><text fill="#FFFFFF" font-family="sans-serif" font-size="20" lengthAdjust="spacingAndGlyphs" textLength="160" x="312" y="342.8457">Rapporteringen</text><!--MD5=[dd70141f56fcaa70eb3fb082acb4fb3f]
entity ffa--><polygon fill="#070707" filter="url(#f4l0l8skj6e99)" points="71.5,144,71.5,144.2102,81.5526,143.5857,91.6053,144.1933,101.6579,144.3997,111.7105,143.2866,121.7632,143.9223,131.8158,143.5735,141.8684,143.6165,151.9211,143.9318,161.9737,143.3086,172.0263,144.5536,182.0789,143.3697,192.1316,143.8022,202.1842,144.4319,212.2368,143.9142,222.2895,144.0682,232.3421,143.9681,242.3947,144.1785,252.4474,144.2391,262.5,144,263.0857,144,263.1711,153.5703,263.1793,163.1406,262.7546,172.7109,262.9636,182.2813,263.2022,191.8516,261.7788,201.4219,263.1785,210.9922,262.5,220.5625,262.5,220.266,252.4474,221.0963,242.3947,220.0675,232.3421,220.494,222.2895,221.3041,212.2368,220.5138,202.1842,220.6678,192.1316,220.9011,182.0789,220.9787,172.0263,220.5586,161.9737,220.8497,151.9211,219.9901,141.8684,220.8469,131.8158,221.1107,121.7632,221.007,111.7105,221.1755,101.6579,220.0794,91.6053,219.9103,81.5526,219.9411,71.5,220.5625,71.4411,220.5625,71.3035,210.9922,72.1814,201.4219,71.3253,191.8516,71.1569,182.2813,71.7283,172.7109,70.8332,163.1406,70.9809,153.5703,71.5,144" style="stroke:#C7C7C7;stroke-width:1.5;"/><polygon fill="#070707" points="242.5,149,242.5,149.0701,245.5,148.8619,248.5,149.0644,251.5,149.1332,254.5,148.7622,257.5,149,257.4741,149,257.3578,151,257.3722,153,257.4773,155,257.2695,157,257.5,159,257.5,159.1845,254.5,158.7899,251.5,158.9341,248.5,159.144,245.5,158.9714,242.5,159,242.5227,159,242.4894,157,242.5595,155,242.5797,153,242.6952,151,242.5,149" style="stroke:#C7C7C7;stroke-width:1.5;"/><polygon fill="#070707" points="240.5,151,240.5,151.0701,241.3,150.8619,242.1,151.0644,242.9,151.1332,243.7,150.7622,244.5,151,244.4741,151,244.3578,151.4,244.3722,151.8,244.4773,152.2,244.2695,152.6,244.5,153,244.5,153.1845,243.7,152.7899,242.9,152.9341,242.1,153.144,241.3,152.9714,240.5,153,240.5227,153,240.4894,152.6,240.5595,152.2,240.5797,151.8,240.6952,151.4,240.5,151" style="stroke:#C7C7C7;stroke-width:1.5;"/><polygon fill="#070707" points="240.5,155,240.5,155.0701,241.3,154.8619,242.1,155.0644,242.9,155.1332,243.7,154.7622,244.5,155,244.4741,155,244.3578,155.4,244.3722,155.8,244.4773,156.2,244.2695,156.6,244.5,157,244.5,157.1845,243.7,156.7899,242.9,156.9341,242.1,157.144,241.3,156.9714,240.5,157,240.5227,157,240.4894,156.6,240.5595,156.2,240.5797,155.8,240.6952,155.4,240.5,155" style="stroke:#C7C7C7;stroke-width:1.5;"/><text fill="#FFFFFF" font-family="sans-serif" font-size="20" lengthAdjust="spacingAndGlyphs" textLength="38" x="86.5" y="182.5645">FFA</text><text fill="#FFFFFF" font-family="sans-serif" font-size="20" lengthAdjust="spacingAndGlyphs" textLength="151" x="86.5" y="205.8457">Dossier beheer</text><!--MD5=[98b2a5a664d9b469d9dfa9c813951475]
entity dde--><polygon fill="#070707" filter="url(#f4l0l8skj6e99)" points="297.5,144,297.5,144.2102,307.38,143.5857,317.26,144.1933,327.14,144.3997,337.02,143.2866,346.9,143.9223,356.78,143.5735,366.66,143.6165,376.54,143.9318,386.42,143.3086,396.3,144.5536,406.18,143.3697,416.06,143.8022,425.94,144.4319,435.82,143.9142,445.7,144.0682,455.58,143.9681,465.46,144.1785,475.34,144.2391,485.22,144.5857,495.1,144.6711,504.98,144.6793,514.86,144.2546,524.74,144.4636,534.62,144.7022,544.5,144,543.7788,144,545.1785,153.5703,544.2035,163.1406,545.0338,172.7109,544.005,182.2813,544.4315,191.8516,545.2416,201.4219,544.4513,210.9922,544.5,220.5625,544.5,220.6678,534.62,220.9011,524.74,220.9787,514.86,220.5586,504.98,220.8497,495.1,219.9901,485.22,220.8469,475.34,221.1107,465.46,221.007,455.58,221.1755,445.7,220.0794,435.82,219.9103,425.94,219.9411,416.06,220.5036,406.18,220.366,396.3,221.2439,386.42,220.3878,376.54,220.2194,366.66,220.7908,356.78,219.8957,346.9,220.0434,337.02,221.2115,327.14,220.9982,317.26,221.297,307.38,220.2407,297.5,220.5625,297.8192,220.5625,298.0904,210.9922,297.0276,201.4219,297.4041,191.8516,297.626,182.2813,298.1518,172.7109,297.4958,163.1406,297.9626,153.5703,297.5,144" style="stroke:#C7C7C7;stroke-width:1.5;"/><polygon fill="#070707" points="524.5,149,524.5,149.0701,527.5,148.8619,530.5,149.0644,533.5,149.1332,536.5,148.7622,539.5,149,539.4741,149,539.3578,151,539.3722,153,539.4773,155,539.2695,157,539.5,159,539.5,159.1845,536.5,158.7899,533.5,158.9341,530.5,159.144,527.5,158.9714,524.5,159,524.5227,159,524.4894,157,524.5595,155,524.5797,153,524.6952,151,524.5,149" style="stroke:#C7C7C7;stroke-width:1.5;"/><polygon fill="#070707" points="522.5,151,522.5,151.0701,523.3,150.8619,524.1,151.0644,524.9,151.1332,525.7,150.7622,526.5,151,526.4741,151,526.3578,151.4,526.3722,151.8,526.4773,152.2,526.2695,152.6,526.5,153,526.5,153.1845,525.7,152.7899,524.9,152.9341,524.1,153.144,523.3,152.9714,522.5,153,522.5227,153,522.4894,152.6,522.5595,152.2,522.5797,151.8,522.6952,151.4,522.5,151" style="stroke:#C7C7C7;stroke-width:1.5;"/><polygon fill="#070707" points="522.5,155,522.5,155.0701,523.3,154.8619,524.1,155.0644,524.9,155.1332,525.7,154.7622,526.5,155,526.4741,155,526.3578,155.4,526.3722,155.8,526.4773,156.2,526.2695,156.6,526.5,157,526.5,157.1845,525.7,156.7899,524.9,156.9341,524.1,157.144,523.3,156.9714,522.5,157,522.5227,157,522.4894,156.6,522.5595,156.2,522.5797,155.8,522.6952,155.4,522.5,155" style="stroke:#C7C7C7;stroke-width:1.5;"/><text fill="#FFFFFF" font-family="sans-serif" font-size="20" lengthAdjust="spacingAndGlyphs" textLength="42" x="312.5" y="182.5645">DDE</text><text fill="#FFFFFF" font-family="sans-serif" font-size="20" lengthAdjust="spacingAndGlyphs" textLength="207" x="312.5" y="205.8457">Documenten beheer</text><!--MD5=[7468467f3b6b392f1d176d828c753b77]
entity db--><path d="M192,303.5 L192,303.5 L192.0566,303.5743 L194.1885,301.6035 L196.652,300.0684 L199.0076,298.3914 L201.008,296.2477 L203.5,294.75 L203.4963,294.7157 L205.7795,294.3116 L208.0816,294.0806 L210.3967,293.9699 L212.6668,293.4445 L215,293.5 L215,293.5 L215.0266,293.7446 L217.2697,293.4715 L219.5905,293.9126 L221.9207,294.4409 L224.1959,294.4621 L226.5,294.75 L226.5184,294.7741 L228.7914,296.4887 L231.148,298.3131 L233.4644,300.0846 L235.8576,301.9572 L238,303.5 L238.5965,303.5 L238.6038,309.9563 L238.2263,316.4125 L238.4121,322.8688 L238.6242,329.325 L238,335.7813 L238,335.7813 L237.8059,335.5262 L235.8826,337.7712 L233.3202,339.1764 L231.2437,341.2201 L228.6668,342.6062 L226.5,344.5313 L226.4967,344.501 L224.2356,345.1089 L221.8977,345.0097 L219.6051,345.3278 L217.3163,345.6809 L215,345.7813 L215,345.7813 L215.02,345.9652 L212.6998,345.5295 L210.4138,345.4082 L208.0725,344.7783 L205.8137,344.9069 L203.5,344.5313 L203.6475,344.7251 L201.3196,342.9385 L199.065,341.2481 L196.47,339.1104 L194.1245,337.3006 L192,335.7813 L191.4476,335.7813 L191.9477,329.325 L191.8253,322.8688 L192.6057,316.4125 L191.8447,309.9563 L192,303.5 " fill="#070707" filter="url(#f4l0l8skj6e99)" style="stroke:#FFFFFF;stroke-width:1.5;"/><path d="M192,303.5 L192,303.5 L192.0566,303.5743 L194.1885,305.1035 L196.652,307.0684 L199.0076,308.8914 L201.008,310.2477 L203.5,312.25 L203.4963,312.2157 L205.7795,312.3116 L208.0816,312.5806 L210.3967,312.9699 L212.6668,312.9445 L215,313.5 L215,313.5 L215.0266,313.7446 L217.2697,312.9715 L219.5905,312.9126 L221.9207,312.9409 L224.1959,312.4621 L226.5,312.25 L226.5184,312.2741 L228.7914,310.4887 L231.148,308.8131 L233.4644,307.0846 L235.8576,305.4572 L238,303.5 " fill="none" style="stroke:#FFFFFF;stroke-width:1.5;"/><text fill="#FFFFFF" font-family="sans-serif" font-size="20" lengthAdjust="spacingAndGlyphs" textLength="26" x="202" y="336.0645">db</text><!--MD5=[4d64540adfb58234258d113a5632b6c1]
reverse link kbo to ffa--><path d="M167,89.421 L167.2802,89.421 L166.4476,100.2624 L167.2577,111.1038 L167.5329,121.9452 L166.0488,132.7866 L167,143.628 " fill="none" style="stroke:#C7C7C7;stroke-width:1.0;"/><polygon fill="#C7C7C7" points="167,84.105,167.064,84.1335,166.0738,85.8489,165.4589,87.7312,164.7217,89.5591,163.5827,91.2084,163,93.105,162.9817,93.0867,163.6995,92.2045,164.5096,91.4146,165.3839,90.6889,166.037,89.742,167,89.105,167.1305,89.2355,167.6514,89.7564,168.5534,90.6584,169.5018,91.6068,170.1798,92.2848,171,93.105,171.0208,93.1142,170.1903,91.3007,169.4544,89.5292,168.6728,87.7374,167.9784,85.9843,167,84.105" style="stroke:#C7C7C7;stroke-width:1.0;"/><!--MD5=[6a29b825e8a858b7b11b4f276d471895]
link ffa to db--><path d="M180.371,221.105 L180.635,221.1989 L183.2758,230.5538 L187.4644,240.459 L191.149,250.1851 L193.1759,259.3217 L197.3998,269.2395 L200.3869,278.7176 L204.348,288.5419 " fill="none" style="stroke:#C7C7C7;stroke-width:1.0;"/><polygon fill="#C7C7C7" points="206.095,293.4535,206.1649,293.4589,206.1079,291.4789,206.4604,289.5304,206.6796,287.5717,206.4602,285.5793,206.8479,283.6335,206.8245,283.6223,206.2338,284.5943,205.7611,285.6222,205.3704,286.6892,204.6971,287.6218,204.4195,288.7426,204.4988,288.9093,203.3075,288.0672,202.3476,287.7117,201.4159,287.4156,200.32,286.7741,199.3104,286.3142,199.3269,286.3299,200.6596,287.7347,202.0674,289.2109,203.4389,290.6527,204.8796,292.1601,206.095,293.4535" style="stroke:#C7C7C7;stroke-width:1.0;"/><!--MD5=[30626ab11871c4edf7b0ccef81439600]
link ffa to dde--><path d="M262.746,182.5 L262.746,182.5934 L268.642,182.3159 L274.538,182.5859 L280.434,182.6776 L286.33,182.1829 L292.226,182.5 " fill="none" style="stroke:#C7C7C7;stroke-width:1.0;"/><polygon fill="#C7C7C7" points="297.364,182.5,297.3925,182.564,295.5079,181.5738,293.7902,180.9589,292.0181,180.2217,290.0674,179.0827,288.364,178.5,288.3457,178.4817,289.0635,179.1995,289.8736,180.0096,290.7479,180.8839,291.401,181.537,292.364,182.5,292.4945,182.6305,291.4154,183.1514,290.7174,184.0534,290.0658,185.0018,289.1438,185.6798,288.364,186.5,288.3732,186.5208,290.1597,185.6903,291.9882,184.9544,293.7964,184.1728,295.6433,183.4784,297.364,182.5" style="stroke:#C7C7C7;stroke-width:1.0;"/><!--MD5=[7a280f35d90635d4ee322d53629dddac]
reverse link db to veg--><path d="M243.146,319.5 L243.146,319.7802 L253.8688,318.9476 L264.5916,319.7577 L275.3144,320.0329 L286.0372,318.5488 L296.76,319.5 " fill="none" style="stroke:#C7C7C7;stroke-width:1.0;"/><polygon fill="#C7C7C7" points="238.105,319.5,238.1335,319.564,239.8489,320.1738,241.7312,321.1589,243.5591,322.0217,245.2084,322.4827,247.105,323.5,247.0867,323.4817,246.2045,322.5995,245.4146,321.8096,244.6889,321.0839,243.742,320.137,243.105,319.5,243.2355,319.6305,243.7564,318.5514,244.6584,317.8534,245.6068,317.2018,246.2848,316.2798,247.105,315.5,247.1142,315.5208,245.3007,316.2903,243.5292,317.1544,241.7374,317.9728,239.9843,318.8784,238.105,319.5" style="stroke:#C7C7C7;stroke-width:1.0;"/><!--MD5=[5d4b594a1c66504ee49f447eb24c37e0]
reverse link dde to veg--><path d="M413.37,226.421 L413.6459,226.4701 L411.2199,235.3589 L410.4114,244.5352 L409.0762,253.618 L406.0088,262.3928 L405.2371,271.5757 L403.733,280.6284 " fill="none" style="stroke:#C7C7C7;stroke-width:1.0;"/><polygon fill="#C7C7C7" points="414.315,221.105,414.3731,221.1442,413.0981,222.6601,412.1635,224.4058,411.1181,226.0767,409.7082,227.5014,408.8029,229.2669,408.788,229.2457,409.649,228.5026,410.5848,227.8665,411.5726,227.3049,412.3812,226.4868,413.4407,226.028,413.592,226.1336,413.9162,226.8352,414.6822,227.8453,415.5021,228.8931,416.0084,229.7218,416.6796,230.6658,416.7017,230.6712,416.1964,228.7511,415.7915,226.8558,415.3382,224.9485,414.9774,223.064,414.315,221.105" style="stroke:#C7C7C7;stroke-width:1.0;"/><!--MD5=[d6ec7d49b55f7aa31b60df1629cf02e2]
@startuml
skinparam monochrome reverse
        skinparam backgroundColor transparent
        skinparam handwritten true
        skinparam defaultFontSize 20


        [KBO\nOpzoeken bedrijfsgegevens] as kbo
        [VEG\nRapporteringen] as veg
        [FFA\nDossier beheer] as ffa
        [DDE\nDocumenten beheer] as dde
        database db

        ffa -u-> kbo
        ffa -d-> db
        ffa -r-> dde
        veg -l-> db
        veg -u-> dde
@enduml

PlantUML version 1.2020.21beta3(Unknown compile time)
(GPL source distribution)
Java Runtime: Java(TM) SE Runtime Environment
JVM: Java HotSpot(TM) 64-Bit Server VM
Default Encoding: UTF-8
Language: en
Country: US
--></g></svg>