<?xml version="1.0" encoding="UTF-8" standalone="no"?><svg xmlns="http://www.w3.org/2000/svg" xmlns:xlink="http://www.w3.org/1999/xlink" contentScriptType="application/ecmascript" contentStyleType="text/css" height="230px" preserveAspectRatio="none" style="width:528px;height:230px;background:#00000000;" version="1.1" viewBox="0 0 528 230" width="528px" zoomAndPan="magnify"><defs><filter height="300%" id="f132k90ghhvznb" width="300%" x="-1" y="-1"><feGaussianBlur result="blurOut" stdDeviation="2.0"/><feColorMatrix in="blurOut" result="blurOut2" type="matrix" values="0 0 0 0 0 0 0 0 0 0 0 0 0 0 0 0 0 0 .4 0"/><feOffset dx="4.0" dy="4.0" in="blurOut2" result="blurOut3"/><feBlend in="SourceGraphic" in2="blurOut3" mode="normal"/></filter></defs><g><!--MD5=[d3160beab778c2ae2d89d9a3de669684]
class ge1--><polygon fill="#070707" filter="url(#f132k90ghhvznb)" points="7,7,7,7.2102,16.9375,6.5857,26.875,7.1933,36.8125,7.3997,46.75,6.2866,56.6875,6.9223,66.625,6.5735,76.5625,6.6165,86.5,6.9318,96.4375,6.3086,106.375,7.5536,116.3125,6.3697,126.25,6.8022,136.1875,7.4319,146.125,6.9142,156.0625,7.0682,166,7,165.9894,7,166.0595,15.9844,166.0797,24.9688,166.1952,33.9531,166.2237,42.9375,166,51.9219,166,52.6011,156.0625,52.1765,146.125,52.3855,136.1875,52.6241,126.25,51.2007,116.3125,52.6004,106.375,51.6254,96.4375,52.4557,86.5,51.4269,76.5625,51.8534,66.625,52.6635,56.6875,51.8731,46.75,52.0272,36.8125,52.2605,26.875,52.3381,16.9375,51.918,7,51.9219,7.0957,51.9219,6.8092,42.9375,7.0948,33.9531,7.1827,24.9688,7.1482,15.9844,7,7" style="stroke:#C7C7C7;stroke-width:1.5;"/><text fill="#FFFFFF" font-family="sans-serif" font-size="30" lengthAdjust="spacingAndGlyphs" textLength="153" x="10" y="39.8467">Gebruiker</text><!--MD5=[e270793645c14639a3b58ef957d134e0]
class ge2--><polygon fill="#070707" filter="url(#f132k90ghhvznb)" points="181,7,181,7.2102,190.9375,6.5857,200.875,7.1933,210.8125,7.3997,220.75,6.2866,230.6875,6.9223,240.625,6.5735,250.5625,6.6165,260.5,6.9318,270.4375,6.3086,280.375,7.5536,290.3125,6.3697,300.25,6.8022,310.1875,7.4319,320.125,6.9142,330.0625,7.0682,340,7,339.9894,7,340.0595,15.9844,340.0797,24.9688,340.1952,33.9531,340.2237,42.9375,340,51.9219,340,52.6011,330.0625,52.1765,320.125,52.3855,310.1875,52.6241,300.25,51.2007,290.3125,52.6004,280.375,51.6254,270.4375,52.4557,260.5,51.4269,250.5625,51.8534,240.625,52.6635,230.6875,51.8731,220.75,52.0272,210.8125,52.2605,200.875,52.3381,190.9375,51.918,181,51.9219,181.0957,51.9219,180.8092,42.9375,181.0948,33.9531,181.1827,24.9688,181.1482,15.9844,181,7" style="stroke:#C7C7C7;stroke-width:1.5;"/><text fill="#FFFFFF" font-family="sans-serif" font-size="30" lengthAdjust="spacingAndGlyphs" textLength="153" x="184" y="39.8467">Gebruiker</text><!--MD5=[e493b468ef2fdad65a3c146755840ed9]
class ge3--><polygon fill="#070707" filter="url(#f132k90ghhvznb)" points="355,7,355,7.2102,364.9375,6.5857,374.875,7.1933,384.8125,7.3997,394.75,6.2866,404.6875,6.9223,414.625,6.5735,424.5625,6.6165,434.5,6.9318,444.4375,6.3086,454.375,7.5536,464.3125,6.3697,474.25,6.8022,484.1875,7.4319,494.125,6.9142,504.0625,7.0682,514,7,513.9894,7,514.0595,15.9844,514.0797,24.9688,514.1952,33.9531,514.2237,42.9375,514,51.9219,514,52.6011,504.0625,52.1765,494.125,52.3855,484.1875,52.6241,474.25,51.2007,464.3125,52.6004,454.375,51.6254,444.4375,52.4557,434.5,51.4269,424.5625,51.8534,414.625,52.6635,404.6875,51.8731,394.75,52.0272,384.8125,52.2605,374.875,52.3381,364.9375,51.918,355,51.9219,355.0957,51.9219,354.8092,42.9375,355.0948,33.9531,355.1827,24.9688,355.1482,15.9844,355,7" style="stroke:#C7C7C7;stroke-width:1.5;"/><text fill="#FFFFFF" font-family="sans-serif" font-size="30" lengthAdjust="spacingAndGlyphs" textLength="153" x="358" y="39.8467">Gebruiker</text><!--MD5=[83b1a8930f034cfe6485befb9d3ae296]
class re1--><polygon fill="#070707" filter="url(#f132k90ghhvznb)" points="11.5,172,11.5,172.2102,21.5,171.5857,31.5,172.1933,41.5,172.3997,51.5,171.2866,61.5,171.9223,71.5,171.5735,81.5,171.6165,91.5,171.9318,101.5,171.3086,111.5,172.5536,121.5,171.3697,131.5,171.8022,141.5,172.4319,151.5,171.9142,161.5,172,161.5227,172,161.4894,180.9844,161.5595,189.9688,161.5797,198.9531,161.6952,207.9375,161.5,216.9219,161.5,217.5929,151.5,217.6011,141.5,217.1765,131.5,217.3855,121.5,217.6241,111.5,216.2007,101.5,217.6004,91.5,216.6254,81.5,217.4557,71.5,216.4269,61.5,216.8534,51.5,217.6635,41.5,216.8731,31.5,217.0272,21.5,217.2605,11.5,216.9219,11.6387,216.9219,11.4987,207.9375,11.5957,198.9531,11.3092,189.9688,11.5948,180.9844,11.5,172" style="stroke:#C7C7C7;stroke-width:1.5;"/><text fill="#FFFFFF" font-family="sans-serif" font-size="30" lengthAdjust="spacingAndGlyphs" textLength="144" x="14.5" y="204.8467">Rekening</text><!--MD5=[6612b66d12c92d3c160a004d4bd68f5d]
class re2--><polygon fill="#070707" filter="url(#f132k90ghhvznb)" points="185.5,172,185.5,172.2102,195.5,171.5857,205.5,172.1933,215.5,172.3997,225.5,171.2866,235.5,171.9223,245.5,171.5735,255.5,171.6165,265.5,171.9318,275.5,171.3086,285.5,172.5536,295.5,171.3697,305.5,171.8022,315.5,172.4319,325.5,171.9142,335.5,172,335.5227,172,335.4894,180.9844,335.5595,189.9688,335.5797,198.9531,335.6952,207.9375,335.5,216.9219,335.5,217.5929,325.5,217.6011,315.5,217.1765,305.5,217.3855,295.5,217.6241,285.5,216.2007,275.5,217.6004,265.5,216.6254,255.5,217.4557,245.5,216.4269,235.5,216.8534,225.5,217.6635,215.5,216.8731,205.5,217.0272,195.5,217.2605,185.5,216.9219,185.6387,216.9219,185.4987,207.9375,185.5957,198.9531,185.3092,189.9688,185.5948,180.9844,185.5,172" style="stroke:#C7C7C7;stroke-width:1.5;"/><text fill="#FFFFFF" font-family="sans-serif" font-size="30" lengthAdjust="spacingAndGlyphs" textLength="144" x="188.5" y="204.8467">Rekening</text><!--MD5=[fb36f39110a0c49181b8cef175878078]
class re3--><polygon fill="#070707" filter="url(#f132k90ghhvznb)" points="359.5,172,359.5,172.2102,369.5,171.5857,379.5,172.1933,389.5,172.3997,399.5,171.2866,409.5,171.9223,419.5,171.5735,429.5,171.6165,439.5,171.9318,449.5,171.3086,459.5,172.5536,469.5,171.3697,479.5,171.8022,489.5,172.4319,499.5,171.9142,509.5,172,509.5227,172,509.4894,180.9844,509.5595,189.9688,509.5797,198.9531,509.6952,207.9375,509.5,216.9219,509.5,217.5929,499.5,217.6011,489.5,217.1765,479.5,217.3855,469.5,217.6241,459.5,216.2007,449.5,217.6004,439.5,216.6254,429.5,217.4557,419.5,216.4269,409.5,216.8534,399.5,217.6635,389.5,216.8731,379.5,217.0272,369.5,217.2605,359.5,216.9219,359.6387,216.9219,359.4987,207.9375,359.5957,198.9531,359.3092,189.9688,359.5948,180.9844,359.5,172" style="stroke:#C7C7C7;stroke-width:1.5;"/><text fill="#FFFFFF" font-family="sans-serif" font-size="30" lengthAdjust="spacingAndGlyphs" textLength="144" x="362.5" y="204.8467">Rekening</text><!--MD5=[2a8b01b629c7500ff5c07e2e9dedb02c]
link ge1 to re1--><path d="M86.5,52.145 L86.7802,52.145 L85.9476,62.1134 L86.7577,72.0817 L87.0329,82.0501 L85.5488,92.0184 L86.3964,101.9868 L85.9313,111.9552 L85.9887,121.9235 L86.4091,131.8919 L85.5782,141.8602 L87.2382,151.8286 L85.6596,161.7969 L86.5,171.7653 " fill="none" style="stroke:#C7C7C7;stroke-width:3.0;"/><text fill="#FFFFFF" font-family="sans-serif" font-size="15" lengthAdjust="spacingAndGlyphs" textLength="10" x="75.2813" y="73.7256">1</text><text fill="#FFFFFF" font-family="sans-serif" font-size="15" lengthAdjust="spacingAndGlyphs" textLength="10" x="75.1563" y="160.3668">1</text><!--MD5=[f2b824c4788b11f0804f19706579928d]
link ge2 to re2--><path d="M260.5,52.145 L260.7802,52.145 L259.9476,62.1134 L260.7577,72.0817 L261.0329,82.0501 L259.5488,92.0184 L260.3964,101.9868 L259.9313,111.9552 L259.9887,121.9235 L260.4091,131.8919 L259.5782,141.8602 L261.2382,151.8286 L259.6596,161.7969 L260.5,171.7653 " fill="none" style="stroke:#C7C7C7;stroke-width:3.0;"/><text fill="#FFFFFF" font-family="sans-serif" font-size="15" lengthAdjust="spacingAndGlyphs" textLength="10" x="249.2813" y="73.7256">1</text><text fill="#FFFFFF" font-family="sans-serif" font-size="15" lengthAdjust="spacingAndGlyphs" textLength="29" x="227.6031" y="160.3668">0..1</text><!--MD5=[6ebc15469848fe975b2dda6820db585a]
link ge3 to re3--><path d="M434.5,52.145 L434.7802,52.145 L433.9476,62.1134 L434.7577,72.0817 L435.0329,82.0501 L433.5488,92.0184 L434.3964,101.9868 L433.9313,111.9552 L433.9887,121.9235 L434.4091,131.8919 L433.5782,141.8602 L435.2382,151.8286 L433.6596,161.7969 L434.5,171.7653 " fill="none" style="stroke:#C7C7C7;stroke-width:3.0;"/><text fill="#FFFFFF" font-family="sans-serif" font-size="15" lengthAdjust="spacingAndGlyphs" textLength="10" x="423.2813" y="73.7256">1</text><text fill="#FFFFFF" font-family="sans-serif" font-size="15" lengthAdjust="spacingAndGlyphs" textLength="28" x="402.7375" y="160.3668">1..*</text><!--MD5=[e10d6ca9562dc9126505c5d763962844]
@startuml
skinparam monochrome reverse
        skinparam backgroundColor transparent
        skinparam handwritten true
        skinparam defaultFontSize 30
        skinparam arrowThickness 3
        skinparam nodesep 15
        skinparam ranksep 120
        skinparam arrowFontSize 15


        class "Gebruiker" as ge1
        class "Gebruiker" as ge2
        class "Gebruiker" as ge3
        class "Rekening" as re1
        class "Rekening" as re2
        class "Rekening" as re3

        ge1 "1" - - "1" re1
        ge2 "1" - - "0..1" re2
        ge3 "1" - - "1..*" re3

        hide members
        hide circle
@enduml

PlantUML version 1.2020.21beta3(Unknown compile time)
(GPL source distribution)
Java Runtime: Java(TM) SE Runtime Environment
JVM: Java HotSpot(TM) 64-Bit Server VM
Default Encoding: UTF-8
Language: en
Country: US
--></g></svg>