<?xml version="1.0" encoding="UTF-8" standalone="no"?><svg xmlns="http://www.w3.org/2000/svg" xmlns:xlink="http://www.w3.org/1999/xlink" contentScriptType="application/ecmascript" contentStyleType="text/css" height="65px" preserveAspectRatio="none" style="width:390px;height:65px;background:#00000000;" version="1.1" viewBox="0 0 390 65" width="390px" zoomAndPan="magnify"><defs><filter height="300%" id="f18fnwu5y7wayp" width="300%" x="-1" y="-1"><feGaussianBlur result="blurOut" stdDeviation="2.0"/><feColorMatrix in="blurOut" result="blurOut2" type="matrix" values="0 0 0 0 0 0 0 0 0 0 0 0 0 0 0 0 0 0 .4 0"/><feOffset dx="4.0" dy="4.0" in="blurOut2" result="blurOut3"/><feBlend in="SourceGraphic" in2="blurOut3" mode="normal"/></filter></defs><g><!--MD5=[a3800eef0c0867d184cde18c42fd3da7]
class Gebruiker--><polygon fill="#070707" filter="url(#f18fnwu5y7wayp)" points="7,7,7,7.2102,16.9375,6.5857,26.875,7.1933,36.8125,7.3997,46.75,6.2866,56.6875,6.9223,66.625,6.5735,76.5625,6.6165,86.5,6.9318,96.4375,6.3086,106.375,7.5536,116.3125,6.3697,126.25,6.8022,136.1875,7.4319,146.125,6.9142,156.0625,7.0682,166,7,165.9894,7,166.0595,15.9844,166.0797,24.9688,166.1952,33.9531,166.2237,42.9375,166,51.9219,166,52.6011,156.0625,52.1765,146.125,52.3855,136.1875,52.6241,126.25,51.2007,116.3125,52.6004,106.375,51.6254,96.4375,52.4557,86.5,51.4269,76.5625,51.8534,66.625,52.6635,56.6875,51.8731,46.75,52.0272,36.8125,52.2605,26.875,52.3381,16.9375,51.918,7,51.9219,7.0957,51.9219,6.8092,42.9375,7.0948,33.9531,7.1827,24.9688,7.1482,15.9844,7,7" style="stroke:#C7C7C7;stroke-width:1.5;"/><text fill="#FFFFFF" font-family="sans-serif" font-size="30" lengthAdjust="spacingAndGlyphs" textLength="153" x="10" y="39.8467">Gebruiker</text><!--MD5=[822f5189ff052da6c9b003cdedcec4ce]
class Rekening--><polygon fill="#070707" filter="url(#f18fnwu5y7wayp)" points="226.5,7,226.5,7.2102,236.5,6.5857,246.5,7.1933,256.5,7.3997,266.5,6.2866,276.5,6.9223,286.5,6.5735,296.5,6.6165,306.5,6.9318,316.5,6.3086,326.5,7.5536,336.5,6.3697,346.5,6.8022,356.5,7.4319,366.5,6.9142,376.5,7,376.5227,7,376.4894,15.9844,376.5595,24.9688,376.5797,33.9531,376.6952,42.9375,376.5,51.9219,376.5,52.5929,366.5,52.6011,356.5,52.1765,346.5,52.3855,336.5,52.6241,326.5,51.2007,316.5,52.6004,306.5,51.6254,296.5,52.4557,286.5,51.4269,276.5,51.8534,266.5,52.6635,256.5,51.8731,246.5,52.0272,236.5,52.2605,226.5,51.9219,226.6387,51.9219,226.4987,42.9375,226.5957,33.9531,226.3092,24.9688,226.5948,15.9844,226.5,7" style="stroke:#C7C7C7;stroke-width:1.5;"/><text fill="#FFFFFF" font-family="sans-serif" font-size="30" lengthAdjust="spacingAndGlyphs" textLength="144" x="229.5" y="39.8467">Rekening</text><!--MD5=[9d814a35f30dab8abbd785952dc674d8]
link Gebruiker to Rekening--><path d="M166.285,29.5 L166.285,29.7802 L175.6932,28.9476 L185.1014,29.7577 L194.5096,30.0329 L203.9178,28.5488 L213.326,29.5 " fill="none" style="stroke:#C7C7C7;stroke-width:3.0;"/><polygon fill="#C7C7C7" points="226.498,29.5,226.5369,29.5583,225.2214,28.5851,224.1337,27.9536,222.9719,27.2109,221.5661,26.1021,220.498,25.5,220.4836,25.4784,219.2191,26.1817,218.0271,26.9936,216.8854,27.8811,215.5702,28.5082,214.498,29.5,214.6004,29.6536,215.5815,30.1252,216.8614,31.0451,218.1779,32.0198,219.2821,32.6762,220.498,33.5,220.5106,33.5189,221.6921,32.6911,222.931,31.9495,224.1422,31.1663,225.4063,30.4624,226.498,29.5" style="stroke:#C7C7C7;stroke-width:3.0;"/><!--MD5=[f66846cf504dd0c59c26183d6fb9409d]
@startuml
skinparam monochrome reverse
        skinparam backgroundColor transparent
        skinparam handwritten true
        skinparam defaultFontSize 30
        skinparam arrowThickness 3
        skinparam nodesep 60

        class Gebruiker
        class Rekening

        Gebruiker -r-* Rekening

        hide members
        hide circle
@enduml

PlantUML version 1.2020.21beta3(Unknown compile time)
(GPL source distribution)
Java Runtime: Java(TM) SE Runtime Environment
JVM: Java HotSpot(TM) 64-Bit Server VM
Default Encoding: UTF-8
Language: en
Country: US
--></g></svg>