<?xml version="1.0" encoding="UTF-8" standalone="no"?><svg xmlns="http://www.w3.org/2000/svg" xmlns:xlink="http://www.w3.org/1999/xlink" contentScriptType="application/ecmascript" contentStyleType="text/css" height="170px" preserveAspectRatio="none" style="width:878px;height:170px;background:#00000000;" version="1.1" viewBox="0 0 878 170" width="878px" zoomAndPan="magnify"><defs><filter height="300%" id="fitqkys6npqlf" width="300%" x="-1" y="-1"><feGaussianBlur result="blurOut" stdDeviation="2.0"/><feColorMatrix in="blurOut" result="blurOut2" type="matrix" values="0 0 0 0 0 0 0 0 0 0 0 0 0 0 0 0 0 0 .4 0"/><feOffset dx="4.0" dy="4.0" in="blurOut2" result="blurOut3"/><feBlend in="SourceGraphic" in2="blurOut3" mode="normal"/></filter></defs><g><!--MD5=[659eed4519f87a120c8ca30e8b094923]
class Fiets--><polygon fill="#070707" filter="url(#fitqkys6npqlf)" points="393.5,7,393.5,7.2102,403.375,6.5857,413.25,7.1933,423.125,7.3997,433,6.2866,442.875,6.9223,452.75,6.5735,462.625,6.6165,472.5,7,472.4773,7,472.2695,15.9844,472.6845,24.9688,472.2899,33.9531,472.4341,42.9375,472.5,51.9219,472.5,52.3538,462.625,51.8361,452.75,51.9901,442.875,51.8899,433,52.1004,423.125,52.161,413.25,52.5076,403.375,52.5929,393.5,51.9219,393.7264,51.9219,393.5849,42.9375,393.6545,33.9531,393.7341,24.9688,393.2596,15.9844,393.5,7" style="stroke:#C7C7C7;stroke-width:1.5;"/><text fill="#FFFFFF" font-family="sans-serif" font-size="30" lengthAdjust="spacingAndGlyphs" textLength="73" x="396.5" y="39.8467">Fiets</text><!--MD5=[ea7db882295d4ef605a689b204987fb3]
class Mountainbike--><polygon fill="#070707" filter="url(#fitqkys6npqlf)" points="7,112,7,112.2102,17.1905,111.5857,27.381,112.1933,37.5714,112.3997,47.7619,111.2866,57.9524,111.9223,68.1429,111.5735,78.3333,111.6165,88.5238,111.9318,98.7143,111.3086,108.9048,112.5536,119.0952,111.3697,129.2857,111.8022,139.4762,112.4319,149.6667,111.9142,159.8571,112.0682,170.0476,111.9681,180.2381,112.1785,190.4286,112.2391,200.619,112.5857,210.8095,112.6711,221,112,221.2264,112,221.0849,120.9844,221.1545,129.9688,221.2341,138.9531,220.7596,147.9375,221,156.9219,221,157.6004,210.8095,156.6254,200.619,157.4557,190.4286,156.4269,180.2381,156.8534,170.0476,157.6635,159.8571,156.8731,149.6667,157.0272,139.4762,157.2605,129.2857,157.3381,119.0952,156.918,108.9048,157.2091,98.7143,156.3495,88.5238,157.2063,78.3333,157.4701,68.1429,157.3664,57.9524,157.5349,47.7619,156.4388,37.5714,156.2697,27.381,156.3005,17.1905,156.863,7,156.9219,6.9345,156.9219,7.2271,147.9375,6.9418,138.9531,6.8856,129.9688,7.0761,120.9844,7,112" style="stroke:#C7C7C7;stroke-width:1.5;"/><text fill="#FFFFFF" font-family="sans-serif" font-size="30" lengthAdjust="spacingAndGlyphs" textLength="208" x="10" y="144.8467">Mountainbike</text><!--MD5=[a5a49d5ce127b9a7dbf2135f1f48e928]
class Bakfiets--><polygon fill="#070707" filter="url(#fitqkys6npqlf)" points="256,112,256,112.2102,266,111.5857,276,112.1933,286,112.3997,296,111.2866,306,111.9223,316,111.5735,326,111.6165,336,111.9318,346,111.3086,356,112.5536,366,111.3697,376,111.8022,386,112,386.144,112,385.9714,120.9844,386.0227,129.9688,385.9894,138.9531,386.0595,147.9375,386,156.9219,386,157.161,376,157.5076,366,157.5929,356,157.6011,346,157.1765,336,157.3855,326,157.6241,316,156.2007,306,157.6004,296,156.6254,286,157.4557,276,156.4269,266,156.8534,256,156.9219,256.2472,156.9219,255.9838,147.9375,256.0351,138.9531,256.1129,129.9688,256.1387,120.9844,256,112" style="stroke:#C7C7C7;stroke-width:1.5;"/><text fill="#FFFFFF" font-family="sans-serif" font-size="30" lengthAdjust="spacingAndGlyphs" textLength="124" x="259" y="144.8467">Bakfiets</text><!--MD5=[daadd2494b66b3bed689cf827fbcb050]
class ElektrischeFiets--><polygon fill="#070707" filter="url(#fitqkys6npqlf)" points="421.5,112,421.5,112.2102,431.46,111.5857,441.42,112.1933,451.38,112.3997,461.34,111.2866,471.3,111.9223,481.26,111.5735,491.22,111.6165,501.18,111.9318,511.14,111.3086,521.1,112.5536,531.06,111.3697,541.02,111.8022,550.98,112.4319,560.94,111.9142,570.9,112.0682,580.86,111.9681,590.82,112.1785,600.78,112.2391,610.74,112.5857,620.7,112.6711,630.66,112.6793,640.62,112.2546,650.58,112.4636,660.54,112.7022,670.5,112,670.2596,112,670.7262,120.9844,670.4012,129.9688,670.6779,138.9531,670.335,147.9375,670.5,156.9219,670.5,156.8534,660.54,157.6635,650.58,156.8731,640.62,157.0272,630.66,157.2605,620.7,157.3381,610.74,156.918,600.78,157.2091,590.82,156.3495,580.86,157.2063,570.9,157.4701,560.94,157.3664,550.98,157.5349,541.02,156.4388,531.06,156.2697,521.1,156.3005,511.14,156.863,501.18,156.7253,491.22,157.6033,481.26,156.7472,471.3,156.5788,461.34,157.1501,451.38,156.255,441.42,156.4027,431.46,157.5708,421.5,156.9219,421.6452,156.9219,421.7448,147.9375,421.3927,138.9531,421.6064,129.9688,421.6968,120.9844,421.5,112" style="stroke:#C7C7C7;stroke-width:1.5;"/><text fill="#FFFFFF" font-family="sans-serif" font-size="30" lengthAdjust="spacingAndGlyphs" textLength="243" x="424.5" y="144.8467">ElektrischeFiets</text><!--MD5=[246e548c4fb1b8ccbdd0ee07a3528cba]
class Stadsfiets--><polygon fill="#070707" filter="url(#fitqkys6npqlf)" points="705.5,112,705.5,112.2102,715.4375,111.5857,725.375,112.1933,735.3125,112.3997,745.25,111.2866,755.1875,111.9223,765.125,111.5735,775.0625,111.6165,785,111.9318,794.9375,111.3086,804.875,112.5536,814.8125,111.3697,824.75,111.8022,834.6875,112.4319,844.625,111.9142,854.5625,112.0682,864.5,112,864.4894,112,864.5595,120.9844,864.5797,129.9688,864.6952,138.9531,864.7237,147.9375,864.5,156.9219,864.5,157.6011,854.5625,157.1765,844.625,157.3855,834.6875,157.6241,824.75,156.2007,814.8125,157.6004,804.875,156.6254,794.9375,157.4557,785,156.4269,775.0625,156.8534,765.125,157.6635,755.1875,156.8731,745.25,157.0272,735.3125,157.2605,725.375,157.3381,715.4375,156.918,705.5,156.9219,705.5957,156.9219,705.3092,147.9375,705.5948,138.9531,705.6827,129.9688,705.6482,120.9844,705.5,112" style="stroke:#C7C7C7;stroke-width:1.5;"/><text fill="#FFFFFF" font-family="sans-serif" font-size="30" lengthAdjust="spacingAndGlyphs" textLength="153" x="708.5" y="144.8467">Stadsfiets</text><!--MD5=[cd3d4e8bdf22e7dcf02450fd2e925422]
reverse link Fiets to Mountainbike--><path d="M374.02,49.544 L374.1061,49.8107 L364.1849,52.1391 L354.7685,56.0308 L345.1877,59.4135 L335.0663,61.1219 L325.6614,65.0493 L315.8532,67.7275 L306.2054,70.9028 L296.6693,74.4237 L286.7486,76.7537 L277.5933,81.4542 L267.4429,83.0728 L257.9548,86.7424 L248.5474,90.6621 L238.67,93.126 L229.0677,96.4422 L219.3613,99.4359 L209.7822,102.8237 L200.1417,106.0214 L190.6183,109.5819 L180.713,111.9595 " fill="none" style="stroke:#C7C7C7;stroke-width:3.0;"/><polygon fill="none" points="372.06,42.821,372.0617,42.891,376.2932,42.7861,380.5348,43.0918,384.773,43.2638,389.0006,42.9961,393.243,43.337,393.2273,43.3164,389.7809,45.7849,386.4133,48.3576,383.1007,51.0025,379.5989,53.3982,376.362,56.143,376.5376,56.1997,375.3017,53.414,374.5785,50.7939,373.9178,48.194,372.8932,45.4766,372.06,42.821" style="stroke:#C7C7C7;stroke-width:3.0;"/><!--MD5=[e5dde5dfe3a7bb948e5885a1bbfc6fc8]
reverse link Fiets to Bakfiets--><path d="M394.749,65.6777 L394.9387,65.884 L387.1892,71.8794 L380.5517,79.0841 L373.5522,85.8951 L365.3617,91.411 L358.7496,98.6433 L351.2489,104.9094 L344.448,111.9363 " fill="none" style="stroke:#C7C7C7;stroke-width:3.0;"/><polygon fill="none" points="390.061,60.478,390.0887,60.5423,393.8983,58.674,397.8705,57.1828,401.7897,55.5687,405.5349,53.5508,409.521,52.092,409.4982,52.0798,407.399,55.7632,405.415,59.5081,403.5112,63.2958,401.3313,66.9361,399.538,70.7829,399.6738,70.9078,397.488,68.5797,395.6987,66.6163,393.9578,64.6974,391.9354,62.5196,390.061,60.478" style="stroke:#C7C7C7;stroke-width:3.0;"/><!--MD5=[47fae2949c75154ec879dd2904672f40]
reverse link Fiets to ElektrischeFiets--><path d="M471.593,65.6777 L471.7818,65.8848 L478.4709,71.8778 L486.2666,79.0849 L493.702,85.8967 L499.9522,91.4082 L507.7732,98.643 L514.7099,104.9077 L522.343,111.9363 " fill="none" style="stroke:#C7C7C7;stroke-width:3.0;"/><polygon fill="none" points="466.754,70.7386,466.8157,70.7719,464.6195,66.9437,462.7847,63.3106,460.8322,59.6139,458.4927,55.7084,456.689,52.092,456.6789,52.0682,460.5325,53.6212,464.4373,55.2943,468.3777,57.051,472.1955,58.5198,476.185,60.3918,476.3214,60.5161,474.1435,62.3196,472.3639,64.4861,470.6328,66.6969,468.6191,68.65,466.754,70.7386" style="stroke:#C7C7C7;stroke-width:3.0;"/><!--MD5=[5149d9411911e16188108f8db17174f1]
reverse link Fiets to Stadsfiets--><path d="M492.175,47.815 L492.2537,48.084 L501.5547,50.0748 L511.317,53.6424 L520.9291,56.6966 L530.0472,58.0623 L539.82,61.6658 L549.2243,64.0095 L558.7752,66.8546 L568.4281,70.0481 L577.7295,72.0407 L587.7306,76.4239 L596.8221,77.6989 L606.5189,81.0424 L616.2895,84.6383 L625.6304,86.7658 L635.2229,89.753 L644.7203,92.4148 L654.3339,95.4742 L663.8914,98.3418 L673.556,101.5753 L683.1228,104.4746 L692.6607,107.2751 L702.0365,109.5218 L711.476,111.986 " fill="none" style="stroke:#C7C7C7;stroke-width:3.0;"/><polygon fill="none" points="489.924,54.45,489.9648,54.507,486.3978,51.8707,483.0699,49.5684,479.6642,47.1573,476.0024,44.3886,472.695,42.115,472.6937,42.0891,476.9198,41.7528,481.1528,41.5469,485.3904,41.4317,489.6118,41.0041,493.856,41.014,494.0331,41.0658,492.868,43.6422,492.2199,46.3699,491.635,49.116,490.683,51.7548,489.924,54.45" style="stroke:#C7C7C7;stroke-width:3.0;"/><!--MD5=[2bc8aac1143d0e2c2609b5a4c5c166df]
@startuml
skinparam monochrome reverse
        skinparam backgroundColor transparent
        skinparam handwritten true
        skinparam defaultFontSize 30
        skinparam arrowThickness 3

        class Fiets
        class Mountainbike
        class Bakfiets
        class ElektrischeFiets
        class Stadsfiets

        Fiets <|- - Mountainbike
        Fiets <|- - Bakfiets
        Fiets <|- - ElektrischeFiets
        Fiets <|- - Stadsfiets

        hide members
        hide circle
@enduml

PlantUML version 1.2020.21beta3(Unknown compile time)
(GPL source distribution)
Java Runtime: Java(TM) SE Runtime Environment
JVM: Java HotSpot(TM) 64-Bit Server VM
Default Encoding: UTF-8
Language: en
Country: US
--></g></svg>