<?xml version="1.0" encoding="UTF-8" standalone="no"?><svg xmlns="http://www.w3.org/2000/svg" xmlns:xlink="http://www.w3.org/1999/xlink" contentScriptType="application/ecmascript" contentStyleType="text/css" height="443px" preserveAspectRatio="none" style="width:974px;height:443px;background:#00000000;" version="1.1" viewBox="0 0 974 443" width="974px" zoomAndPan="magnify"><defs><filter height="300%" id="f150w6yc2oxfud" width="300%" x="-1" y="-1"><feGaussianBlur result="blurOut" stdDeviation="2.0"/><feColorMatrix in="blurOut" result="blurOut2" type="matrix" values="0 0 0 0 0 0 0 0 0 0 0 0 0 0 0 0 0 0 .4 0"/><feOffset dx="4.0" dy="4.0" in="blurOut2" result="blurOut3"/><feBlend in="SourceGraphic" in2="blurOut3" mode="normal"/></filter></defs><g><!--MD5=[a3800eef0c0867d184cde18c42fd3da7]
class Gebruiker--><polygon fill="#070707" filter="url(#f150w6yc2oxfud)" points="7,7,7,7.2102,17.0316,6.5857,27.0632,7.1933,37.0947,7.3997,47.1263,6.2866,57.1579,6.9223,67.1895,6.5735,77.2211,6.6165,87.2526,6.9318,97.2842,6.3086,107.3158,7.5536,117.3474,6.3697,127.3789,6.8022,137.4105,7.4319,147.4421,6.9142,157.4737,7.0682,167.5053,6.9681,177.5368,7.1785,187.5684,7.2391,197.6,7.5857,207.6316,7.6711,217.6632,7.6793,227.6947,7.2546,237.7263,7.4636,247.7579,7.7022,257.7895,6.2788,267.8211,7.6785,277.8526,6.7035,287.8842,7.5338,297.9158,6.505,307.9474,6.9315,317.9789,7.7416,328.0105,6.9513,338.0421,7.1053,348.0737,7.3386,358.1053,7.4162,368.1368,6.9961,378.1684,7.2872,388.2,6.4276,398.2316,7.2844,408.2632,7.5482,418.2947,7.4445,428.3263,7.613,438.3579,6.5169,448.3895,6.3478,458.4211,6.3786,468.4526,6.9411,478.4842,6.8035,488.5158,7.6814,498.5474,6.8253,508.5789,6.6569,518.6105,7.2283,528.6421,6.3332,538.6737,6.4809,548.7053,7.649,558.7368,7.4357,568.7684,7.7345,578.8,6.6782,588.8316,7.3192,598.8632,7.5904,608.8947,6.5276,618.9263,6.9041,628.9579,7.126,638.9895,7.6518,649.0211,6.9958,659.0526,7.4626,669.0842,6.4462,679.1158,6.3227,689.1474,7.5036,699.1789,6.2831,709.2105,7.509,719.2421,7.2066,729.2737,6.7321,739.3053,6.6462,749.3368,7.4588,759.3684,6.7007,769.4,7.5919,779.4316,6.4473,789.4632,7.6174,799.4947,7.4843,809.5263,7.245,819.5579,7.0472,829.5895,7.7266,839.6211,7.6136,849.6526,7.1693,859.6842,7.2682,869.7158,6.8697,879.7474,7.7165,889.7789,7.1549,899.8105,7.1726,909.8421,6.3916,919.8737,6.5948,929.9053,7.5307,939.9368,7.4298,949.9684,6.9571,960,7,959.6778,7,959.7811,17.0595,959.3138,27.119,960.4147,37.1786,960.7396,47.2381,960.5264,57.2976,960.6949,67.3571,959.8633,77.4167,960.0872,87.4762,959.6124,97.5357,960.284,107.5952,960.2468,117.6548,960.5524,127.7143,959.7703,137.7738,959.8656,147.8333,960.4435,157.8929,960.5673,167.9524,959.4875,178.0119,959.8061,188.0714,960.1493,198.131,959.3892,208.1905,960.3534,218.25,960.258,228.3095,959.8992,238.369,960.1422,248.4286,960.7287,258.4881,959.6871,268.5476,960.315,278.6071,960.2856,288.6667,960.1158,298.7262,960.1409,308.7857,960.1135,318.8452,959.3758,328.9048,959.5992,338.9643,959.5385,349.0238,960.0638,359.0833,960.0881,369.1429,960.1617,379.2024,959.709,389.2619,959.9325,399.3214,959.8798,409.381,960.5769,419.4405,960,429.5,960,429.9266,949.9684,429.0145,939.9368,429.4271,929.9053,428.9228,919.8737,429.7884,909.8421,430.1085,899.8105,430.0446,889.7789,429.0644,879.7474,429.964,869.7158,428.7572,859.6842,429.7002,849.6526,429.2007,839.6211,429.5967,829.5895,429.7403,819.5579,429.9721,809.5263,428.7801,799.4947,429.9755,789.4632,429.6782,779.4316,429.8553,769.4,430.2478,759.3684,429.5055,749.3368,429.6753,739.3053,429.7134,729.2737,429.6972,719.2421,429.4992,709.2105,430.2107,699.1789,428.8903,689.1474,430.0653,679.1158,428.876,669.0842,428.9597,659.0526,429.54,649.0211,429.5283,638.9895,429.0072,628.9579,429.9137,618.9263,429.6089,608.8947,430.2267,598.8632,430.1671,588.8316,429.0517,578.8,429.1021,568.7684,429.3708,558.7368,429.8555,548.7053,429.903,538.6737,429.8012,528.6421,429.158,518.6105,430.1364,508.5789,430.1338,498.5474,429.4527,488.5158,429.2609,478.4842,429.0986,468.4526,429.2854,458.4211,429.6374,448.3895,429.4316,438.3579,429.0822,428.3263,429.9874,418.2947,429.0411,408.2632,430.0024,398.2316,429.9272,388.2,429.8719,378.1684,430.1925,368.1368,429.2541,358.1053,429.1994,348.0737,430.0189,338.0421,428.9031,328.0105,429.266,317.9789,429.6155,307.9474,429.5687,297.9158,429.1415,287.8842,429.457,277.8526,430.2446,267.8211,430.1485,257.7895,428.9037,247.7579,429.5785,237.7263,428.9861,227.6947,429.4737,217.6632,429.793,207.6316,429.9199,197.6,428.8353,187.5684,429.9005,177.5368,429.5084,167.5053,428.9447,157.4737,429.0289,147.4421,429.8266,137.4105,429.7499,127.3789,429.4836,117.3474,428.8279,107.3158,430.1581,97.2842,429.1882,87.2526,428.9719,77.2211,429.4327,67.1895,430.0897,57.1579,430.1154,47.1263,429.5351,37.0947,429.3488,27.0632,429.6698,17.0316,429.6862,7,429.5,6.4922,429.5,7.414,419.4405,7.5588,409.381,6.7842,399.3214,6.5708,389.2619,7.6746,379.2024,7.021,369.1429,6.9998,359.0833,7.299,349.0238,6.3543,338.9643,7.53,328.9048,6.9846,318.8452,7.6688,308.7857,6.7841,298.7262,7.409,288.6667,6.556,278.6071,7.245,268.5476,7.3793,258.4881,6.6727,248.4286,7.363,238.369,6.4286,228.3095,6.5295,218.25,7.6828,208.1905,7.6844,198.131,7.5685,188.0714,6.6396,178.0119,7.3842,167.9524,6.5279,157.8929,7.0582,147.8333,6.9987,137.7738,6.7376,127.7143,7.6159,117.6548,7.4433,107.5952,6.6792,97.5357,7.5266,87.4762,7.0919,77.4167,6.4164,67.3571,6.7667,57.2976,6.4747,47.2381,6.8609,37.1786,6.371,27.119,6.3998,17.0595,7,7" style="stroke:#C7C7C7;stroke-width:1.5;"/><polygon fill="#3D3D3D" points="440.0663,26.9189,438.3073,29.3223,436.2268,32.8426,433.2512,35.215,430.1244,36.5123,427.6313,36.6249,424.4269,35.0024,421.4035,33.9425,419.1086,31.7904,417.9048,29.3267,417.1909,27.3649,416.4915,24.8026,415.3564,22.5976,416.2287,20.4447,416.9929,18.0864,419.8611,16.2212,421.8789,13.8012,424.3764,12.9976,427.3456,12.3055,431.1532,12.7167,433.2386,13.7002,435.6633,14.146,438.6115,17.1665,439.6392,20.3552,440.0857,22.5309,439.58,26.1162" style="stroke:#C7C7C7;stroke-width:1.0;"/><path d="M429.9375,18.9844 C428.8438,18.4688 428.1406,18.3125 427.0938,18.3125 C424.0156,18.3125 421.6563,20.75 421.6563,23.9531 L421.6563,25.2656 C421.6563,28.3125 424.1406,30.5313 427.5469,30.5313 C428.9844,30.5313 430.3438,30.1719 431.2188,29.5313 C431.9063,29.0469 432.2813,28.5313 432.2813,28.0625 C432.2813,27.5313 431.8125,27.0625 431.2813,27.0625 C431.0156,27.0625 430.7813,27.1719 430.5625,27.3906 C430.0156,27.9531 430.0156,27.9531 429.7969,28.0625 C429.2969,28.375 428.5,28.5313 427.5938,28.5313 C425.2031,28.5313 423.6563,27.2344 423.6563,25.2344 L423.6563,23.9531 C423.6563,21.8438 425.1406,20.3125 427.1875,20.3125 C427.8594,20.3125 428.5781,20.4844 429.125,20.7969 C429.7031,21.1094 429.9063,21.375 430,21.8438 C430.0781,22.3281 430.125,22.4688 430.2813,22.625 C430.4375,22.7969 430.7188,22.9063 430.9844,22.9063 C431.2969,22.9063 431.5938,22.75 431.7969,22.4844 C431.9375,22.3125 431.9844,22.0938 431.9844,21.5938 L431.9844,19.9063 C431.9844,19.4063 431.9531,19.25 431.8438,19.0625 C431.6563,18.7656 431.3438,18.5938 430.9844,18.5938 C430.6406,18.5938 430.4063,18.7031 430.1406,19.0625 L429.9375,18.9844 Z " fill="#FFFFFF"/><text fill="#FFFFFF" font-family="sans-serif" font-size="20" lengthAdjust="spacingAndGlyphs" textLength="102" x="450" y="30.9238">Gebruiker</text><path d="M8,41 L8,41.2802 L18.0105,40.4476 L28.0211,41.2577 L38.0316,41.5329 L48.0421,40.0488 L58.0526,40.8964 L68.0632,40.4313 L78.0737,40.4887 L88.0842,40.9091 L98.0947,40.0782 L108.1053,41.7382 L118.1158,40.1596 L128.1263,40.7363 L138.1368,41.5759 L148.1474,40.8856 L158.1579,41.091 L168.1684,40.9574 L178.1789,41.238 L188.1895,41.3188 L198.2,41.7809 L208.2105,41.8947 L218.2211,41.9057 L228.2316,41.3395 L238.2421,41.6181 L248.2526,41.9363 L258.2632,40.0384 L268.2737,41.9047 L278.2842,40.6047 L288.2947,41.7117 L298.3053,40.34 L308.3158,40.9087 L318.3263,41.9888 L328.3368,40.935 L338.3474,41.1404 L348.3579,41.4515 L358.3684,41.555 L368.3789,40.9948 L378.3895,41.383 L388.4,40.2368 L398.4105,41.3792 L408.4211,41.7309 L418.4316,41.5927 L428.4421,41.8174 L438.4526,40.3559 L448.4632,40.1304 L458.4737,40.1715 L468.4842,40.9215 L478.4947,40.738 L488.5053,41.9085 L498.5158,40.7671 L508.5263,40.5426 L518.5368,41.3044 L528.5474,40.1109 L538.5579,40.3078 L548.5684,41.8653 L558.5789,41.5809 L568.5895,41.9793 L578.6,40.5709 L588.6105,41.4256 L598.6211,41.7872 L608.6316,40.3701 L618.6421,40.8722 L628.6526,41.168 L638.6632,41.869 L648.6737,40.9944 L658.6842,41.6168 L668.6947,40.2616 L678.7053,40.097 L688.7158,41.6715 L698.7263,40.0441 L708.7368,41.6786 L718.7474,41.2755 L728.7579,40.6428 L738.7684,40.5283 L748.7789,41.6117 L758.7895,40.6009 L768.8,41.7891 L778.8105,40.263 L788.8211,41.8232 L798.8316,41.6457 L808.8421,41.3266 L818.8526,41.063 L828.8632,41.9688 L838.8737,41.8181 L848.8842,41.2257 L858.8947,41.3576 L868.9053,40.8263 L878.9158,41.9553 L888.9263,41.2065 L898.9368,41.2301 L908.9474,40.1889 L918.9579,40.4597 L928.9684,41.7077 L938.9789,41.573 L948.9895,40.9428 L959,41 " fill="#070707" style="stroke:#C7C7C7;stroke-width:1.5;"/><text fill="#FFFFFF" font-family="sans-serif" font-size="20" lengthAdjust="spacingAndGlyphs" textLength="87" x="13" y="63.5645">String id</text><text fill="#FFFFFF" font-family="sans-serif" font-size="20" lengthAdjust="spacingAndGlyphs" textLength="236" x="13" y="86.8457">String gebruikersNaam</text><text fill="#FFFFFF" font-family="sans-serif" font-size="20" lengthAdjust="spacingAndGlyphs" textLength="165" x="13" y="110.127">String paswoord</text><text fill="#FFFFFF" font-family="sans-serif" font-size="20" lengthAdjust="spacingAndGlyphs" textLength="125" x="13" y="133.4082">String naam</text><text fill="#FFFFFF" font-family="sans-serif" font-size="20" lengthAdjust="spacingAndGlyphs" textLength="170" x="13" y="156.6895">String voornaam</text><text fill="#FFFFFF" font-family="sans-serif" font-size="20" lengthAdjust="spacingAndGlyphs" textLength="124" x="13" y="179.9707">String email</text><text fill="#FFFFFF" font-family="sans-serif" font-size="20" lengthAdjust="spacingAndGlyphs" textLength="129" x="13" y="203.252">String straat</text><text fill="#FFFFFF" font-family="sans-serif" font-size="20" lengthAdjust="spacingAndGlyphs" textLength="155" x="13" y="226.5332">String nummer</text><text fill="#FFFFFF" font-family="sans-serif" font-size="20" lengthAdjust="spacingAndGlyphs" textLength="104" x="13" y="249.8145">String bus</text><text fill="#FFFFFF" font-family="sans-serif" font-size="20" lengthAdjust="spacingAndGlyphs" textLength="160" x="13" y="273.0957">String postcode</text><text fill="#FFFFFF" font-family="sans-serif" font-size="20" lengthAdjust="spacingAndGlyphs" textLength="130" x="13" y="296.377">String plaats</text><path d="M8,305.0938 L8,305.374 L18.0105,304.5413 L28.0211,305.3515 L38.0316,305.6267 L48.0421,304.1426 L58.0526,304.9901 L68.0632,304.5251 L78.0737,304.5824 L88.0842,305.0029 L98.0947,304.1719 L108.1053,305.8319 L118.1158,304.2534 L128.1263,304.8301 L138.1368,305.6697 L148.1474,304.9794 L158.1579,305.1847 L168.1684,305.0512 L178.1789,305.3318 L188.1895,305.4126 L198.2,305.8747 L208.2105,305.9885 L218.2211,305.9994 L228.2316,305.4333 L238.2421,305.7119 L248.2526,306.0301 L258.2632,304.1322 L268.2737,305.9984 L278.2842,304.6984 L288.2947,305.8055 L298.3053,304.4337 L308.3158,305.0024 L318.3263,306.0826 L328.3368,305.0288 L338.3474,305.2342 L348.3579,305.5453 L358.3684,305.6487 L368.3789,305.0885 L378.3895,305.4767 L388.4,304.3305 L398.4105,305.4729 L408.4211,305.8247 L418.4316,305.6865 L428.4421,305.9111 L438.4526,304.4496 L448.4632,304.2242 L458.4737,304.2652 L468.4842,305.0152 L478.4947,304.8317 L488.5053,306.0023 L498.5158,304.8608 L508.5263,304.6363 L518.5368,305.3981 L528.5474,304.2046 L538.5579,304.4016 L548.5684,305.959 L558.5789,305.6746 L568.5895,306.0731 L578.6,304.6647 L588.6105,305.5193 L598.6211,305.881 L608.6316,304.4639 L618.6421,304.9659 L628.6526,305.2617 L638.6632,305.9628 L648.6737,305.0882 L658.6842,305.7105 L668.6947,304.3554 L678.7053,304.1907 L688.7158,305.7652 L698.7263,304.1378 L708.7368,305.7724 L718.7474,305.3693 L728.7579,304.7365 L738.7684,304.6221 L748.7789,305.7054 L758.7895,304.6946 L768.8,305.8829 L778.8105,304.3568 L788.8211,305.917 L798.8316,305.7395 L808.8421,305.4204 L818.8526,305.1567 L828.8632,306.0626 L838.8737,305.9119 L848.8842,305.3194 L858.8947,305.4513 L868.9053,304.9201 L878.9158,306.049 L888.9263,305.3002 L898.9368,305.3238 L908.9474,304.2826 L918.9579,304.5535 L928.9684,305.8014 L938.9789,305.6668 L948.9895,305.0365 L959,305.0938 " fill="#070707" style="stroke:#C7C7C7;stroke-width:1.5;"/><text fill="#FFFFFF" font-family="sans-serif" font-size="20" lengthAdjust="spacingAndGlyphs" textLength="341" x="13" y="327.6582">void veranderNaam(String naam)</text><text fill="#FFFFFF" font-family="sans-serif" font-size="20" lengthAdjust="spacingAndGlyphs" textLength="177" x="13" y="350.9395">String getNaam()</text><text fill="#FFFFFF" font-family="sans-serif" font-size="20" lengthAdjust="spacingAndGlyphs" textLength="418" x="13" y="374.2207">void veranderPaswoord(String paswoord)</text><text fill="#FFFFFF" font-family="sans-serif" font-size="20" lengthAdjust="spacingAndGlyphs" textLength="176" x="13" y="397.502">String getAdres()</text><text fill="#FFFFFF" font-family="sans-serif" font-size="20" lengthAdjust="spacingAndGlyphs" textLength="941" x="13" y="420.7832">void veranderAdres(String straat, String nummer, String bus, String postcode, String plaats)</text><!--MD5=[a07038b443ed5840f8372dc3ff25a59f]
@startuml
skinparam monochrome reverse
        skinparam backgroundColor transparent
        skinparam handwritten true
        skinparam defaultFontSize 20

        class Gebruiker {
            String id
            String gebruikersNaam
            String paswoord
            String naam
            String voornaam
            String email
            String straat
            String nummer
            String bus
            String postcode
            String plaats
            void veranderNaam(String naam)
            String getNaam()
            void veranderPaswoord(String paswoord)
            String getAdres()
            void veranderAdres(String straat, String nummer, String bus, String postcode, String plaats)
        }
@enduml

PlantUML version 1.2020.21beta3(Unknown compile time)
(GPL source distribution)
Java Runtime: Java(TM) SE Runtime Environment
JVM: Java HotSpot(TM) 64-Bit Server VM
Default Encoding: UTF-8
Language: en
Country: US
--></g></svg>