<?xml version="1.0" encoding="UTF-8" standalone="no"?><svg xmlns="http://www.w3.org/2000/svg" xmlns:xlink="http://www.w3.org/1999/xlink" contentScriptType="application/ecmascript" contentStyleType="text/css" height="230px" preserveAspectRatio="none" style="width:702px;height:230px;background:#00000000;" version="1.1" viewBox="0 0 702 230" width="702px" zoomAndPan="magnify"><defs><filter height="300%" id="f1fw40ircwirzb" width="300%" x="-1" y="-1"><feGaussianBlur result="blurOut" stdDeviation="2.0"/><feColorMatrix in="blurOut" result="blurOut2" type="matrix" values="0 0 0 0 0 0 0 0 0 0 0 0 0 0 0 0 0 0 .4 0"/><feOffset dx="4.0" dy="4.0" in="blurOut2" result="blurOut3"/><feBlend in="SourceGraphic" in2="blurOut3" mode="normal"/></filter></defs><g><!--MD5=[d3160beab778c2ae2d89d9a3de669684]
class ge1--><polygon fill="#070707" filter="url(#f1fw40ircwirzb)" points="7,7,7,7.2102,16.9375,6.5857,26.875,7.1933,36.8125,7.3997,46.75,6.2866,56.6875,6.9223,66.625,6.5735,76.5625,6.6165,86.5,6.9318,96.4375,6.3086,106.375,7.5536,116.3125,6.3697,126.25,6.8022,136.1875,7.4319,146.125,6.9142,156.0625,7.0682,166,7,165.9894,7,166.0595,15.9844,166.0797,24.9688,166.1952,33.9531,166.2237,42.9375,166,51.9219,166,52.6011,156.0625,52.1765,146.125,52.3855,136.1875,52.6241,126.25,51.2007,116.3125,52.6004,106.375,51.6254,96.4375,52.4557,86.5,51.4269,76.5625,51.8534,66.625,52.6635,56.6875,51.8731,46.75,52.0272,36.8125,52.2605,26.875,52.3381,16.9375,51.918,7,51.9219,7.0957,51.9219,6.8092,42.9375,7.0948,33.9531,7.1827,24.9688,7.1482,15.9844,7,7" style="stroke:#C7C7C7;stroke-width:1.5;"/><text fill="#FFFFFF" font-family="sans-serif" font-size="30" lengthAdjust="spacingAndGlyphs" textLength="153" x="10" y="39.8467">Gebruiker</text><!--MD5=[e270793645c14639a3b58ef957d134e0]
class ge2--><polygon fill="#070707" filter="url(#f1fw40ircwirzb)" points="181,7,181,7.2102,190.9375,6.5857,200.875,7.1933,210.8125,7.3997,220.75,6.2866,230.6875,6.9223,240.625,6.5735,250.5625,6.6165,260.5,6.9318,270.4375,6.3086,280.375,7.5536,290.3125,6.3697,300.25,6.8022,310.1875,7.4319,320.125,6.9142,330.0625,7.0682,340,7,339.9894,7,340.0595,15.9844,340.0797,24.9688,340.1952,33.9531,340.2237,42.9375,340,51.9219,340,52.6011,330.0625,52.1765,320.125,52.3855,310.1875,52.6241,300.25,51.2007,290.3125,52.6004,280.375,51.6254,270.4375,52.4557,260.5,51.4269,250.5625,51.8534,240.625,52.6635,230.6875,51.8731,220.75,52.0272,210.8125,52.2605,200.875,52.3381,190.9375,51.918,181,51.9219,181.0957,51.9219,180.8092,42.9375,181.0948,33.9531,181.1827,24.9688,181.1482,15.9844,181,7" style="stroke:#C7C7C7;stroke-width:1.5;"/><text fill="#FFFFFF" font-family="sans-serif" font-size="30" lengthAdjust="spacingAndGlyphs" textLength="153" x="184" y="39.8467">Gebruiker</text><!--MD5=[e493b468ef2fdad65a3c146755840ed9]
class ge3--><polygon fill="#070707" filter="url(#f1fw40ircwirzb)" points="355,7,355,7.2102,364.9375,6.5857,374.875,7.1933,384.8125,7.3997,394.75,6.2866,404.6875,6.9223,414.625,6.5735,424.5625,6.6165,434.5,6.9318,444.4375,6.3086,454.375,7.5536,464.3125,6.3697,474.25,6.8022,484.1875,7.4319,494.125,6.9142,504.0625,7.0682,514,7,513.9894,7,514.0595,15.9844,514.0797,24.9688,514.1952,33.9531,514.2237,42.9375,514,51.9219,514,52.6011,504.0625,52.1765,494.125,52.3855,484.1875,52.6241,474.25,51.2007,464.3125,52.6004,454.375,51.6254,444.4375,52.4557,434.5,51.4269,424.5625,51.8534,414.625,52.6635,404.6875,51.8731,394.75,52.0272,384.8125,52.2605,374.875,52.3381,364.9375,51.918,355,51.9219,355.0957,51.9219,354.8092,42.9375,355.0948,33.9531,355.1827,24.9688,355.1482,15.9844,355,7" style="stroke:#C7C7C7;stroke-width:1.5;"/><text fill="#FFFFFF" font-family="sans-serif" font-size="30" lengthAdjust="spacingAndGlyphs" textLength="153" x="358" y="39.8467">Gebruiker</text><!--MD5=[f3afe5feb8d65994273bd8ae5ae49e89]
class ge4--><polygon fill="#070707" filter="url(#f1fw40ircwirzb)" points="529,7,529,7.2102,538.9375,6.5857,548.875,7.1933,558.8125,7.3997,568.75,6.2866,578.6875,6.9223,588.625,6.5735,598.5625,6.6165,608.5,6.9318,618.4375,6.3086,628.375,7.5536,638.3125,6.3697,648.25,6.8022,658.1875,7.4319,668.125,6.9142,678.0625,7.0682,688,7,687.9894,7,688.0595,15.9844,688.0797,24.9688,688.1952,33.9531,688.2237,42.9375,688,51.9219,688,52.6011,678.0625,52.1765,668.125,52.3855,658.1875,52.6241,648.25,51.2007,638.3125,52.6004,628.375,51.6254,618.4375,52.4557,608.5,51.4269,598.5625,51.8534,588.625,52.6635,578.6875,51.8731,568.75,52.0272,558.8125,52.2605,548.875,52.3381,538.9375,51.918,529,51.9219,529.0957,51.9219,528.8092,42.9375,529.0948,33.9531,529.1827,24.9688,529.1482,15.9844,529,7" style="stroke:#C7C7C7;stroke-width:1.5;"/><text fill="#FFFFFF" font-family="sans-serif" font-size="30" lengthAdjust="spacingAndGlyphs" textLength="153" x="532" y="39.8467">Gebruiker</text><!--MD5=[83b1a8930f034cfe6485befb9d3ae296]
class re1--><polygon fill="#070707" filter="url(#f1fw40ircwirzb)" points="11.5,172,11.5,172.2102,21.5,171.5857,31.5,172.1933,41.5,172.3997,51.5,171.2866,61.5,171.9223,71.5,171.5735,81.5,171.6165,91.5,171.9318,101.5,171.3086,111.5,172.5536,121.5,171.3697,131.5,171.8022,141.5,172.4319,151.5,171.9142,161.5,172,161.5227,172,161.4894,180.9844,161.5595,189.9688,161.5797,198.9531,161.6952,207.9375,161.5,216.9219,161.5,217.5929,151.5,217.6011,141.5,217.1765,131.5,217.3855,121.5,217.6241,111.5,216.2007,101.5,217.6004,91.5,216.6254,81.5,217.4557,71.5,216.4269,61.5,216.8534,51.5,217.6635,41.5,216.8731,31.5,217.0272,21.5,217.2605,11.5,216.9219,11.6387,216.9219,11.4987,207.9375,11.5957,198.9531,11.3092,189.9688,11.5948,180.9844,11.5,172" style="stroke:#C7C7C7;stroke-width:1.5;"/><text fill="#FFFFFF" font-family="sans-serif" font-size="30" lengthAdjust="spacingAndGlyphs" textLength="144" x="14.5" y="204.8467">Rekening</text><!--MD5=[6612b66d12c92d3c160a004d4bd68f5d]
class re2--><polygon fill="#070707" filter="url(#f1fw40ircwirzb)" points="185.5,172,185.5,172.2102,195.5,171.5857,205.5,172.1933,215.5,172.3997,225.5,171.2866,235.5,171.9223,245.5,171.5735,255.5,171.6165,265.5,171.9318,275.5,171.3086,285.5,172.5536,295.5,171.3697,305.5,171.8022,315.5,172.4319,325.5,171.9142,335.5,172,335.5227,172,335.4894,180.9844,335.5595,189.9688,335.5797,198.9531,335.6952,207.9375,335.5,216.9219,335.5,217.5929,325.5,217.6011,315.5,217.1765,305.5,217.3855,295.5,217.6241,285.5,216.2007,275.5,217.6004,265.5,216.6254,255.5,217.4557,245.5,216.4269,235.5,216.8534,225.5,217.6635,215.5,216.8731,205.5,217.0272,195.5,217.2605,185.5,216.9219,185.6387,216.9219,185.4987,207.9375,185.5957,198.9531,185.3092,189.9688,185.5948,180.9844,185.5,172" style="stroke:#C7C7C7;stroke-width:1.5;"/><text fill="#FFFFFF" font-family="sans-serif" font-size="30" lengthAdjust="spacingAndGlyphs" textLength="144" x="188.5" y="204.8467">Rekening</text><!--MD5=[fb36f39110a0c49181b8cef175878078]
class re3--><polygon fill="#070707" filter="url(#f1fw40ircwirzb)" points="359.5,172,359.5,172.2102,369.5,171.5857,379.5,172.1933,389.5,172.3997,399.5,171.2866,409.5,171.9223,419.5,171.5735,429.5,171.6165,439.5,171.9318,449.5,171.3086,459.5,172.5536,469.5,171.3697,479.5,171.8022,489.5,172.4319,499.5,171.9142,509.5,172,509.5227,172,509.4894,180.9844,509.5595,189.9688,509.5797,198.9531,509.6952,207.9375,509.5,216.9219,509.5,217.5929,499.5,217.6011,489.5,217.1765,479.5,217.3855,469.5,217.6241,459.5,216.2007,449.5,217.6004,439.5,216.6254,429.5,217.4557,419.5,216.4269,409.5,216.8534,399.5,217.6635,389.5,216.8731,379.5,217.0272,369.5,217.2605,359.5,216.9219,359.6387,216.9219,359.4987,207.9375,359.5957,198.9531,359.3092,189.9688,359.5948,180.9844,359.5,172" style="stroke:#C7C7C7;stroke-width:1.5;"/><text fill="#FFFFFF" font-family="sans-serif" font-size="30" lengthAdjust="spacingAndGlyphs" textLength="144" x="362.5" y="204.8467">Rekening</text><!--MD5=[940f3694cb4ffc84c8129407ff5074c4]
class re4--><polygon fill="#070707" filter="url(#f1fw40ircwirzb)" points="533.5,172,533.5,172.2102,543.5,171.5857,553.5,172.1933,563.5,172.3997,573.5,171.2866,583.5,171.9223,593.5,171.5735,603.5,171.6165,613.5,171.9318,623.5,171.3086,633.5,172.5536,643.5,171.3697,653.5,171.8022,663.5,172.4319,673.5,171.9142,683.5,172,683.5227,172,683.4894,180.9844,683.5595,189.9688,683.5797,198.9531,683.6952,207.9375,683.5,216.9219,683.5,217.5929,673.5,217.6011,663.5,217.1765,653.5,217.3855,643.5,217.6241,633.5,216.2007,623.5,217.6004,613.5,216.6254,603.5,217.4557,593.5,216.4269,583.5,216.8534,573.5,217.6635,563.5,216.8731,553.5,217.0272,543.5,217.2605,533.5,216.9219,533.6387,216.9219,533.4987,207.9375,533.5957,198.9531,533.3092,189.9688,533.5948,180.9844,533.5,172" style="stroke:#C7C7C7;stroke-width:1.5;"/><text fill="#FFFFFF" font-family="sans-serif" font-size="30" lengthAdjust="spacingAndGlyphs" textLength="144" x="536.5" y="204.8467">Rekening</text><!--MD5=[2a8b01b629c7500ff5c07e2e9dedb02c]
link ge1 to re1--><path d="M86.5,59.496 L86.7802,59.496 L85.9476,69.0511 L86.7577,78.6061 L87.0329,88.1612 L85.5488,97.7163 L86.3964,107.2713 L85.9313,116.8264 L85.9887,126.3814 L86.4091,135.9365 L85.5782,145.4916 L87.2382,155.0466 L86.5,164.6017 " fill="none" style="stroke:#C7C7C7;stroke-width:1.0;"/><path d="M90.5,167.7653 L90.5,167.8587 L88.9,167.5812 L87.3,167.8512 L85.7,167.9429 L84.1,167.4482 L82.5,167.7653 " fill="none" style="stroke:#C7C7C7;stroke-width:1.0;"/><path d="M90.5,164.7653 L90.5,164.8587 L88.9,164.5812 L87.3,164.8512 L85.7,164.9429 L84.1,164.4482 L82.5,164.7653 " fill="none" style="stroke:#C7C7C7;stroke-width:1.0;"/><path d="M86.5,163.7653 L86.5934,163.7653 L86.3159,165.3653 L86.5859,166.9653 L86.6776,168.5653 L86.1829,170.1653 L86.5,171.7653 " fill="none" style="stroke:#C7C7C7;stroke-width:1.0;"/><path d="M82.5,56.145 L82.5,56.2384 L84.1,55.9609 L85.7,56.2309 L87.3,56.3226 L88.9,55.8279 L90.5,56.145 " fill="none" style="stroke:#C7C7C7;stroke-width:1.0;"/><path d="M82.5,59.145 L82.5,59.2384 L84.1,58.9609 L85.7,59.2309 L87.3,59.3226 L88.9,58.8279 L90.5,59.145 " fill="none" style="stroke:#C7C7C7;stroke-width:1.0;"/><path d="M86.5,60.145 L86.5934,60.145 L86.3159,58.545 L86.5859,56.945 L86.6776,55.345 L86.1829,53.745 L86.5,52.145 " fill="none" style="stroke:#C7C7C7;stroke-width:1.0;"/><text fill="#FFFFFF" font-family="sans-serif" font-size="15" lengthAdjust="spacingAndGlyphs" textLength="10" x="75.1563" y="160.3668">1</text><!--MD5=[f2b824c4788b11f0804f19706579928d]
link ge2 to re2--><path d="M260.5,60.314 L260.7802,60.314 L259.9476,70.6364 L260.7577,80.9588 L261.0329,91.2813 L259.5488,101.6037 L260.3964,111.9261 L259.9313,122.2485 L259.9887,132.5709 L260.4091,142.8934 L259.5782,153.2158 L260.5,163.5382 " fill="none" style="stroke:#C7C7C7;stroke-width:1.0;"/><path d="M260.5,160.7653 L260.5934,160.7653 L260.3159,162.9653 L260.5859,165.1653 L260.6776,167.3653 L260.1829,169.5653 L260.5,171.7653 " fill="none" style="stroke:#C7C7C7;stroke-width:1.0;"/><polygon fill="none" points="264.5221,161.7383,263.9358,162.5394,263.2423,163.7128,262.2504,164.5036,261.2081,164.9361,260.3771,164.9736,259.309,164.4328,258.3012,164.0795,257.5362,163.3621,257.1349,162.5409,256.897,161.8869,256.6638,161.0328,256.2855,160.2978,256.5762,159.5802,256.831,158.7941,257.787,158.1724,258.4596,157.3657,259.2921,157.0978,260.2819,156.8671,261.5511,157.0042,262.2462,157.332,263.0544,157.4806,264.0372,158.4875,264.3797,159.5504,264.5286,160.2756,264.36,161.4707" style="stroke:#C7C7C7;stroke-width:1.0;"/><path d="M264.5,167.7653 L264.5,167.8587 L262.9,167.5812 L261.3,167.8512 L259.7,167.9429 L258.1,167.4482 L256.5,167.7653 " fill="none" style="stroke:#C7C7C7;stroke-width:1.0;"/><path d="M256.5,56.145 L256.5,56.2384 L258.1,55.9609 L259.7,56.2309 L261.3,56.3226 L262.9,55.8279 L264.5,56.145 " fill="none" style="stroke:#C7C7C7;stroke-width:1.0;"/><path d="M256.5,59.145 L256.5,59.2384 L258.1,58.9609 L259.7,59.2309 L261.3,59.3226 L262.9,58.8279 L264.5,59.145 " fill="none" style="stroke:#C7C7C7;stroke-width:1.0;"/><path d="M260.5,60.145 L260.5934,60.145 L260.3159,58.545 L260.5859,56.945 L260.6776,55.345 L260.1829,53.745 L260.5,52.145 " fill="none" style="stroke:#C7C7C7;stroke-width:1.0;"/><text fill="#FFFFFF" font-family="sans-serif" font-size="15" lengthAdjust="spacingAndGlyphs" textLength="29" x="227.6031" y="160.3668">0..1</text><!--MD5=[6ebc15469848fe975b2dda6820db585a]
link ge3 to re3--><path d="M434.5,60.314 L434.7802,60.314 L433.9476,70.6364 L434.7577,80.9588 L435.0329,91.2813 L433.5488,101.6037 L434.3964,111.9261 L433.9313,122.2485 L433.9887,132.5709 L434.4091,142.8934 L433.5782,153.2158 L434.5,163.5382 " fill="none" style="stroke:#C7C7C7;stroke-width:1.0;"/><path d="M434.5,163.7653 L434.5747,163.8213 L435.5527,165.2548 L436.9687,167.0168 L438.2421,168.6719 L439.0463,169.9751 L440.5,171.7653 " fill="none" style="stroke:#C7C7C7;stroke-width:1.0;"/><path d="M434.5,163.7653 L434.5747,163.8213 L433.1527,165.2548 L432.1687,167.0168 L431.0421,168.6719 L429.4463,169.9751 L428.5,171.7653 " fill="none" style="stroke:#C7C7C7;stroke-width:1.0;"/><path d="M434.5,163.7653 L434.5934,163.7653 L434.3159,165.3653 L434.5859,166.9653 L434.6776,168.5653 L434.1829,170.1653 L434.5,171.7653 " fill="none" style="stroke:#C7C7C7;stroke-width:1.0;"/><polygon fill="none" points="438.5221,158.7383,437.9358,159.5394,437.2423,160.7128,436.2504,161.5036,435.2081,161.9361,434.3771,161.9736,433.309,161.4328,432.3012,161.0795,431.5362,160.3621,431.1349,159.5409,430.897,158.8869,430.6638,158.0328,430.2855,157.2978,430.5762,156.5802,430.831,155.7941,431.787,155.1724,432.4596,154.3657,433.2921,154.0978,434.2819,153.8671,435.5511,154.0042,436.2462,154.332,437.0544,154.4806,438.0372,155.4875,438.3797,156.5504,438.5286,157.2756,438.36,158.4707" style="stroke:#C7C7C7;stroke-width:1.0;"/><path d="M430.5,56.145 L430.5,56.2384 L432.1,55.9609 L433.7,56.2309 L435.3,56.3226 L436.9,55.8279 L438.5,56.145 " fill="none" style="stroke:#C7C7C7;stroke-width:1.0;"/><path d="M430.5,59.145 L430.5,59.2384 L432.1,58.9609 L433.7,59.2309 L435.3,59.3226 L436.9,58.8279 L438.5,59.145 " fill="none" style="stroke:#C7C7C7;stroke-width:1.0;"/><path d="M434.5,60.145 L434.5934,60.145 L434.3159,58.545 L434.5859,56.945 L434.6776,55.345 L434.1829,53.745 L434.5,52.145 " fill="none" style="stroke:#C7C7C7;stroke-width:1.0;"/><text fill="#FFFFFF" font-family="sans-serif" font-size="15" lengthAdjust="spacingAndGlyphs" textLength="27" x="403.8719" y="160.3668">0..*</text><!--MD5=[6ab6515664a698d3557673e63dcd5663]
link ge4 to re4--><path d="M608.5,60.314 L608.7802,60.314 L607.9476,70.6364 L608.7577,80.9588 L609.0329,91.2813 L607.5488,101.6037 L608.3964,111.9261 L607.9313,122.2485 L607.9887,132.5709 L608.4091,142.8934 L607.5782,153.2158 L608.5,163.5382 " fill="none" style="stroke:#C7C7C7;stroke-width:1.0;"/><path d="M608.5,163.7653 L608.5747,163.8213 L609.5527,165.2548 L610.9687,167.0168 L612.2421,168.6719 L613.0463,169.9751 L614.5,171.7653 " fill="none" style="stroke:#C7C7C7;stroke-width:1.0;"/><path d="M608.5,163.7653 L608.5747,163.8213 L607.1527,165.2548 L606.1687,167.0168 L605.0421,168.6719 L603.4463,169.9751 L602.5,171.7653 " fill="none" style="stroke:#C7C7C7;stroke-width:1.0;"/><path d="M608.5,163.7653 L608.5934,163.7653 L608.3159,165.3653 L608.5859,166.9653 L608.6776,168.5653 L608.1829,170.1653 L608.5,171.7653 " fill="none" style="stroke:#C7C7C7;stroke-width:1.0;"/><path d="M612.5,161.7653 L612.5,161.8587 L610.9,161.5812 L609.3,161.8512 L607.7,161.9429 L606.1,161.4482 L604.5,161.7653 " fill="none" style="stroke:#C7C7C7;stroke-width:1.0;"/><path d="M604.5,56.145 L604.5,56.2384 L606.1,55.9609 L607.7,56.2309 L609.3,56.3226 L610.9,55.8279 L612.5,56.145 " fill="none" style="stroke:#C7C7C7;stroke-width:1.0;"/><path d="M604.5,59.145 L604.5,59.2384 L606.1,58.9609 L607.7,59.2309 L609.3,59.3226 L610.9,58.8279 L612.5,59.145 " fill="none" style="stroke:#C7C7C7;stroke-width:1.0;"/><path d="M608.5,60.145 L608.5934,60.145 L608.3159,58.545 L608.5859,56.945 L608.6776,55.345 L608.1829,53.745 L608.5,52.145 " fill="none" style="stroke:#C7C7C7;stroke-width:1.0;"/><text fill="#FFFFFF" font-family="sans-serif" font-size="15" lengthAdjust="spacingAndGlyphs" textLength="28" x="576.7375" y="160.3668">1..*</text><!--MD5=[7936362047389f1c6fd623ccb19f65ca]
@startuml
skinparam monochrome reverse
        skinparam backgroundColor transparent
        skinparam handwritten true
        skinparam defaultFontSize 30
        skinparam arrowThickness 1
        skinparam nodesep 15
        skinparam ranksep 120
        skinparam arrowFontSize 15

        class "Gebruiker" as ge1
        class "Gebruiker" as ge2
        class "Gebruiker" as ge3
        class "Gebruiker" as ge4
        class "Rekening" as re1
        class "Rekening" as re2
        class "Rekening" as re3
        class "Rekening" as re4

        ge1 ||- -|| "1" re1
        ge2 ||- -o| "0..1" re2
        ge3 ||- -o{ "0..*" re3
        ge4 ||- -|{ "1..*" re4

        hide members
        hide circle
@enduml

PlantUML version 1.2020.21beta3(Unknown compile time)
(GPL source distribution)
Java Runtime: Java(TM) SE Runtime Environment
JVM: Java HotSpot(TM) 64-Bit Server VM
Default Encoding: UTF-8
Language: en
Country: US
--></g></svg>